SplineFontDB: 3.2
FontName: ExploreSansVariable-Regular
FullName: ExploreSansVariable Regular
FamilyName: ExploreSansVariable
Weight: Book
Copyright: 
Version: 1.000
ItalicAngle: 0
UnderlinePosition: -102
UnderlineWidth: 51
Ascent: 819
Descent: 205
InvalidEm: 0
sfntRevision: 0x00010000
LayerCount: 2
Layer: 0 1 "Arri+AOgA-re" 1
Layer: 1 0 "Avant" 1
XUID: [1021 760 1580941675 1371018]
StyleMap: 0x0040
FSType: 4
OS2Version: 4
OS2_WeightWidthSlopeOnly: 0
OS2_UseTypoMetrics: 0
CreationTime: 1757699245
ModificationTime: 1757784964
PfmFamily: 81
TTFWeight: 400
TTFWidth: 5
LineGap: 0
VLineGap: 0
Panose: 0 0 0 0 0 0 0 0 0 0
OS2TypoAscent: 750
OS2TypoAOffset: 0
OS2TypoDescent: -192
OS2TypoDOffset: 0
OS2TypoLinegap: 286
OS2WinAscent: 1036
OS2WinAOffset: 0
OS2WinDescent: 192
OS2WinDOffset: 0
HheadAscent: 1036
HheadAOffset: 0
HheadDescent: -192
HheadDOffset: 0
OS2SubXSize: 666
OS2SubYSize: 614
OS2SubXOff: 0
OS2SubYOff: 77
OS2SupXSize: 666
OS2SupYSize: 614
OS2SupXOff: 0
OS2SupYOff: 358
OS2StrikeYSize: 51
OS2StrikeYPos: 317
OS2CapHeight: 708
OS2XHeight: 528
OS2Vendor: 'NONE'
OS2CodePages: 00000001.00000000
OS2UnicodeRanges: 00000047.00000002.00000000.00000000
Lookup: 258 0 0 "ExploreSans-Kerning Latin" { "ExploreSans-Kerning Latin-1" [153,0,4] } ['kern' ('DFLT' <'dflt' > 'latn' <'dflt' > ) ]
MarkAttachClasses: 1
DEI: 91125
KernClass2: 37 35 "ExploreSans-Kerning Latin-1"
 50 A Agrave Aacute Acircumflex Atilde Adieresis Aring
 10 C Ccedilla
 1 D
 1 F
 1 G
 1 J
 1 K
 1 L
 46 O Q Ograve Oacute Ocircumflex Otilde Odieresis
 1 P
 1 R
 1 S
 1 T
 37 U Ugrave Uacute Ucircumflex Udieresis
 1 V
 1 W
 1 X
 8 Y Yacute
 50 a agrave aacute acircumflex atilde adieresis aring
 3 b p
 10 c ccedilla
 40 e ae egrave eacute ecircumflex edieresis
 1 f
 1 g
 46 i igrave iacute icircumflex idieresis dotlessi
 1 j
 1 k
 1 l
 49 ograve oacute ocircumflex otilde odieresis oslash
 1 r
 1 s
 1 t
 1 v
 1 w
 1 x
 18 y yacute ydieresis
 50 A Agrave Aacute Acircumflex Atilde Adieresis Aring
 10 C Ccedilla
 1 D

StartChar: .notdef
Encoding: 65536 -1 0
Width: 374
GlyphClass: 1
Flags: HW
LayerCount: 2
Fore
SplineSet
34 0 m 1
 34 682 l 1
 306 682 l 1
 306 0 l 1
 34 0 l 1
68 34 m 1
 272 34 l 1
 272 648 l 1
 68 648 l 1
 68 34 l 1
EndSplineSet
EndChar

StartChar: A
Encoding: 65 65 2
Width: 619
GlyphClass: 1
Flags: HW
HStem: 0 21G<20 104.813 514.846 598> 182 64<182 446> 688 20G<265.853 377.412>
LayerCount: 2
Back
SplineSet
231 708 m 5,0,-1
 467 708 l 1,1,-1
 692 0 l 1,2,-1
 503 0 l 1,3,-1
 460 153 l 1,4,-1
 241 153 l 1,5,-1
 196 0 l 1,6,-1
 4 0 l 1,7,-1
 231 708 l 5,0,-1
348 528 m 1,8,-1
 281 293 l 1,9,-1
 421 293 l 1,10,-1
 356 528 l 1,11,-1
 348 528 l 1,8,-1
EndSplineSet
Fore
SplineSet
273 708 m 5
 371 708 l 1
 598 0 l 1
 521 0 l 1
 465 182 l 1
 160 182 l 1
 98 0 l 1
 20 0 l 1
 273 708 l 5
319 648 m 1
 182 246 l 1
 446 246 l 1
 322 648 l 1
 319 648 l 1
EndSplineSet
EndChar

StartChar: AE
Encoding: 198 198 3
Width: 907
GlyphClass: 1
Flags: HW
LayerCount: 2
Back
SplineSet
346 708 m 1,0,-1
 918 708 l 1,1,-1
 918 557 l 1,2,-1
 635 557 l 1,3,-1
 635 444 l 1,4,-1
 840 444 l 1,5,-1
 840 293 l 1,6,-1
 635 293 l 1,7,-1
 635 150 l 1,8,-1
 918 150 l 1,9,-1
 918 0 l 1,10,-1
 443 0 l 1,11,-1
 443 153 l 1,12,-1
 271 153 l 1,13,-1
 198 0 l 1,14,-1
 -4 0 l 1,15,-1
 346 708 l 1,0,-1
443 556 m 1,16,-1
 326 304 l 1,17,-1
 443 304 l 1,18,-1
 443 556 l 1,16,-1
EndSplineSet
Fore
SplineSet
372 708 m 1
 854 708 l 1
 854 642 l 1
 494 642 l 1
 494 418 l 1
 776 418 l 1
 776 348 l 1
 494 348 l 1
 494 66 l 1
 854 66 l 1
 854 0 l 1
 418 0 l 1
 418 182 l 1
 204 182 l 1
 118 0 l 1
 36 0 l 1
 372 708 l 1
418 638 m 1
 235 248 l 1
 418 248 l 1
 418 638 l 1
EndSplineSet
EndChar

StartChar: Aacute
Encoding: 193 193 4
Width: 619
GlyphClass: 1
Flags: HW
LayerCount: 2
Back
SplineSet
246 778 m 1,0,-1
 209 857 l 1,1,-1
 430 971 l 1,2,-1
 489 855 l 1,3,-1
 246 778 l 1,0,-1
231 708 m 5,0,-1
 467 708 l 1,1,-1
 692 0 l 1,2,-1
 503 0 l 1,3,-1
 460 153 l 1,4,-1
 241 153 l 1,5,-1
 196 0 l 1,6,-1
 4 0 l 1,7,-1
 231 708 l 5,0,-1
348 528 m 1,8,-1
 281 293 l 1,9,-1
 421 293 l 1,10,-1
 356 528 l 1,11,-1
 348 528 l 1,8,-1
EndSplineSet
Fore
Refer: 59 769 N 1 0 0 1 315 40 2
Refer: 2 65 N 1 0 0 1 0 0 3
EndChar

StartChar: Acircumflex
Encoding: 194 194 5
Width: 619
GlyphClass: 1
Flags: HW
LayerCount: 2
Back
SplineSet
165 841 m 25,0,-1
 320 971 l 1,1,-1
 386 971 l 1,2,-1
 541 841 l 1,3,-1
 484 770 l 1,4,-1
 353 876 l 1,5,-1
 214 770 l 1,6,-1
 165 841 l 25,0,-1
231 708 m 5,0,-1
 467 708 l 1,1,-1
 692 0 l 1,2,-1
 503 0 l 1,3,-1
 460 153 l 1,4,-1
 241 153 l 1,5,-1
 196 0 l 1,6,-1
 4 0 l 1,7,-1
 231 708 l 5,0,-1
348 528 m 1,8,-1
 281 293 l 1,9,-1
 421 293 l 1,10,-1
 356 528 l 1,11,-1
 348 528 l 1,8,-1
EndSplineSet
Fore
Refer: 163 770 N 1 0 0 1 321 40 2
Refer: 2 65 N 1 0 0 1 0 0 3
EndChar

StartChar: Adieresis
Encoding: 196 196 6
Width: 619
GlyphClass: 1
Flags: HW
LayerCount: 2
Back
SplineSet
397 878 m 4,0,1
 397 906 397 906 417.5 926.5 c 0
 438 947 438 947 466 947 c 0,2,3
 494 947 494 947 514.5 926.5 c 0
 535 906 535 906 535 878 c 0,4,5
 535 850 535 850 514.5 829.5 c 0
 494 809 494 809 466 809 c 0,6,7
 438 809 438 809 417.5 829.5 c 0
 397 850 397 850 397 878 c 4,0,1
171 878 m 0,8,9
 171 906 171 906 191.5 926.5 c 0
 212 947 212 947 240 947 c 0,10,11
 268 947 268 947 288.5 926.5 c 0
 309 906 309 906 309 878 c 0,12,13
 309 850 309 850 288.5 829.5 c 0
 268 809 268 809 240 809 c 0,14,15
 212 809 212 809 191.5 829.5 c 0
 171 850 171 850 171 878 c 0,8,9
231 708 m 5,0,-1
 467 708 l 1,1,-1
 692 0 l 1,2,-1
 503 0 l 1,3,-1
 460 153 l 1,4,-1
 241 153 l 1,5,-1
 196 0 l 1,6,-1
 4 0 l 1,7,-1
 231 708 l 5,0,-1
348 528 m 1,8,-1
 281 293 l 1,9,-1
 421 293 l 1,10,-1
 356 528 l 1,11,-1
 348 528 l 1,8,-1
EndSplineSet
Fore
Refer: 165 776 N 1 0 0 1 321 20 2
Refer: 2 65 N 1 0 0 1 0 0 3
EndChar

StartChar: Agrave
Encoding: 192 192 7
Width: 619
GlyphClass: 1
Flags: HW
LayerCount: 2
Back
SplineSet
452 778 m 1,0,-1
 209 855 l 1,1,-1
 268 971 l 1,2,-1
 489 857 l 1,3,-1
 452 778 l 1,0,-1
231 708 m 5,0,-1
 467 708 l 1,1,-1
 692 0 l 1,2,-1
 503 0 l 1,3,-1
 460 153 l 1,4,-1
 241 153 l 1,5,-1
 196 0 l 1,6,-1
 4 0 l 1,7,-1
 231 708 l 5,0,-1
348 528 m 1,8,-1
 281 293 l 1,9,-1
 421 293 l 1,10,-1
 356 528 l 1,11,-1
 348 528 l 1,8,-1
EndSplineSet
Fore
Refer: 101 768 N 1 0 0 1 321 40 2
Refer: 2 65 N 1 0 0 1 0 0 3
EndChar

StartChar: Aring
Encoding: 197 197 8
Width: 619
GlyphClass: 1
Flags: HW
LayerCount: 2
Back
SplineSet
310 819 m 0,0,1
 310 801 310 801 321 790 c 0
 332 779 332 779 349 779 c 0,2,3
 366 779 366 779 377 790 c 0
 388 801 388 801 388 819 c 0,4,5
 388 837 388 837 377 848 c 0
 366 859 366 859 349 859 c 0,6,7
 332 859 332 859 321 848 c 0
 310 837 310 837 310 819 c 0,0,1
239 819 m 0,8,9
 239 866 239 866 271 897.5 c 0
 303 929 303 929 349 929 c 0,10,11
 395 929 395 929 427 897.5 c 0
 459 866 459 866 459 819 c 0,12,13
 459 772 459 772 427 740.5 c 0
 395 709 395 709 349 709 c 0,14,15
 303 709 303 709 271 740.5 c 0
 239 772 239 772 239 819 c 0,8,9
231 708 m 5,0,-1
 467 708 l 1,1,-1
 692 0 l 1,2,-1
 503 0 l 1,3,-1
 460 153 l 1,4,-1
 241 153 l 1,5,-1
 196 0 l 1,6,-1
 4 0 l 1,7,-1
 231 708 l 5,0,-1
348 528 m 1,8,-1
 281 293 l 1,9,-1
 421 293 l 1,10,-1
 356 528 l 1,11,-1
 348 528 l 1,8,-1
EndSplineSet
Fore
Refer: 166 778 N 1 0 0 1 322 -33 2
Refer: 2 65 N 1 0 0 1 0 0 3
EndChar

StartChar: Atilde
Encoding: 195 195 9
Width: 619
GlyphClass: 1
Flags: HW
LayerCount: 2
Back
SplineSet
134 823 m 1,0,1
 144 882 144 882 178.5 919 c 0
 213 956 213 956 272 956 c 0,2,3
 306 956 306 956 333.5 939 c 0
 361 922 361 922 383 905.5 c 0
 405 889 405 889 425 889 c 0,4,5
 467 889 467 889 474 948 c 1,6,-1
 572 932 l 1,7,8
 559 862 559 862 524.5 828.5 c 0
 490 795 490 795 429 795 c 0,9,10
 396 795 396 795 370 811.5 c 0
 344 828 344 828 323.5 845 c 0
 303 862 303 862 283 862 c 0,11,12
 237 862 237 862 229 803 c 1,13,-1
 134 823 l 1,0,1
231 708 m 5,0,-1
 467 708 l 1,1,-1
 692 0 l 1,2,-1
 503 0 l 1,3,-1
 460 153 l 1,4,-1
 241 153 l 1,5,-1
 196 0 l 1,6,-1
 4 0 l 1,7,-1
 231 708 l 5,0,-1
348 528 m 1,8,-1
 281 293 l 1,9,-1
 421 293 l 1,10,-1
 356 528 l 1,11,-1
 348 528 l 1,8,-1
EndSplineSet
Fore
Refer: 154 771 N 1 0 0 1 321 40 2
Refer: 2 65 N 1 0 0 1 0 0 3
EndChar

StartChar: B
Encoding: 66 66 10
Width: 614
GlyphClass: 1
Flags: HW
HStem: 0 64<156 433.492> 344 68<156 423.587> 644 64<156 417.78>
VStem: 80 76<64 344 412 644> 464 78<452.606 602.077> 494 80<119.46 283.293>
LayerCount: 2
Back
SplineSet
64 708 m 5,0,-1
 383 708 l 2,1,2
 479 708 479 708 544.5 660 c 0
 610 612 610 612 610 531 c 0,3,4
 610 403 610 403 508 373 c 1,5,6
 574 359 574 359 607.5 318.5 c 0
 641 278 641 278 641 196 c 0,7,8
 641 146 641 146 620.5 107 c 0
 600 68 600 68 565.5 45.5 c 0
 531 23 531 23 489.5 11.5 c 0
 448 0 448 0 403 0 c 2,9,-1
 64 0 l 1,10,-1
 64 708 l 5,0,-1
256 548 m 1,11,-1
 256 437 l 1,12,-1
 350 437 l 2,13,14
 418 437 418 437 418 494 c 0,15,16
 418 548 418 548 351 548 c 2,17,-1
 256 548 l 1,11,-1
256 297 m 1,18,-1
 256 160 l 1,19,-1
 362 160 l 2,20,21
 449 160 449 160 449 228 c 0,22,23
 449 265 449 265 427 281 c 0
 405 297 405 297 359 297 c 2,24,-1
 256 297 l 1,18,-1
EndSplineSet
Fore
SplineSet
80 708 m 5
 329 708 l 2
 461 708 542 641 542 534 c 0
 542 461 507 409 438 378 c 1
 521 357 574 288 574 197 c 0
 574 74 490 0 350 0 c 2
 80 0 l 1
 80 708 l 5
156 644 m 1
 156 412 l 1
 333 412 l 2
 423 412 464 449 464 530 c 0
 464 606 418 644 327 644 c 2
 156 644 l 1
156 344 m 1
 156 64 l 1
 350 64 l 2
 441 64 494 115 494 202 c 0
 494 294 436 344 327 344 c 2
 156 344 l 1
EndSplineSet
EndChar

StartChar: C
Encoding: 67 67 11
Width: 613
GlyphClass: 1
Flags: HW
LayerCount: 2
Back
SplineSet
374 716 m 0,0,1
 456 716 456 716 514 694 c 0
 572 672 572 672 641 618 c 1,2,-1
 560 503 l 1,3,4
 487 564 487 564 392 564 c 0,5,6
 313 564 313 564 268.5 508 c 0
 224 452 224 452 224 353 c 0,7,8
 224 145 224 145 395 145 c 0,9,10
 508 145 508 145 579 210 c 1,11,-1
 655 87 l 1,12,13
 541 -7 541 -7 375 -7 c 0,14,15
 219 -7 219 -7 125.5 90.5 c 0
 32 188 32 188 32 353 c 0,16,17
 32 518 32 518 128 617 c 0
 224 716 224 716 374 716 c 0,0,1
EndSplineSet
Fore
SplineSet
352 716 m 4
 439 716 516 687 581 628 c 1
 547 580 l 1
 473 643 414 653 353 653 c 0
 225 653 134 554 134 352 c 0
 134 253 158 57 345 57 c 0
 420 57 486 80 545 126 c 1
 579 73 l 1
 550 49 473 -7 344 -7 c 0
 175 -7 56 115 56 352 c 0
 56 425 74 716 352 716 c 4
EndSplineSet
EndChar

StartChar: Ccedilla
Encoding: 199 199 12
Width: 606
GlyphClass: 1
Flags: HW
LayerCount: 2
Back
SplineSet
266 -224 m 0,0,1
 229 -224 229 -224 202 -215 c 1,2,-1
 215 -134 l 1,3,-1
 262 -134 l 2,4,5
 290 -134 290 -134 305.5 -117.5 c 0
 321 -101 321 -101 321 -73 c 2,6,-1
 321 0 l 1,7,-1
 429 0 l 1,8,-1
 429 -64 l 2,9,10
 429 -140 429 -140 386 -182 c 0
 343 -224 343 -224 266 -224 c 0,0,1
374 716 m 0,0,1
 456 716 456 716 514 694 c 0
 572 672 572 672 641 618 c 1,2,-1
 560 503 l 1,3,4
 487 564 487 564 392 564 c 0,5,6
 313 564 313 564 268.5 508 c 0
 224 452 224 452 224 353 c 0,7,8
 224 145 224 145 395 145 c 0,9,10
 508 145 508 145 579 210 c 1,11,-1
 655 87 l 1,12,13
 541 -7 541 -7 375 -7 c 0,14,15
 219 -7 219 -7 125.5 90.5 c 0
 32 188 32 188 32 353 c 0,16,17
 32 518 32 518 128 617 c 0
 224 716 224 716 374 716 c 0,0,1
EndSplineSet
Fore
Refer: 167 807 N 1 0 0 1 350 0 2
Refer: 11 67 N 1 0 0 1 0 0 2
EndChar

StartChar: D
Encoding: 68 68 13
Width: 620
GlyphClass: 1
Flags: HW
HStem: 0 64<158 374.263> 642 66<158 375.607>
VStem: 78 80<64 642> 503 79<211.931 501.807>
LayerCount: 2
Back
SplineSet
256 548 m 5,0,-1
 256 160 l 1,1,-1
 304 160 l 2,2,3
 392 160 392 160 431.5 209 c 0
 471 258 471 258 471 361 c 0,4,5
 471 458 471 458 431 503 c 0
 391 548 391 548 306 548 c 2,6,-1
 256 548 l 5,0,-1
64 708 m 1,7,-1
 328 708 l 2,8,9
 486 708 486 708 574.5 613 c 0
 663 518 663 518 663 361 c 0,10,11
 663 192 663 192 574 96 c 0
 485 0 485 0 324 0 c 2,12,-1
 64 0 l 1,13,-1
 64 708 l 1,7,-1
EndSplineSet
Fore
SplineSet
158 642 m 1
 158 64 l 1
 271 64 l 2
 426 64 503 163 503 361 c 0
 503 546 424 642 273 642 c 2
 158 642 l 1
78 708 m 1
 273 708 l 2
 473 708 582 585 582 361 c 0
 582 124 475 0 269 0 c 2
 78 0 l 1
 78 708 l 1
EndSplineSet
EndChar

StartChar: E
Encoding: 69 69 14
Width: 546
GlyphClass: 1
Flags: HW
LayerCount: 2
Back
SplineSet
64 708 m 5,0,-1
 570 708 l 1,1,-1
 570 548 l 1,2,-1
 256 548 l 1,3,-1
 256 438 l 1,4,-1
 512 438 l 1,5,-1
 512 288 l 1,6,-1
 256 288 l 1,7,-1
 256 160 l 1,8,-1
 584 160 l 1,9,-1
 584 0 l 1,10,-1
 64 0 l 1,11,-1
 64 708 l 5,0,-1
EndSplineSet
Fore
SplineSet
78 708 m 1
 508 708 l 1
 508 644 l 1
 158 644 l 1
 158 402 l 1
 430 402 l 1
 430 332 l 1
 158 332 l 1
 158 64 l 1
 508 64 l 1
 508 0 l 1
 78 0 l 1
 78 708 l 1
EndSplineSet
EndChar

StartChar: Eacute
Encoding: 201 201 15
Width: 546
GlyphClass: 1
Flags: HW
LayerCount: 2
Back
SplineSet
232 777 m 1,0,-1
 195 856 l 1,1,-1
 416 970 l 1,2,-1
 475 854 l 1,3,-1
 232 777 l 1,0,-1
64 708 m 5,0,-1
 570 708 l 1,1,-1
 570 548 l 1,2,-1
 256 548 l 1,3,-1
 256 438 l 1,4,-1
 512 438 l 1,5,-1
 512 288 l 1,6,-1
 256 288 l 1,7,-1
 256 160 l 1,8,-1
 584 160 l 1,9,-1
 584 0 l 1,10,-1
 64 0 l 1,11,-1
 64 708 l 5,0,-1
EndSplineSet
Fore
Refer: 59 769 N 1 0 0 1 294 40 2
Refer: 14 69 N 1 0 0 1 0 0 3
EndChar

StartChar: Ecircumflex
Encoding: 202 202 16
Width: 546
GlyphClass: 1
Flags: HW
LayerCount: 2
Back
SplineSet
151 840 m 25,0,-1
 306 970 l 1,1,-1
 372 970 l 1,2,-1
 527 840 l 1,3,-1
 470 769 l 1,4,-1
 339 875 l 1,5,-1
 200 769 l 1,6,-1
 151 840 l 25,0,-1
64 708 m 5,0,-1
 570 708 l 1,1,-1
 570 548 l 1,2,-1
 256 548 l 1,3,-1
 256 438 l 1,4,-1
 512 438 l 1,5,-1
 512 288 l 1,6,-1
 256 288 l 1,7,-1
 256 160 l 1,8,-1
 584 160 l 1,9,-1
 584 0 l 1,10,-1
 64 0 l 1,11,-1
 64 708 l 5,0,-1
EndSplineSet
Fore
Refer: 163 770 N 1 0 0 1 300 40 2
Refer: 14 69 N 1 0 0 1 0 0 3
EndChar

StartChar: Edieresis
Encoding: 203 203 17
Width: 546
GlyphClass: 1
Flags: HW
LayerCount: 2
Back
SplineSet
383 877 m 4,0,1
 383 906 383 906 403.5 926 c 0
 424 946 424 946 452 946 c 0,2,3
 480 946 480 946 500.5 926 c 0
 521 906 521 906 521 877 c 0,4,5
 521 848 521 848 500.5 828 c 0
 480 808 480 808 452 808 c 0,6,7
 424 808 424 808 403.5 828 c 0
 383 848 383 848 383 877 c 4,0,1
157 877 m 0,8,9
 157 906 157 906 177.5 926 c 0
 198 946 198 946 226 946 c 0,10,11
 254 946 254 946 274.5 926 c 0
 295 906 295 906 295 877 c 0,12,13
 295 848 295 848 274.5 828 c 0
 254 808 254 808 226 808 c 0,14,15
 198 808 198 808 177.5 828 c 0
 157 848 157 848 157 877 c 0,8,9
64 708 m 5,0,-1
 570 708 l 1,1,-1
 570 548 l 1,2,-1
 256 548 l 1,3,-1
 256 438 l 1,4,-1
 512 438 l 1,5,-1
 512 288 l 1,6,-1
 256 288 l 1,7,-1
 256 160 l 1,8,-1
 584 160 l 1,9,-1
 584 0 l 1,10,-1
 64 0 l 1,11,-1
 64 708 l 5,0,-1
EndSplineSet
Fore
Refer: 165 776 N 1 0 0 1 300 20 2
Refer: 14 69 N 1 0 0 1 0 0 3
EndChar

StartChar: Egrave
Encoding: 200 200 18
Width: 546
GlyphClass: 1
Flags: HW
LayerCount: 2
Back
SplineSet
438 777 m 1,0,-1
 195 854 l 1,1,-1
 254 970 l 1,2,-1
 475 856 l 1,3,-1
 438 777 l 1,0,-1
64 708 m 5,0,-1
 570 708 l 1,1,-1
 570 548 l 1,2,-1
 256 548 l 1,3,-1
 256 438 l 1,4,-1
 512 438 l 1,5,-1
 512 288 l 1,6,-1
 256 288 l 1,7,-1
 256 160 l 1,8,-1
 584 160 l 1,9,-1
 584 0 l 1,10,-1
 64 0 l 1,11,-1
 64 708 l 5,0,-1
EndSplineSet
Fore
Refer: 101 768 N 1 0 0 1 300 40 2
Refer: 14 69 N 1 0 0 1 0 0 3
EndChar

StartChar: Euro
Encoding: 8364 8364 19
Width: 672
GlyphClass: 1
Flags: HW
LayerCount: 2
Back
SplineSet
435 715 m 0,0,1
 503 715 503 715 563.5 685 c 0
 624 655 624 655 662 596 c 1,2,-1
 598 532 l 1,3,4
 575 566 575 566 533.5 588.5 c 0
 492 611 492 611 443 611 c 0,5,6
 349 611 349 611 294.5 547.5 c 0
 240 484 240 484 240 353 c 0,7,8
 240 218 240 218 288.5 157 c 0
 337 96 337 96 431 96 c 0,9,10
 527 96 527 96 600 170 c 1,11,-1
 662 98 l 1,12,13
 556 -8 556 -8 421 -8 c 0,14,15
 275 -8 275 -8 193.5 89 c 0
 112 186 112 186 112 353 c 0,16,17
 112 520 112 520 199.5 617.5 c 0
 287 715 287 715 435 715 c 0,0,1
38 315 m 1,18,-1
 450 315 l 1,19,-1
 423 235 l 1,20,-1
 38 235 l 1,21,-1
 38 315 l 1,18,-1
32 489 m 1,22,-1
 509 489 l 1,23,-1
 481 409 l 1,24,-1
 32 409 l 1,25,-1
 32 489 l 1,22,-1
EndSplineSet
Fore
SplineSet
403 59 m 0
 451 59 521 64 586 147 c 1
 624 97 l 1
 623 96 l 1
 604 72 531 -7 402 -7 c 0
 313 -7 241 25 187 89 c 0
 154 128 131 175 118 232 c 1
 30 232 l 1
 30 302 l 1
 108 302 l 1
 107 318 106 335 106 352 c 0
 106 377 107 400 110 422 c 1
 30 422 l 1
 30 492 l 1
 123 492 l 1
 137 543 201 716 410 716 c 0
 505 716 578 677 628 600 c 1
 585 557 l 1
 530 636 477 650 411 650 c 0
 363 650 250 634 204 492 c 1
 513 492 l 1
 489 422 l 1
 188 422 l 1
 185 400 184 377 184 352 c 0
 184 335 185 318 186 302 c 1
 447 302 l 1
 425 232 l 1
 198 232 l 1
 206 200 246 59 403 59 c 0
EndSplineSet
EndChar

StartChar: F
Encoding: 70 70 20
Width: 556
GlyphClass: 1
Flags: HW
LayerCount: 2
Back
SplineSet
64 708 m 5,0,-1
 561 708 l 1,1,-1
 561 543 l 1,2,-1
 256 543 l 1,3,-1
 256 425 l 1,4,-1
 483 425 l 1,5,-1
 483 275 l 1,6,-1
 256 275 l 1,7,-1
 256 0 l 1,8,-1
 64 0 l 1,9,-1
 64 708 l 5,0,-1
EndSplineSet
Fore
SplineSet
78 708 m 1
 518 708 l 1
 518 644 l 1
 160 644 l 1
 160 406 l 1
 440 406 l 1
 440 336 l 1
 160 336 l 1
 160 0 l 1
 78 0 l 1
 78 708 l 1
EndSplineSet
EndChar

StartChar: G
Encoding: 71 71 21
Width: 648
GlyphClass: 1
Flags: HW
LayerCount: 2
Back
SplineSet
383 716 m 0,0,1
 457 716 457 716 519 694.5 c 0
 581 673 581 673 644 621 c 1,2,-1
 558 505 l 1,3,4
 517 535 517 535 479.5 548 c 0
 442 561 442 561 386 561 c 0,5,6
 224 561 224 561 224 349 c 0,7,8
 224 241 224 241 265 192 c 0
 306 143 306 143 392 143 c 0,9,10
 439 143 439 143 474 148 c 1,11,-1
 474 282 l 1,12,-1
 362 282 l 1,13,-1
 362 421 l 1,14,-1
 652 421 l 1,15,-1
 652 33 l 1,16,17
 615 20 615 20 543 6 c 0
 471 -8 471 -8 395 -8 c 0,18,19
 32 -8 32 -8 32 352 c 0,20,21
 32 534 32 534 124.5 625 c 0
 217 716 217 716 383 716 c 0,0,1
EndSplineSet
Fore
SplineSet
357 716 m 0
 445 716 521 686 585 626 c 1
 551 578 l 1
 510 613 451 653 359 653 c 0
 222 653 132 570 132 352 c 0
 132 264 139 53 362 53 c 0
 402 53 437 57 512 73 c 1
 512 326 l 1
 324 326 l 1
 324 392 l 1
 592 392 l 1
 592 30 l 1
 510 5 429 -8 349 -8 c 0
 202 -8 54 64 54 352 c 0
 54 514 105 716 357 716 c 0
EndSplineSet
EndChar

StartChar: H
Encoding: 72 72 22
Width: 611
GlyphClass: 1
Flags: HW
LayerCount: 2
Back
SplineSet
64 708 m 5,0,-1
 256 708 l 1,1,-1
 256 451 l 1,2,-1
 460 451 l 1,3,-1
 460 708 l 1,4,-1
 652 708 l 1,5,-1
 652 0 l 1,6,-1
 460 0 l 1,7,-1
 460 281 l 1,8,-1
 256 281 l 1,9,-1
 256 0 l 1,10,-1
 64 0 l 1,11,-1
 64 708 l 5,0,-1
EndSplineSet
Fore
SplineSet
78 708 m 1
 158 708 l 1
 158 414 l 1
 454 414 l 1
 454 708 l 1
 534 708 l 1
 534 0 l 1
 454 0 l 1
 454 344 l 1
 158 344 l 1
 158 0 l 1
 78 0 l 1
 78 708 l 1
EndSplineSet
EndChar

StartChar: I
Encoding: 73 73 23
Width: 232
GlyphClass: 1
Flags: HW
LayerCount: 2
Back
SplineSet
65 708 m 1,0,-1
 257 708 l 1,1,-1
 257 0 l 1,2,-1
 65 0 l 1,3,-1
 65 708 l 1,0,-1
EndSplineSet
Fore
SplineSet
76 708 m 1
 156 708 l 1
 156 0 l 1
 76 0 l 1
 76 708 l 1
EndSplineSet
EndChar

StartChar: Iacute
Encoding: 205 205 24
Width: 232
GlyphClass: 1
Flags: HW
LayerCount: 2
Back
SplineSet
70 777 m 1,0,-1
 33 856 l 1,1,-1
 254 970 l 1,2,-1
 313 854 l 1,3,-1
 70 777 l 1,0,-1
65 708 m 1,0,-1
 257 708 l 1,1,-1
 257 0 l 1,2,-1
 65 0 l 1,3,-1
 65 708 l 1,0,-1
EndSplineSet
Fore
Refer: 59 769 N 1 0 0 1 115 40 2
Refer: 23 73 N 1 0 0 1 0 0 3
EndChar

StartChar: Icircumflex
Encoding: 206 206 25
Width: 232
GlyphClass: 1
Flags: HW
LayerCount: 2
Back
SplineSet
-11 840 m 25,0,-1
 144 970 l 1,1,-1
 210 970 l 1,2,-1
 365 840 l 1,3,-1
 308 769 l 1,4,-1
 177 875 l 1,5,-1
 38 769 l 1,6,-1
 -11 840 l 25,0,-1
65 708 m 1,0,-1
 257 708 l 1,1,-1
 257 0 l 1,2,-1
 65 0 l 1,3,-1
 65 708 l 1,0,-1
EndSplineSet
Fore
Refer: 163 770 N 1 0 0 1 121 40 2
Refer: 23 73 N 1 0 0 1 0 0 3
EndChar

StartChar: Idieresis
Encoding: 207 207 26
Width: 232
GlyphClass: 1
Flags: HW
LayerCount: 2
Back
SplineSet
221 877 m 4,0,1
 221 906 221 906 241.5 926 c 0
 262 946 262 946 290 946 c 0,2,3
 318 946 318 946 338.5 926 c 0
 359 906 359 906 359 877 c 0,4,5
 359 848 359 848 338.5 828 c 0
 318 808 318 808 290 808 c 0,6,7
 262 808 262 808 241.5 828 c 0
 221 848 221 848 221 877 c 4,0,1
-5 877 m 0,8,9
 -5 906 -5 906 15.5 926 c 0
 36 946 36 946 64 946 c 0,10,11
 92 946 92 946 112.5 926 c 0
 133 906 133 906 133 877 c 0,12,13
 133 848 133 848 112.5 828 c 0
 92 808 92 808 64 808 c 0,14,15
 36 808 36 808 15.5 828 c 0
 -5 848 -5 848 -5 877 c 0,8,9
65 708 m 1,0,-1
 257 708 l 1,1,-1
 257 0 l 1,2,-1
 65 0 l 1,3,-1
 65 708 l 1,0,-1
EndSplineSet
Fore
Refer: 165 776 N 1 0 0 1 121 20 2
Refer: 23 73 N 1 0 0 1 0 0 3
EndChar

StartChar: Igrave
Encoding: 204 204 27
Width: 232
GlyphClass: 1
Flags: HW
LayerCount: 2
Back
SplineSet
276 777 m 1,0,-1
 33 854 l 1,1,-1
 92 970 l 1,2,-1
 313 856 l 1,3,-1
 276 777 l 1,0,-1
65 708 m 1,0,-1
 257 708 l 1,1,-1
 257 0 l 1,2,-1
 65 0 l 1,3,-1
 65 708 l 1,0,-1
EndSplineSet
Fore
Refer: 101 768 N 1 0 0 1 121 40 2
Refer: 23 73 N 1 0 0 1 0 0 3
EndChar

StartChar: J
Encoding: 74 74 28
Width: 393
GlyphClass: 1
Flags: HW
LayerCount: 2
Back
SplineSet
210 708 m 5,0,-1
 402 708 l 1,1,-1
 402 276 l 2,2,3
 402 135 402 135 332 63.5 c 0
 262 -8 262 -8 146 -8 c 0,4,5
 80 -8 80 -8 22 5 c 1,6,-1
 34 152 l 1,7,-1
 118 151 l 2,8,9
 210 151 210 151 210 273 c 2,10,-1
 210 708 l 5,0,-1
EndSplineSet
Fore
SplineSet
236 708 m 5
 316 708 l 1
 316 211 l 2
 316 135 293 -8 116 -8 c 0
 85 -8 56 -5 28 0 c 1
 37 56 l 1
 117 56 l 2
 196 56 236 107 236 208 c 2
 236 708 l 5
EndSplineSet
EndChar

StartChar: K
Encoding: 75 75 29
Width: 581
GlyphClass: 1
Flags: HW
LayerCount: 2
Back
SplineSet
64 708 m 1,0,-1
 256 708 l 1,1,-1
 256 459 l 1,2,-1
 280 459 l 1,3,-1
 456 708 l 1,4,-1
 687 708 l 1,5,-1
 405 360 l 1,6,-1
 689 0 l 1,7,-1
 456 0 l 1,8,-1
 280 261 l 1,9,-1
 256 261 l 1,10,-1
 256 0 l 1,11,-1
 64 0 l 1,12,-1
 64 708 l 1,0,-1
EndSplineSet
Fore
SplineSet
86 708 m 1
 166 708 l 1
 166 397 l 1
 184 397 l 1
 451 708 l 1
 557 708 l 1
 245 359 l 1
 558 0 l 1
 452 0 l 1
 184 322 l 1
 166 322 l 1
 166 0 l 1
 86 0 l 1
 86 708 l 1
EndSplineSet
EndChar

StartChar: L
Encoding: 76 76 30
Width: 518
GlyphClass: 1
Flags: HW
LayerCount: 2
Back
SplineSet
64 708 m 1,0,-1
 256 708 l 1,1,-1
 256 160 l 1,2,-1
 552 160 l 1,3,-1
 552 0 l 1,4,-1
 64 0 l 1,5,-1
 64 708 l 1,0,-1
EndSplineSet
Fore
SplineSet
78 708 m 1
 158 708 l 1
 158 64 l 1
 480 64 l 1
 480 0 l 1
 78 0 l 1
 78 708 l 1
EndSplineSet
EndChar

StartChar: M
Encoding: 77 77 31
Width: 730
GlyphClass: 1
Flags: HW
LayerCount: 2
Back
SplineSet
64 708 m 1,0,-1
 256 708 l 1,1,-1
 417 369 l 1,2,-1
 584 708 l 1,3,-1
 776 708 l 1,4,-1
 776 0 l 1,5,-1
 584 0 l 1,6,-1
 584 359 l 1,7,-1
 488 148 l 1,8,-1
 354 148 l 1,9,-1
 256 359 l 1,10,-1
 256 0 l 1,11,-1
 64 0 l 1,12,-1
 64 708 l 1,0,-1
EndSplineSet
Fore
SplineSet
80 708 m 1
 168 708 l 1
 368 258 l 1
 561 708 l 1
 650 708 l 1
 650 0 l 1
 570 0 l 1
 570 543 l 1
 414 179 l 1
 324 179 l 1
 160 545 l 1
 160 0 l 1
 80 0 l 1
 80 708 l 1
EndSplineSet
EndChar

StartChar: N
Encoding: 78 78 32
Width: 667
GlyphClass: 1
Flags: HW
LayerCount: 2
Back
SplineSet
64 708 m 5,0,-1
 256 708 l 1,1,-1
 501 332 l 1,2,-1
 501 708 l 1,3,-1
 693 708 l 1,4,-1
 693 0 l 1,5,-1
 501 0 l 1,6,-1
 256 396 l 1,7,-1
 256 0 l 1,8,-1
 64 0 l 1,9,-1
 64 708 l 5,0,-1
EndSplineSet
Fore
SplineSet
86 708 m 1
 171 708 l 1
 502 142 l 1
 502 708 l 1
 582 708 l 1
 582 0 l 1
 496 0 l 1
 166 570 l 1
 166 0 l 1
 86 0 l 1
 86 708 l 1
EndSplineSet
EndChar

StartChar: O
Encoding: 79 79 33
Width: 662
GlyphClass: 1
Flags: HW
HStem: -8 64<241.352 424.2> 652 64<240.875 425.544>
VStem: 54 80<191.017 517.301> 528 80<187.973 521.984>
LayerCount: 2
Back
SplineSet
361 716 m 0,0,1
 514 716 514 716 601 620.5 c 0
 688 525 688 525 688 357 c 0,2,3
 688 188 688 188 600 90 c 0
 512 -8 512 -8 360 -8 c 0,4,5
 208 -8 208 -8 120 90 c 0
 32 188 32 188 32 357 c 0,6,7
 32 524 32 524 119.5 620 c 0
 207 716 207 716 361 716 c 0,0,1
360 556 m 0,8,9
 294 556 294 556 259 504.5 c 0
 224 453 224 453 224 357 c 0,10,11
 224 259 224 259 260 205.5 c 0
 296 152 296 152 361 152 c 0,12,13
 426 152 426 152 461 205.5 c 0
 496 259 496 259 496 356 c 0,14,15
 496 452 496 452 461 504 c 0
 426 556 426 556 360 556 c 0,8,9
EndSplineSet
Fore
SplineSet
334 716 m 0
 419 716 608 680 608 359 c 0
 608 221 572 -8 334 -8 c 0
 245 -8 54 30 54 356 c 0
 54 461 80 716 334 716 c 0
334 652 m 4
 201 652 134 553 134 356 c 0
 134 156 201 56 334 56 c 0
 509 56 528 235 528 356 c 0
 528 481 508 652 334 652 c 4
EndSplineSet
EndChar

StartChar: Oacute
Encoding: 211 211 34
Width: 662
GlyphClass: 1
Flags: HW
LayerCount: 2
Back
SplineSet
257 778 m 1,0,-1
 220 857 l 1,1,-1
 441 971 l 1,2,-1
 500 855 l 1,3,-1
 257 778 l 1,0,-1
361 716 m 0,0,1
 514 716 514 716 601 620.5 c 0
 688 525 688 525 688 357 c 0,2,3
 688 188 688 188 600 90 c 0
 512 -8 512 -8 360 -8 c 0,4,5
 208 -8 208 -8 120 90 c 0
 32 188 32 188 32 357 c 0,6,7
 32 524 32 524 119.5 620 c 0
 207 716 207 716 361 716 c 0,0,1
360 556 m 0,8,9
 294 556 294 556 259 504.5 c 0
 224 453 224 453 224 357 c 0,10,11
 224 259 224 259 260 205.5 c 0
 296 152 296 152 361 152 c 0,12,13
 426 152 426 152 461 205.5 c 0
 496 259 496 259 496 356 c 0,14,15
 496 452 496 452 461 504 c 0
 426 556 426 556 360 556 c 0,8,9
EndSplineSet
Fore
Refer: 59 769 N 1 0 0 1 328 41 2
Refer: 33 79 N 1 0 0 1 0 0 3
EndChar

StartChar: Ocircumflex
Encoding: 212 212 35
Width: 662
GlyphClass: 1
Flags: HW
LayerCount: 2
Back
SplineSet
176 841 m 25,0,-1
 331 971 l 1,1,-1
 397 971 l 1,2,-1
 552 841 l 1,3,-1
 495 770 l 1,4,-1
 364 876 l 1,5,-1
 225 770 l 1,6,-1
 176 841 l 25,0,-1
361 716 m 0,0,1
 514 716 514 716 601 620.5 c 0
 688 525 688 525 688 357 c 0,2,3
 688 188 688 188 600 90 c 0
 512 -8 512 -8 360 -8 c 0,4,5
 208 -8 208 -8 120 90 c 0
 32 188 32 188 32 357 c 0,6,7
 32 524 32 524 119.5 620 c 0
 207 716 207 716 361 716 c 0,0,1
360 556 m 0,8,9
 294 556 294 556 259 504.5 c 0
 224 453 224 453 224 357 c 0,10,11
 224 259 224 259 260 205.5 c 0
 296 152 296 152 361 152 c 0,12,13
 426 152 426 152 461 205.5 c 0
 496 259 496 259 496 356 c 0,14,15
 496 452 496 452 461 504 c 0
 426 556 426 556 360 556 c 0,8,9
EndSplineSet
Fore
Refer: 163 770 N 1 0 0 1 334 41 2
Refer: 33 79 N 1 0 0 1 0 0 3
EndChar

StartChar: Odieresis
Encoding: 214 214 36
Width: 662
GlyphClass: 1
Flags: HW
LayerCount: 2
Back
SplineSet
408 878 m 4,0,1
 408 906 408 906 428 926.5 c 0
 448 947 448 947 477 947 c 0,2,3
 506 947 506 947 526 926.5 c 0
 546 906 546 906 546 878 c 0,4,5
 546 850 546 850 526 829.5 c 0
 506 809 506 809 477 809 c 0,6,7
 448 809 448 809 428 829.5 c 0
 408 850 408 850 408 878 c 4,0,1
182 878 m 0,8,9
 182 906 182 906 202 926.5 c 0
 222 947 222 947 251 947 c 0,10,11
 280 947 280 947 300 926.5 c 0
 320 906 320 906 320 878 c 0,12,13
 320 850 320 850 300 829.5 c 0
 280 809 280 809 251 809 c 0,14,15
 222 809 222 809 202 829.5 c 0
 182 850 182 850 182 878 c 0,8,9
361 716 m 0,0,1
 514 716 514 716 601 620.5 c 0
 688 525 688 525 688 357 c 0,2,3
 688 188 688 188 600 90 c 0
 512 -8 512 -8 360 -8 c 0,4,5
 208 -8 208 -8 120 90 c 0
 32 188 32 188 32 357 c 0,6,7
 32 524 32 524 119.5 620 c 0
 207 716 207 716 361 716 c 0,0,1
360 556 m 0,8,9
 294 556 294 556 259 504.5 c 0
 224 453 224 453 224 357 c 0,10,11
 224 259 224 259 260 205.5 c 0
 296 152 296 152 361 152 c 0,12,13
 426 152 426 152 461 205.5 c 0
 496 259 496 259 496 356 c 0,14,15
 496 452 496 452 461 504 c 0
 426 556 426 556 360 556 c 0,8,9
EndSplineSet
Fore
Refer: 165 776 N 1 0 0 1 334 21 2
Refer: 33 79 N 1 0 0 1 0 0 3
EndChar

StartChar: Ograve
Encoding: 210 210 37
Width: 662
GlyphClass: 1
Flags: HW
LayerCount: 2
Back
SplineSet
463 778 m 1,0,-1
 220 855 l 1,1,-1
 279 971 l 1,2,-1
 500 857 l 1,3,-1
 463 778 l 1,0,-1
361 716 m 0,0,1
 514 716 514 716 601 620.5 c 0
 688 525 688 525 688 357 c 0,2,3
 688 188 688 188 600 90 c 0
 512 -8 512 -8 360 -8 c 0,4,5
 208 -8 208 -8 120 90 c 0
 32 188 32 188 32 357 c 0,6,7
 32 524 32 524 119.5 620 c 0
 207 716 207 716 361 716 c 0,0,1
360 556 m 0,8,9
 294 556 294 556 259 504.5 c 0
 224 453 224 453 224 357 c 0,10,11
 224 259 224 259 260 205.5 c 0
 296 152 296 152 361 152 c 0,12,13
 426 152 426 152 461 205.5 c 0
 496 259 496 259 496 356 c 0,14,15
 496 452 496 452 461 504 c 0
 426 556 426 556 360 556 c 0,8,9
EndSplineSet
Fore
Refer: 101 768 N 1 0 0 1 334 41 2
Refer: 33 79 N 1 0 0 1 0 0 3
EndChar

StartChar: Otilde
Encoding: 213 213 38
Width: 662
GlyphClass: 1
Flags: HW
LayerCount: 2
Back
SplineSet
145 823 m 1,0,1
 155 882 155 882 189.5 919 c 0
 224 956 224 956 283 956 c 0,2,3
 317 956 317 956 344.5 939 c 0
 372 922 372 922 394 905.5 c 0
 416 889 416 889 436 889 c 0,4,5
 478 889 478 889 485 948 c 1,6,-1
 583 932 l 1,7,8
 570 862 570 862 535.5 828.5 c 0
 501 795 501 795 440 795 c 0,9,10
 407 795 407 795 381 811.5 c 0
 355 828 355 828 334.5 845 c 0
 314 862 314 862 294 862 c 0,11,12
 248 862 248 862 240 803 c 1,13,-1
 145 823 l 1,0,1
361 716 m 0,0,1
 514 716 514 716 601 620.5 c 0
 688 525 688 525 688 357 c 0,2,3
 688 188 688 188 600 90 c 0
 512 -8 512 -8 360 -8 c 0,4,5
 208 -8 208 -8 120 90 c 0
 32 188 32 188 32 357 c 0,6,7
 32 524 32 524 119.5 620 c 0
 207 716 207 716 361 716 c 0,0,1
360 556 m 0,8,9
 294 556 294 556 259 504.5 c 0
 224 453 224 453 224 357 c 0,10,11
 224 259 224 259 260 205.5 c 0
 296 152 296 152 361 152 c 0,12,13
 426 152 426 152 461 205.5 c 0
 496 259 496 259 496 356 c 0,14,15
 496 452 496 452 461 504 c 0
 426 556 426 556 360 556 c 0,8,9
EndSplineSet
Fore
Refer: 154 771 N 1 0 0 1 334 41 2
Refer: 33 79 N 1 0 0 1 0 0 3
EndChar

StartChar: P
Encoding: 80 80 39
Width: 605
GlyphClass: 1
Flags: HW
HStem: 0 21G<86 162> 260 64<162 408.743> 644 64<162 415.338>
VStem: 86 76<0 260 324 644> 472 80<389.153 585.5>
LayerCount: 2
Back
SplineSet
256 548 m 1,0,-1
 256 376 l 1,1,-1
 368 376 l 2,2,3
 456 376 456 376 456 464 c 0,4,5
 456 504 456 504 433 526 c 0
 410 548 410 548 368 548 c 2,6,-1
 256 548 l 1,0,-1
64 708 m 1,7,-1
 379 708 l 2,8,9
 503 708 503 708 575.5 642.5 c 0
 648 577 648 577 648 464 c 0,10,11
 648 345 648 345 573 280.5 c 0
 498 216 498 216 360 216 c 2,12,-1
 256 216 l 1,13,-1
 256 0 l 1,14,-1
 64 0 l 1,15,-1
 64 708 l 1,7,-1
EndSplineSet
Fore
SplineSet
162 644 m 5
 162 324 l 1
 309 324 l 2
 421 324 472 376 472 491 c 0
 472 593 424 644 327 644 c 2
 162 644 l 5
86 708 m 1
 324 708 l 2
 471 708 552 631 552 491 c 0
 552 339 469 260 309 260 c 2
 162 260 l 1
 162 0 l 1
 86 0 l 1
 86 708 l 1
EndSplineSet
EndChar

StartChar: Q
Encoding: 81 81 40
Width: 662
GlyphClass: 1
Flags: HW
HStem: -184 64<408.452 564> -167 47<476.961 564> -5 59<241.492 300 367 421.502> 652 64<238.675 421.312>
VStem: 50 80<191.504 516.606> 526 80<187.514 517.993>
LayerCount: 2
Back
SplineSet
360 556 m 0,0,1
 297 556 297 556 260.5 502.5 c 0
 224 449 224 449 224 357 c 0,2,3
 224 258 224 258 259 205.5 c 0
 294 153 294 153 360 153 c 0,4,5
 425 153 425 153 460.5 206 c 0
 496 259 496 259 496 357 c 0,6,7
 496 556 496 556 360 556 c 0,0,1
360 716 m 0,8,9
 511 716 511 716 599.5 619.5 c 0
 688 523 688 523 688 357 c 0,10,11
 688 213.330749681 688 213.330749681 619.764931896 118.41650335 c 0
 551.529863793 23.5022570182 551.529863793 23.5022570182 433.372236869 -0.00442544809533 c 1,12,13
 440.10968991 -15.3047662984 440.10968991 -15.3047662984 457.889860227 -24.6523831558 c 0
 475.670030545 -34.0000000132 475.670030545 -34.0000000132 498 -34 c 2,14,-1
 610 -34 l 1,15,-1
 624 -178 l 1,16,17
 552 -184 552 -184 484 -184 c 0,18,19
 383.668207802 -184 383.668207802 -184 325.662850356 -133.899679394 c 0
 267.65749291 -83.7993587887 267.65749291 -83.7993587887 264.206006677 5.25808483559 c 1,20,21
 155.817090995 34.7039500786 155.817090995 34.7039500786 93.9085454974 127.589695761 c 0
 32 220.475441443 32 220.475441443 32 357 c 0,22,23
 32 522 32 522 120.5 619 c 0
 209 716 209 716 360 716 c 0,8,9
EndSplineSet
Fore
SplineSet
331 652 m 4
 197 652 130 552 130 353 c 0
 130 154 197 54 331 54 c 0
 463 54 526 151 526 353 c 0
 526 555 463 652 331 652 c 4
331 716 m 0
 505 716 606 585 606 358 c 0
 606 137 524 12 367 -5 c 1
 373 -81 413 -120 483 -120 c 2
 564 -120 l 1
 569 -167 l 1
 548 -178 517 -184 475 -184 c 0
 380 -184 304 -107 298 -5 c 1
 138 11 50 139 50 355 c 0
 50 584 153 716 331 716 c 0
EndSplineSet
EndChar

StartChar: R
Encoding: 82 82 41
Width: 607
GlyphClass: 1
Flags: HW
HStem: 0 21G<80 160 466.958 565> 288 64<160 319> 644 64<160 411.615>
VStem: 80 80<0 288 352 644> 466 80<411.137 590.871>
LayerCount: 2
Back
SplineSet
256 550 m 1,0,-1
 256 373 l 1,1,-1
 367 373 l 2,2,3
 405 373 405 373 426.5 397 c 0
 448 421 448 421 448 466 c 0,4,5
 448 550 448 550 363 550 c 2,6,-1
 256 550 l 1,0,-1
64 708 m 1,7,-1
 368 708 l 2,8,9
 500 708 500 708 570 643.5 c 0
 640 579 640 579 640 470 c 0,10,11
 640 393 640 393 604.5 335 c 0
 569 277 569 277 502 246 c 1,12,-1
 672 0 l 1,13,-1
 466 0 l 1,14,-1
 325 215 l 1,15,-1
 256 215 l 1,16,-1
 256 0 l 1,17,-1
 64 0 l 1,18,-1
 64 708 l 1,7,-1
EndSplineSet
Fore
SplineSet
160 644 m 5
 160 352 l 1
 302 352 l 2
 414 352 466 400 466 503 c 0
 466 598 418 644 321 644 c 2
 160 644 l 5
80 708 m 1
 321 708 l 2
 465 708 546 634 546 502 c 0
 546 394 495 327 390 299 c 1
 565 0 l 1
 478 0 l 1
 319 288 l 1
 160 288 l 1
 160 0 l 1
 80 0 l 1
 80 708 l 1
EndSplineSet
EndChar

StartChar: S
Encoding: 83 83 42
Width: 594
GlyphClass: 1
Flags: W
HStem: -8 64<167.312 410.297> 652 64<206.936 427.382>
VStem: 68 80<452.52 599.681> 470 78<109.592 256.933>
LayerCount: 2
Back
SplineSet
325 716 m 0,0,1
 413 716 413 716 478.5 693.5 c 0
 544 671 544 671 605 620 c 1,2,-1
 525 501 l 1,3,4
 443 562 443 562 327 562 c 0,5,6
 219 562 219 562 219 496 c 0,7,8
 219 467 219 467 238 455.5 c 0
 257 444 257 444 317 433 c 2,9,-1
 378 422 l 2,10,11
 499 402 499 402 554.5 350 c 0
 610 298 610 298 610 208 c 0,12,13
 610 -8 610 -8 295 -8 c 0,14,15
 219 -8 219 -8 136.5 16.5 c 0
 54 41 54 41 16 75 c 1,16,-1
 95 203 l 1,17,18
 179 139 179 139 302 139 c 0,19,20
 422 139 422 139 422 202 c 0,21,22
 422 234 422 234 399.5 248 c 0
 377 262 377 262 310 273 c 2,23,-1
 255 283 l 2,24,25
 143 301 143 301 86.5 355 c 0
 30 409 30 409 30 505 c 0,26,27
 30 605 30 605 105.5 660.5 c 0
 181 716 181 716 325 716 c 0,0,1
EndSplineSet
Fore
SplineSet
317 716 m 4
 396 716 469 688 536 633 c 1
 502 585 l 1
 445 630 383 652 316 652 c 0
 226 652 148 624 148 529 c 0
 148 456 180 419 291 394 c 2
 375 375 l 2
 490 349 548 285 548 184 c 0
 548 155 537 -8 298 -8 c 0
 206 -8 130 5 28 77 c 1
 68 133 l 1
 148 71 225 56 302 56 c 0
 414 56 470 99 470 184 c 0
 470 262 426 296 318 319 c 2
 250 333 l 2
 129 358 68 423 68 529 c 0
 68 582 90 716 317 716 c 4
EndSplineSet
EndChar

StartChar: T
Encoding: 84 84 43
Width: 611
GlyphClass: 1
Flags: HW
LayerCount: 2
Back
SplineSet
40 708 m 1,0,-1
 631 708 l 1,1,-1
 631 548 l 1,2,-1
 433 548 l 1,3,-1
 433 0 l 1,4,-1
 241 0 l 1,5,-1
 241 548 l 1,6,-1
 40 548 l 1,7,-1
 40 708 l 1,0,-1
EndSplineSet
Fore
SplineSet
46 708 m 1
 566 708 l 1
 566 641 l 1
 345 641 l 1
 345 0 l 1
 265 0 l 1
 265 641 l 1
 46 641 l 1
 46 708 l 1
EndSplineSet
EndChar

StartChar: Thorn
Encoding: 222 222 44
Width: 557
GlyphClass: 1
Flags: HW
LayerCount: 2
Back
SplineSet
192 568 m 1,0,-1
 287 568 l 2,1,2
 380 568 380 568 440 511 c 0
 500 454 500 454 500 356 c 0,3,4
 500 267 500 267 437 209 c 0
 374 151 374 151 281 151 c 2,5,-1
 192 151 l 1,6,-1
 192 259 l 1,7,-1
 273 259 l 2,8,9
 320 259 320 259 346 284.5 c 0
 372 310 372 310 372 357 c 0,10,11
 372 406 372 406 347 433 c 0
 322 460 322 460 279 460 c 2,12,-1
 192 460 l 1,13,-1
 192 568 l 1,0,-1
64 707 m 1,14,-1
 192 707 l 1,15,-1
 192 0 l 1,16,-1
 64 0 l 1,17,-1
 64 707 l 1,14,-1
EndSplineSet
Fore
SplineSet
504 356 m 0
 504 232 406 148 282 148 c 2
 162 148 l 1
 162 0 l 1
 86 0 l 1
 86 708 l 1
 162 708 l 1
 162 570 l 1
 288 570 l 2
 402 570 504 500 504 356 c 0
426 357 m 0
 426 388 417 506 288 506 c 2
 162 506 l 1
 162 214 l 1
 282 214 l 2
 312 214 426 223 426 357 c 0
EndSplineSet
EndChar

StartChar: U
Encoding: 85 85 45
Width: 635
GlyphClass: 1
Flags: HW
LayerCount: 2
Back
SplineSet
56 708 m 1,0,-1
 248 708 l 1,1,-1
 248 299 l 2,2,3
 248 153 248 153 358 153 c 0,4,5
 468 153 468 153 468 299 c 2,6,-1
 468 708 l 1,7,-1
 660 708 l 1,8,-1
 660 281 l 2,9,10
 660 137 660 137 576.5 65 c 0
 493 -7 493 -7 357 -7 c 0,11,12
 215 -7 215 -7 135.5 64.5 c 0
 56 136 56 136 56 283 c 2,13,-1
 56 708 l 1,0,-1
EndSplineSet
Fore
SplineSet
78 708 m 5
 158 708 l 1
 158 265 l 2
 158 173 172 56 320 56 c 0
 473 56 478 196 478 265 c 2
 478 708 l 1
 558 708 l 1
 558 263 l 2
 558 162 527 -8 316 -8 c 0
 233 -8 78 24 78 265 c 2
 78 708 l 5
EndSplineSet
EndChar

StartChar: Uacute
Encoding: 218 218 46
Width: 635
GlyphClass: 1
Flags: HW
LayerCount: 2
Back
SplineSet
276 777 m 1,0,-1
 239 856 l 1,1,-1
 460 970 l 1,2,-1
 519 854 l 1,3,-1
 276 777 l 1,0,-1
56 708 m 1,0,-1
 248 708 l 1,1,-1
 248 299 l 2,2,3
 248 153 248 153 358 153 c 0,4,5
 468 153 468 153 468 299 c 2,6,-1
 468 708 l 1,7,-1
 660 708 l 1,8,-1
 660 281 l 2,9,10
 660 137 660 137 576.5 65 c 0
 493 -7 493 -7 357 -7 c 0,11,12
 215 -7 215 -7 135.5 64.5 c 0
 56 136 56 136 56 283 c 2,13,-1
 56 708 l 1,0,-1
EndSplineSet
Fore
Refer: 59 769 N 1 0 0 1 305 40 2
Refer: 45 85 N 1 0 0 1 0 0 3
EndChar

StartChar: Ucircumflex
Encoding: 219 219 47
Width: 635
GlyphClass: 1
Flags: HW
LayerCount: 2
Back
SplineSet
195 840 m 25,0,-1
 350 970 l 1,1,-1
 416 970 l 1,2,-1
 571 840 l 1,3,-1
 514 769 l 1,4,-1
 383 875 l 1,5,-1
 244 769 l 1,6,-1
 195 840 l 25,0,-1
56 708 m 1,0,-1
 248 708 l 1,1,-1
 248 299 l 2,2,3
 248 153 248 153 358 153 c 0,4,5
 468 153 468 153 468 299 c 2,6,-1
 468 708 l 1,7,-1
 660 708 l 1,8,-1
 660 281 l 2,9,10
 660 137 660 137 576.5 65 c 0
 493 -7 493 -7 357 -7 c 0,11,12
 215 -7 215 -7 135.5 64.5 c 0
 56 136 56 136 56 283 c 2,13,-1
 56 708 l 1,0,-1
EndSplineSet
Fore
Refer: 163 770 N 1 0 0 1 311 40 2
Refer: 45 85 N 1 0 0 1 0 0 3
EndChar

StartChar: Udieresis
Encoding: 220 220 48
Width: 635
GlyphClass: 1
Flags: HW
LayerCount: 2
Back
SplineSet
427 877 m 4,0,1
 427 906 427 906 447.5 926 c 0
 468 946 468 946 496 946 c 0,2,3
 524 946 524 946 544.5 926 c 0
 565 906 565 906 565 877 c 0,4,5
 565 848 565 848 544.5 828 c 0
 524 808 524 808 496 808 c 0,6,7
 468 808 468 808 447.5 828 c 0
 427 848 427 848 427 877 c 4,0,1
201 877 m 0,8,9
 201 906 201 906 221.5 926 c 0
 242 946 242 946 270 946 c 0,10,11
 298 946 298 946 318.5 926 c 0
 339 906 339 906 339 877 c 0,12,13
 339 848 339 848 318.5 828 c 0
 298 808 298 808 270 808 c 0,14,15
 242 808 242 808 221.5 828 c 0
 201 848 201 848 201 877 c 0,8,9
56 708 m 1,0,-1
 248 708 l 1,1,-1
 248 299 l 2,2,3
 248 153 248 153 358 153 c 0,4,5
 468 153 468 153 468 299 c 2,6,-1
 468 708 l 1,7,-1
 660 708 l 1,8,-1
 660 281 l 2,9,10
 660 137 660 137 576.5 65 c 0
 493 -7 493 -7 357 -7 c 0,11,12
 215 -7 215 -7 135.5 64.5 c 0
 56 136 56 136 56 283 c 2,13,-1
 56 708 l 1,0,-1
EndSplineSet
Fore
Refer: 165 776 N 1 0 0 1 311 20 2
Refer: 45 85 N 1 0 0 1 0 0 3
EndChar

StartChar: Ugrave
Encoding: 217 217 49
Width: 635
GlyphClass: 1
Flags: HW
LayerCount: 2
Back
SplineSet
482 777 m 1,0,-1
 239 854 l 1,1,-1
 298 970 l 1,2,-1
 519 856 l 1,3,-1
 482 777 l 1,0,-1
56 708 m 1,0,-1
 248 708 l 1,1,-1
 248 299 l 2,2,3
 248 153 248 153 358 153 c 0,4,5
 468 153 468 153 468 299 c 2,6,-1
 468 708 l 1,7,-1
 660 708 l 1,8,-1
 660 281 l 2,9,10
 660 137 660 137 576.5 65 c 0
 493 -7 493 -7 357 -7 c 0,11,12
 215 -7 215 -7 135.5 64.5 c 0
 56 136 56 136 56 283 c 2,13,-1
 56 708 l 1,0,-1
EndSplineSet
Fore
Refer: 101 768 N 1 0 0 1 311 40 2
Refer: 45 85 N 1 0 0 1 0 0 3
EndChar

StartChar: V
Encoding: 86 86 50
Width: 655
GlyphClass: 1
Flags: HW
LayerCount: 2
Back
SplineSet
7 708 m 1,0,-1
 200 708 l 1,1,-1
 348 245 l 1,2,-1
 497 708 l 1,3,-1
 690 708 l 1,4,-1
 451 0 l 1,5,-1
 245 0 l 1,6,-1
 7 708 l 1,0,-1
EndSplineSet
Fore
SplineSet
39 708 m 1
 125 708 l 1
 327 79 l 1
 530 708 l 1
 616 708 l 1
 376 0 l 1
 278 0 l 1
 39 708 l 1
EndSplineSet
EndChar

StartChar: W
Encoding: 87 87 51
Width: 812
GlyphClass: 1
Flags: HW
LayerCount: 2
Back
SplineSet
4 708 m 5,0,-1
 180 708 l 1,1,-1
 267 250 l 1,2,-1
 360 708 l 1,3,-1
 538 708 l 1,4,-1
 624 257 l 1,5,-1
 710 708 l 1,6,-1
 886 708 l 1,7,-1
 723 0 l 1,8,-1
 523 0 l 1,9,-1
 448 343 l 1,10,-1
 371 0 l 1,11,-1
 167 0 l 1,12,-1
 4 708 l 5,0,-1
EndSplineSet
Fore
SplineSet
29 707 m 1
 108 707 l 1
 236 113 l 1
 370 708 l 1
 450 708 l 1
 577 116 l 1
 704 708 l 1
 783 708 l 1
 619 0 l 1
 533 0 l 1
 410 560 l 1
 283 0 l 1
 193 0 l 1
 29 707 l 1
EndSplineSet
EndChar

StartChar: X
Encoding: 88 88 52
Width: 660
GlyphClass: 1
Flags: HW
LayerCount: 2
Back
SplineSet
4 708 m 1,0,-1
 206 708 l 1,1,-1
 354 465 l 1,2,-1
 503 708 l 1,3,-1
 706 708 l 1,4,-1
 471 354 l 1,5,-1
 706 0 l 1,6,-1
 503 0 l 1,7,-1
 354 244 l 1,8,-1
 206 0 l 1,9,-1
 4 0 l 1,10,-1
 229 354 l 1,11,-1
 4 708 l 1,0,-1
EndSplineSet
Fore
SplineSet
51 708 m 1
 143 708 l 1
 330 411 l 1
 516 708 l 1
 609 708 l 1
 378 354 l 1
 609 0 l 1
 516 0 l 1
 330 298 l 1
 143 0 l 1
 51 0 l 1
 282 354 l 1
 51 708 l 1
EndSplineSet
EndChar

StartChar: Y
Encoding: 89 89 53
Width: 595
GlyphClass: 1
Flags: HW
LayerCount: 2
Back
SplineSet
4 708 m 1,0,-1
 188 708 l 1,1,-1
 325 406 l 1,2,-1
 458 708 l 1,3,-1
 643 708 l 1,4,-1
 420 270 l 1,5,-1
 420 0 l 1,6,-1
 228 0 l 1,7,-1
 228 269 l 1,8,-1
 4 708 l 1,0,-1
EndSplineSet
Fore
SplineSet
20 708 m 1
 113 708 l 1
 299 342 l 1
 482 708 l 1
 575 708 l 1
 338 269 l 1
 338 0 l 1
 260 0 l 1
 260 271 l 1
 20 708 l 1
EndSplineSet
EndChar

StartChar: Yacute
Encoding: 221 221 54
Width: 595
GlyphClass: 1
Flags: HW
LayerCount: 2
Back
SplineSet
206 777 m 1,0,-1
 169 856 l 1,1,-1
 390 970 l 1,2,-1
 449 854 l 1,3,-1
 206 777 l 1,0,-1
4 708 m 1,0,-1
 188 708 l 1,1,-1
 325 406 l 1,2,-1
 458 708 l 1,3,-1
 643 708 l 1,4,-1
 420 270 l 1,5,-1
 420 0 l 1,6,-1
 228 0 l 1,7,-1
 228 269 l 1,8,-1
 4 708 l 1,0,-1
EndSplineSet
Fore
Refer: 59 769 N 1 0 0 1 290 40 2
Refer: 53 89 N 1 0 0 1 0 0 3
EndChar

StartChar: Z
Encoding: 90 90 55
Width: 603
GlyphClass: 1
Flags: HW
LayerCount: 2
Back
SplineSet
48 708 m 1,0,-1
 614 708 l 1,1,-1
 614 580 l 1,2,-1
 286 160 l 1,3,-1
 614 160 l 1,4,-1
 614 0 l 1,5,-1
 48 0 l 1,6,-1
 48 128 l 1,7,-1
 379 548 l 1,8,-1
 48 548 l 1,9,-1
 48 708 l 1,0,-1
EndSplineSet
Fore
SplineSet
62 708 m 1
 537 708 l 1
 537 644 l 1
 150 64 l 1
 542 64 l 1
 542 0 l 1
 62 0 l 1
 62 64 l 1
 449 644 l 1
 62 644 l 1
 62 708 l 1
EndSplineSet
EndChar

StartChar: a
Encoding: 97 97 56
Width: 521
GlyphClass: 1
Flags: W
HStem: -8 64<152.59 296.511 448.201 501> 245 62<156.815 368> 464 64<155.962 330.335>
VStem: 42 80<84.9826 212.664> 368 80<104.012 245 307 425.212>
AnchorPoint: "AccentCenter" 267 687 basechar 0
LayerCount: 2
Back
SplineSet
254 528 m 4,0,1
 379 528 379 528 443.5 472 c 0
 508 416 508 416 508 307 c 2,2,-1
 508 150 l 2,3,4
 508 125 508 125 518.5 113.5 c 0
 529 102 529 102 552 102 c 2,5,-1
 565 102 l 1,6,-1
 565 0 l 1,7,8
 501 -8 501 -8 463 -8 c 0,9,10
 364 -8 364 -8 326 67 c 1,11,12
 280 -8 280 -8 187 -8 c 0,13,14
 110 -8 110 -8 67 35 c 0
 24 78 24 78 24 156 c 0,15,16
 24 230 24 230 85 273 c 0
 146 316 146 316 251 316 c 2,17,-1
 326 316 l 1,18,-1
 326 333 l 2,19,20
 326 406 326 406 234 406 c 0,21,22
 200 406 200 406 163 395.5 c 0
 126 385 126 385 108 371 c 1,23,-1
 53 473 l 1,24,25
 137 528 137 528 254 528 c 4,0,1
326 205 m 5,26,-1
 262 205 l 2,27,28
 208 205 208 205 208 162 c 0,29,30
 208 117 208 117 258 117 c 0,31,32
 304 117 304 117 326 155 c 1,33,-1
 326 205 l 5,26,-1
EndSplineSet
Fore
SplineSet
258 528 m 0
 382 528 448 460 448 331 c 2
 448 83 l 2
 448 62 459 51 480 51 c 2
 501 51 l 1
 501 -2 l 1
 487 -6 472 -8 450 -8 c 0
 401 -8 374 19 368 80 c 1
 329 20 271 -8 204 -8 c 0
 98 -8 42 46 42 149 c 0
 42 249 118 307 262 307 c 2
 368 307 l 1
 368 345 l 2
 368 424 330 464 253 464 c 0
 199 464 150 446 107 411 c 1
 69 456 l 1
 134 507 189 528 258 528 c 0
368 245 m 1
 259 245 l 2
 161 245 122 214 122 148 c 0
 122 87 159 56 232 56 c 0
 285 56 343 93 368 129 c 1
 368 245 l 1
EndSplineSet
EndChar

StartChar: aacute
Encoding: 225 225 57
Width: 521
GlyphClass: 1
Flags: HW
LayerCount: 2
Back
SplineSet
169 583 m 1,0,-1
 132 662 l 1,1,-1
 353 776 l 1,2,-1
 412 660 l 1,3,-1
 169 583 l 1,0,-1
254 528 m 4,0,1
 379 528 379 528 443.5 472 c 0
 508 416 508 416 508 307 c 2,2,-1
 508 150 l 2,3,4
 508 125 508 125 518.5 113.5 c 0
 529 102 529 102 552 102 c 2,5,-1
 565 102 l 1,6,-1
 565 0 l 1,7,8
 501 -8 501 -8 463 -8 c 0,9,10
 364 -8 364 -8 326 67 c 1,11,12
 280 -8 280 -8 187 -8 c 0,13,14
 110 -8 110 -8 67 35 c 0
 24 78 24 78 24 156 c 0,15,16
 24 230 24 230 85 273 c 0
 146 316 146 316 251 316 c 2,17,-1
 326 316 l 1,18,-1
 326 333 l 2,19,20
 326 406 326 406 234 406 c 0,21,22
 200 406 200 406 163 395.5 c 0
 126 385 126 385 108 371 c 1,23,-1
 53 473 l 1,24,25
 137 528 137 528 254 528 c 4,0,1
326 205 m 5,26,-1
 262 205 l 2,27,28
 208 205 208 205 208 162 c 0,29,30
 208 117 208 117 258 117 c 0,31,32
 304 117 304 117 326 155 c 1,33,-1
 326 205 l 5,26,-1
EndSplineSet
Fore
Refer: 59 769 N 1 0 0 1 256 -153 2
Refer: 56 97 N 1 0 0 1 0 0 3
EndChar

StartChar: acircumflex
Encoding: 226 226 58
Width: 532
GlyphClass: 1
Flags: HW
LayerCount: 2
Back
SplineSet
88 646 m 25,0,-1
 243 776 l 1,1,-1
 309 776 l 1,2,-1
 464 646 l 1,3,-1
 407 575 l 1,4,-1
 276 681 l 1,5,-1
 137 575 l 1,6,-1
 88 646 l 25,0,-1
254 528 m 4,0,1
 379 528 379 528 443.5 472 c 0
 508 416 508 416 508 307 c 2,2,-1
 508 150 l 2,3,4
 508 125 508 125 518.5 113.5 c 0
 529 102 529 102 552 102 c 2,5,-1
 565 102 l 1,6,-1
 565 0 l 1,7,8
 501 -8 501 -8 463 -8 c 0,9,10
 364 -8 364 -8 326 67 c 1,11,12
 280 -8 280 -8 187 -8 c 0,13,14
 110 -8 110 -8 67 35 c 0
 24 78 24 78 24 156 c 0,15,16
 24 230 24 230 85 273 c 0
 146 316 146 316 251 316 c 2,17,-1
 326 316 l 1,18,-1
 326 333 l 2,19,20
 326 406 326 406 234 406 c 0,21,22
 200 406 200 406 163 395.5 c 0
 126 385 126 385 108 371 c 1,23,-1
 53 473 l 1,24,25
 137 528 137 528 254 528 c 4,0,1
326 205 m 5,26,-1
 262 205 l 2,27,28
 208 205 208 205 208 162 c 0,29,30
 208 117 208 117 258 117 c 0,31,32
 304 117 304 117 326 155 c 1,33,-1
 326 205 l 5,26,-1
EndSplineSet
Fore
Refer: 163 770 N 1 0 0 1 262 -153 2
Refer: 56 97 N 1 0 0 1 0 0 2
EndChar

StartChar: acutecomb
Encoding: 769 769 59
Width: 0
GlyphClass: 1
Flags: HW
AnchorPoint: "AccentCenter" -0.146484 834.021 mark 0
LayerCount: 2
Back
SplineSet
-107 737 m 1,0,-1
 -144 816 l 1,1,-1
 77 930 l 1,2,-1
 136 814 l 1,3,-1
 -107 737 l 1,0,-1
EndSplineSet
Fore
SplineSet
128 867 m 1
 -91 744 l 1
 -126 796 l 1
 81 931 l 1
 128 867 l 1
EndSplineSet
EndChar

StartChar: adieresis
Encoding: 228 228 60
Width: 521
GlyphClass: 1
Flags: HW
LayerCount: 2
Back
SplineSet
320 683 m 4,0,1
 320 712 320 712 340 732 c 0
 360 752 360 752 389 752 c 0,2,3
 418 752 418 752 438 732 c 0
 458 712 458 712 458 683 c 0,4,5
 458 654 458 654 438 634 c 0
 418 614 418 614 389 614 c 0,6,7
 360 614 360 614 340 634 c 0
 320 654 320 654 320 683 c 4,0,1
94 683 m 0,8,9
 94 712 94 712 114 732 c 0
 134 752 134 752 163 752 c 0,10,11
 192 752 192 752 212 732 c 0
 232 712 232 712 232 683 c 0,12,13
 232 654 232 654 212 634 c 0
 192 614 192 614 163 614 c 0,14,15
 134 614 134 614 114 634 c 0
 94 654 94 654 94 683 c 0,8,9
254 528 m 4,0,1
 379 528 379 528 443.5 472 c 0
 508 416 508 416 508 307 c 2,2,-1
 508 150 l 2,3,4
 508 125 508 125 518.5 113.5 c 0
 529 102 529 102 552 102 c 2,5,-1
 565 102 l 1,6,-1
 565 0 l 1,7,8
 501 -8 501 -8 463 -8 c 0,9,10
 364 -8 364 -8 326 67 c 1,11,12
 280 -8 280 -8 187 -8 c 0,13,14
 110 -8 110 -8 67 35 c 0
 24 78 24 78 24 156 c 0,15,16
 24 230 24 230 85 273 c 0
 146 316 146 316 251 316 c 2,17,-1
 326 316 l 1,18,-1
 326 333 l 2,19,20
 326 406 326 406 234 406 c 0,21,22
 200 406 200 406 163 395.5 c 0
 126 385 126 385 108 371 c 1,23,-1
 53 473 l 1,24,25
 137 528 137 528 254 528 c 4,0,1
326 205 m 5,26,-1
 262 205 l 2,27,28
 208 205 208 205 208 162 c 0,29,30
 208 117 208 117 258 117 c 0,31,32
 304 117 304 117 326 155 c 1,33,-1
 326 205 l 5,26,-1
EndSplineSet
Fore
Refer: 165 776 N 1 0 0 1 262 -173 2
Refer: 56 97 N 1 0 0 1 0 0 3
EndChar

StartChar: ae
Encoding: 230 230 61
Width: 877
GlyphClass: 1
Flags: HW
LayerCount: 2
Back
SplineSet
580 423 m 4,0,1
 528 423 528 423 500 393 c 0
 472 363 472 363 472 308 c 1,2,-1
 678 308 l 1,3,-1
 678 320 l 2,4,5
 678 368 678 368 652.5 395.5 c 0
 627 423 627 423 580 423 c 4,0,1
600 527 m 4,6,7
 689 527 689 527 747 464 c 0
 805 401 805 401 805 294 c 0,8,9
 805 245 805 245 794 218 c 1,10,-1
 472 218 l 1,11,12
 472 161 472 161 503 126.5 c 0
 534 92 534 92 590 92 c 0,13,14
 673 92 673 92 713 162 c 1,15,-1
 792 95 l 1,16,17
 720 -8 720 -8 590 -8 c 0,18,19
 483 -8 483 -8 433.5 58 c 0
 384 124 384 124 384 261 c 0,20,21
 384 398 384 398 432.5 462.5 c 0
 481 527 481 527 600 527 c 4,6,7
170 162 m 4,22,23
 170 132 170 132 189 112 c 0
 208 92 208 92 246 92 c 0,24,25
 319 92 319 92 344 149 c 1,26,-1
 344 218 l 1,27,-1
 248 218 l 2,28,29
 170 218 170 218 170 162 c 4,22,23
415 109 m 5,30,31
 397 56 397 56 347 24 c 0
 297 -8 297 -8 220 -8 c 0,32,33
 140 -8 140 -8 91 35 c 0
 42 78 42 78 42 154 c 0,34,35
 42 308 42 308 238 308 c 2,36,-1
 344 308 l 1,37,-1
 344 326 l 2,38,39
 344 370 344 370 318 396.5 c 0
 292 423 292 423 248 423 c 0,40,41
 174 423 174 423 136 376 c 1,42,-1
 62 438 l 1,43,44
 97 485 97 485 139.5 506 c 0
 182 527 182 527 244 527 c 0,45,46
 428 527 428 527 430 339 c 2,47,-1
 432 167 l 1,48,-1
 415 109 l 5,30,31
EndSplineSet
Fore
SplineSet
426 110 m 1
 400 44 319 -7 236 -7 c 0
 201 -7 54 2 54 149 c 0
 54 254 127 307 274 307 c 2
 394 307 l 1
 394 346 l 2
 394 384 380 462 262 462 c 0
 206 462 161 441 128 399 c 1
 81 438 l 1
 95 461 147 528 264 528 c 0
 348 528 405 495 435 429 c 1
 456 467 509 528 622 528 c 0
 723 528 824 458 824 307 c 0
 824 281 819 259 809 241 c 1
 472 241 l 1
 473 166 502 58 621 58 c 0
 686 58 737 82 772 131 c 1
 821 87 l 1
 747 8 691 -7 619 -7 c 0
 563 -7 477 8 426 110 c 1
240 58 m 0
 270 58 394 67 394 216 c 2
 394 241 l 1
 288 241 l 2
 162 241 132 213 132 149 c 0
 132 88 168 58 240 58 c 0
750 319 m 2
 750 359 739 463 621 463 c 0
 574 463 474 446 472 307 c 1
 750 307 l 1
 750 319 l 2
EndSplineSet
EndChar

StartChar: agrave
Encoding: 224 224 62
Width: 521
GlyphClass: 1
Flags: HW
LayerCount: 2
Back
SplineSet
375 583 m 1,0,-1
 132 660 l 1,1,-1
 191 776 l 1,2,-1
 412 662 l 1,3,-1
 375 583 l 1,0,-1
254 528 m 4,0,1
 379 528 379 528 443.5 472 c 0
 508 416 508 416 508 307 c 2,2,-1
 508 150 l 2,3,4
 508 125 508 125 518.5 113.5 c 0
 529 102 529 102 552 102 c 2,5,-1
 565 102 l 1,6,-1
 565 0 l 1,7,8
 501 -8 501 -8 463 -8 c 0,9,10
 364 -8 364 -8 326 67 c 1,11,12
 280 -8 280 -8 187 -8 c 0,13,14
 110 -8 110 -8 67 35 c 0
 24 78 24 78 24 156 c 0,15,16
 24 230 24 230 85 273 c 0
 146 316 146 316 251 316 c 2,17,-1
 326 316 l 1,18,-1
 326 333 l 2,19,20
 326 406 326 406 234 406 c 0,21,22
 200 406 200 406 163 395.5 c 0
 126 385 126 385 108 371 c 1,23,-1
 53 473 l 1,24,25
 137 528 137 528 254 528 c 4,0,1
326 205 m 5,26,-1
 262 205 l 2,27,28
 208 205 208 205 208 162 c 0,29,30
 208 117 208 117 258 117 c 0,31,32
 304 117 304 117 326 155 c 1,33,-1
 326 205 l 5,26,-1
EndSplineSet
Fore
Refer: 101 768 N 1 0 0 1 262 -153 2
Refer: 56 97 N 1 0 0 1 0 0 3
EndChar

StartChar: ampersand
Encoding: 38 38 63
Width: 632
GlyphClass: 1
Flags: HW
HStem: -8 64<166.062 342.908> 0 21G<477.582 587> 341 64<194.6 430 510 607> 656 60<198.518 392.523>
VStem: 33 83<105.723 267.996> 74 72<455.203 608.443> 430 80<115.119 341>
LayerCount: 2
Back
SplineSet
439 291 m 1,0,-1
 300 291 l 1,1,2
 271 284 271 284 252.5 262.5 c 0
 234 241 234 241 234 213 c 0,3,4
 234 175 234 175 258.5 153.5 c 0
 283 132 283 132 326 132 c 0,5,6
 395 132 395 132 439 185 c 1,7,-1
 439 291 l 1,0,-1
362 716 m 0,8,9
 509 716 509 716 620 635 c 1,10,-1
 545 520 l 1,11,12
 458 578 458 578 376 578 c 0,13,14
 324 578 324 578 297 558.5 c 0
 270 539 270 539 270 507 c 0,15,16
 270 462 270 462 322 436 c 1,17,-1
 700 436 l 1,18,19
 700 291 l 1,20,-1
 611 291 l 1,21,-1
 611 126 l 1,22,-1
 705 -7 l 1,23,-1
 512 -7 l 1,24,-1
 455 80 l 1,25,26
 422 40 422 40 366.5 16 c 0
 311 -8 311 -8 252 -8 c 0,27,28
 150 -8 150 -8 91.5 40.5 c 0
 33 89 33 89 33 185 c 0,29,30
 33 248 33 248 70.5 298 c 0
 108 348 108 348 173 374 c 1,31,32
 129 391 129 391 104 434 c 0
 79 477 79 477 79 534 c 0,33,34
 79 618 79 618 151.5 667 c 0
 224 716 224 716 362 716 c 0,8,9
EndSplineSet
Fore
SplineSet
430 341 m 5
 230 341 l 1
 163 310 116 266 116 190 c 0
 116 131 138 56 248 56 c 0
 288 56 366 66 430 136 c 1
 430 341 l 5
289 716 m 0
 381 716 436 687 504 646 c 1
 475 594 l 1
 418 632 350 656 293 656 c 0
 207 656 146 623 146 535 c 0
 146 490 158 444 224 405 c 1
 607 405 l 1
 607 341 l 1
 510 341 l 1
 510 97 l 1
 587 0 l 1
 491 0 l 1
 438 79 l 1
 380 21 312 -8 234 -8 c 0
 148 -8 33 22 33 183 c 0
 33 266 79 329 171 372 c 1
 106 415 74 472 74 542 c 0
 74 624 142 716 289 716 c 0
EndSplineSet
EndChar

StartChar: aring
Encoding: 229 229 64
Width: 521
GlyphClass: 1
Flags: HW
LayerCount: 2
Back
SplineSet
241 686 m 0,0,1
 241 668 241 668 252 657 c 0
 263 646 263 646 280 646 c 0,2,3
 297 646 297 646 308 657 c 0
 319 668 319 668 319 686 c 0,4,5
 319 704 319 704 308 715 c 0
 297 726 297 726 280 726 c 0,6,7
 263 726 263 726 252 715 c 0
 241 704 241 704 241 686 c 0,0,1
170 686 m 0,8,9
 170 733 170 733 202 764.5 c 0
 234 796 234 796 280 796 c 0,10,11
 326 796 326 796 358 764.5 c 0
 390 733 390 733 390 686 c 0,12,13
 390 639 390 639 358 607.5 c 0
 326 576 326 576 280 576 c 0,14,15
 234 576 234 576 202 607.5 c 0
 170 639 170 639 170 686 c 0,8,9
254 528 m 4,0,1
 379 528 379 528 443.5 472 c 0
 508 416 508 416 508 307 c 2,2,-1
 508 150 l 2,3,4
 508 125 508 125 518.5 113.5 c 0
 529 102 529 102 552 102 c 2,5,-1
 565 102 l 1,6,-1
 565 0 l 1,7,8
 501 -8 501 -8 463 -8 c 0,9,10
 364 -8 364 -8 326 67 c 1,11,12
 280 -8 280 -8 187 -8 c 0,13,14
 110 -8 110 -8 67 35 c 0
 24 78 24 78 24 156 c 0,15,16
 24 230 24 230 85 273 c 0
 146 316 146 316 251 316 c 2,17,-1
 326 316 l 1,18,-1
 326 333 l 2,19,20
 326 406 326 406 234 406 c 0,21,22
 200 406 200 406 163 395.5 c 0
 126 385 126 385 108 371 c 1,23,-1
 53 473 l 1,24,25
 137 528 137 528 254 528 c 4,0,1
326 205 m 5,26,-1
 262 205 l 2,27,28
 208 205 208 205 208 162 c 0,29,30
 208 117 208 117 258 117 c 0,31,32
 304 117 304 117 326 155 c 1,33,-1
 326 205 l 5,26,-1
EndSplineSet
Fore
Refer: 166 778 N 1 0 0 1 266 -153 2
Refer: 56 97 N 1 0 0 1 0 0 3
EndChar

StartChar: asciicircum
Encoding: 94 94 65
Width: 505
GlyphClass: 1
Flags: HW
LayerCount: 2
Back
SplineSet
77 716 m 25,0,-1
 208 852 l 1,1,-1
 273 852 l 1,2,-1
 404 716 l 1,3,-1
 364 667 l 1,4,-1
 241 786 l 1,5,-1
 118 667 l 1,6,-1
 77 716 l 25,0,-1
EndSplineSet
Fore
SplineSet
74 717 m 1
 207 852 l 1
 274 852 l 1
 407 717 l 1
 364 666 l 1
 241 785 l 1
 118 666 l 1
 74 717 l 1
EndSplineSet
EndChar

StartChar: asciitilde
Encoding: 126 126 66
Width: 669
GlyphClass: 1
Flags: HW
LayerCount: 2
Back
SplineSet
77 265 m 5,0,1
 79 270 79 270 82.5 278 c 0
 86 286 86 286 100 307 c 0
 114 328 114 328 131.5 344 c 0
 149 360 149 360 180.5 373 c 0
 212 386 212 386 249 386 c 0,2,3
 287 386 287 386 345.5 338.5 c 0
 404 291 404 291 439 291 c 0,4,5
 465 291 465 291 486.5 314.5 c 0
 508 338 508 338 516.5 361 c 2
 525 384 l 1,6,-1
 585 343 l 1,7,8
 583 338 583 338 579 330 c 0
 575 322 575 322 561 302 c 0
 547 282 547 282 531 266.5 c 0
 515 251 515 251 488 238 c 0
 461 225 461 225 431 225 c 0,9,10
 396 225 396 225 361 249 c 0
 326 273 326 273 295 297 c 0
 264 321 264 321 237 321 c 0,11,12
 204 321 204 321 176.5 297 c 0
 149 273 149 273 138.5 249 c 2
 128 225 l 1,13,-1
 77 265 l 5,0,1
EndSplineSet
Fore
SplineSet
588 343 m 1
 559 284 509 225 431 225 c 0
 345 225 303 316 237 316 c 0
 169 316 136 240 129 223 c 1
 74 265 l 1
 89 310 145 386 249 386 c 0
 321 386 373 296 439 296 c 0
 472 296 500 326 524 385 c 1
 588 343 l 1
EndSplineSet
EndChar

StartChar: asterisk
Encoding: 42 42 67
Width: 550
GlyphClass: 1
Flags: W
HStem: 690 20G<88.1176 155.818 370.788 438.176>
VStem: 228 70<658 806>
LayerCount: 2
Back
SplineSet
204 806 m 1,0,-1
 309 806 l 1,1,-1
 309 702 l 1,2,-1
 285 664 l 1,3,-1
 313 693 l 1,4,-1
 426 717 l 1,5,-1
 450 629 l 1,6,-1
 330 597 l 1,7,-1
 306 604 l 1,8,-1
 324 593 l 1,9,-1
 400 494 l 1,10,-1
 321 442 l 1,11,-1
 256 542 l 1,12,-1
 191 442 l 1,13,-1
 112 494 l 1,14,-1
 188 593 l 1,15,-1
 206 604 l 1,16,-1
 183 597 l 1,17,-1
 63 629 l 1,18,-1
 86 717 l 1,19,-1
 199 693 l 1,20,-1
 228 664 l 1,21,-1
 204 702 l 1,22,-1
 204 806 l 1,0,-1
EndSplineSet
Fore
SplineSet
228 806 m 1
 298 806 l 1
 298 699 l 1
 292 658 l 1
 331 677 l 1
 432 710 l 1
 453 642 l 1
 352 610 l 1
 314 604 l 1
 340 577 l 1
 400 490 l 1
 343 450 l 1
 282 536 l 1
 264 573 l 1
 245 536 l 1
 183 450 l 1
 126 490 l 1
 186 577 l 1
 212 604 l 1
 174 610 l 1
 74 642 l 1
 94 710 l 1
 196 677 l 1
 234 658 l 1
 228 699 l 1
 228 806 l 1
EndSplineSet
EndChar

StartChar: at
Encoding: 64 64 68
Width: 954
GlyphClass: 1
Flags: W
HStem: -96 69<365.1 684.693> -20 20G<687 699> 128 70<384.496 520.297> 510 70<408.99 560.344> 731 69<358.432 613.121>
VStem: 46 76<224.246 495.62> 262 78<243.464 429.88> 832 76<270.311 519.247>
LayerCount: 2
Back
SplineSet
512 824 m 0,0,-1
 719 824 719 824 850.5 702 c 0
 982 580 982 580 982 388 c 0,3,-1
 982 326 982 326 960 256.5 c 0
 938 187 938 187 907 149 c 1,6,-1
 770 116 l 1,7,-1
 613 207 l 1,8,-1
 551 116 551 116 444 116 c 0,11,-1
 360 116 360 116 303 176.5 c 0
 246 237 246 237 246 325 c 0,14,-1
 246 438 246 438 307.5 507.5 c 0
 369 577 369 577 469 577 c 0,17,-1
 541 577 541 577 584 509 c 1,20,-1
 623 569 l 1,21,-1
 730 569 l 1,22,-1
 691 303 l 1,23,-1
 797 250 l 1,24,-1
 811 269 811 269 820.5 305 c 0
 830 341 830 341 830 376 c 0,27,-1
 830 525 830 525 745.5 606 c 0
 661 687 661 687 504 687 c 0,30,-1
 366 687 366 687 270.5 589.5 c 0
 175 492 175 492 175 352 c 0,33,-1
 175 192 175 192 261 102.5 c 0
 347 13 347 13 501 13 c 0,36,-1
 569 13 569 13 638.5 25.5 c 0
 708 38 708 38 737 48 c 1,39,-1
 737 -92 l 1,40,-1
 634 -120 634 -120 497 -120 c 0,43,-1
 270 -120 270 -120 147 1.5 c 0
 24 123 24 123 24 346 c 0,46,-1
 24 558 24 558 160 691 c 0
 296 824 296 824 512 824 c 0,0,-1
491 447 m 0,49,-1
 452 447 452 447 429 414.5 c 0
 406 382 406 382 406 330 c 0,52,-1
 406 250 406 250 475 250 c 0,55,-1
 503 250 503 250 524 274 c 0
 545 298 545 298 551 337 c 2,58,-1
 562 412 l 1,59,-1
 533 447 533 447 491 447 c 0,49,-1
EndSplineSet
Fore
SplineSet
484 800 m 0
 722 800 908 638 908 384 c 0
 908 279 876 196 812 134 c 1
 744 126 l 1
 589 214 l 1
 548 157 498 128 439 128 c 0
 325 128 262 212 262 320 c 0
 262 481 372 580 489 580 c 0
 536 580 587 554 610 510 c 1
 632 570 l 1
 693 570 l 1
 651 266 l 1
 770 196 l 1
 811 254 832 318 832 388 c 0
 832 617 665 731 484 731 c 0
 303 731 122 611 122 364 c 0
 122 127 281 -27 496 -27 c 0
 576 -27 675 -10 699 0 c 1
 699 -71 l 1
 652 -81 562 -96 492 -96 c 0
 264 -96 46 45 46 364 c 0
 46 663 279 800 484 800 c 0
485 510 m 0
 381.702192997 510 340 416.756526623 340 325 c 0
 340 295 348 198 457 198 c 0
 506 198 577 222 592 358 c 2
 601 438 l 1
 581 485 536 510 485 510 c 0
EndSplineSet
EndChar

StartChar: atilde
Encoding: 227 227 69
Width: 532
GlyphClass: 1
Flags: HW
LayerCount: 2
Back
SplineSet
57 628 m 1,0,1
 67 687 67 687 101.5 724 c 0
 136 761 136 761 195 761 c 0,2,3
 222 761 222 761 245.5 750.5 c 0
 269 740 269 740 282.5 727.5 c 0
 296 715 296 715 314 704.5 c 0
 332 694 332 694 348 694 c 0,4,5
 390 694 390 694 397 753 c 1,6,-1
 495 737 l 1,7,8
 482 667 482 667 447.5 633.5 c 0
 413 600 413 600 352 600 c 0,9,10
 319 600 319 600 293 617 c 0
 267 634 267 634 246.5 650.5 c 0
 226 667 226 667 206 667 c 0,11,12
 160 667 160 667 152 608 c 1,13,-1
 57 628 l 1,0,1
254 528 m 4,0,1
 379 528 379 528 443.5 472 c 0
 508 416 508 416 508 307 c 2,2,-1
 508 150 l 2,3,4
 508 125 508 125 518.5 113.5 c 0
 529 102 529 102 552 102 c 2,5,-1
 565 102 l 1,6,-1
 565 0 l 1,7,8
 501 -8 501 -8 463 -8 c 0,9,10
 364 -8 364 -8 326 67 c 1,11,12
 280 -8 280 -8 187 -8 c 0,13,14
 110 -8 110 -8 67 35 c 0
 24 78 24 78 24 156 c 0,15,16
 24 230 24 230 85 273 c 0
 146 316 146 316 251 316 c 2,17,-1
 326 316 l 1,18,-1
 326 333 l 2,19,20
 326 406 326 406 234 406 c 0,21,22
 200 406 200 406 163 395.5 c 0
 126 385 126 385 108 371 c 1,23,-1
 53 473 l 1,24,25
 137 528 137 528 254 528 c 4,0,1
326 205 m 5,26,-1
 262 205 l 2,27,28
 208 205 208 205 208 162 c 0,29,30
 208 117 208 117 258 117 c 0,31,32
 304 117 304 117 326 155 c 1,33,-1
 326 205 l 5,26,-1
EndSplineSet
Fore
Refer: 154 771 N 1 0 0 1 262 -153 2
Refer: 56 97 N 1 0 0 1 0 0 2
EndChar

StartChar: b
Encoding: 98 98 70
Width: 600
GlyphClass: 1
Flags: HW
HStem: -8 64<238.735 394.026> 0 21G<80 144.03> 464 64<228.456 400.679> 696 20G<80 158>
VStem: 80 78<120.752 404.464 438 716> 80 61<0 47.3088> 464 80<137.754 392.498>
LayerCount: 2
Back
SplineSet
56 716 m 1,0,-1
 244 716 l 1,1,-1
 244 468 l 1,2,3
 291 528 291 528 391 528 c 0,4,5
 485 528 485 528 552.5 459 c 0
 620 390 620 390 620 262 c 0,6,7
 620 138 620 138 550.5 65 c 0
 481 -8 481 -8 382 -8 c 0,8,9
 285 -8 285 -8 235 62 c 1,10,-1
 206 0 l 1,11,-1
 56 0 l 1,12,-1
 56 716 l 1,0,-1
332 388 m 0,13,14
 274 388 274 388 244 330 c 1,15,-1
 244 182 l 1,16,17
 277 128 277 128 336 128 c 0,18,19
 375 128 375 128 401.5 160 c 0
 428 192 428 192 428 256 c 0,20,21
 428 388 428 388 332 388 c 0,13,14
EndSplineSet
Fore
SplineSet
80 716 m 1
 158 716 l 1
 158 438 l 1
 194 497 250 528 321 528 c 0
 466 528 544 437 544 269 c 0
 544 89 466 -8 321 -8 c 0
 255 -8 200 28 156 99 c 1
 141 0 l 1
 80 0 l 1
 80 716 l 1
313 464 m 4
 239 464 177 424 158 363 c 1
 158 151 l 1
 190 93 250 56 313 56 c 0
 414 56 464 126 464 267 c 0
 464 403 417 464 313 464 c 4
EndSplineSet
EndChar

StartChar: backslash
Encoding: 92 92 71
Width: 374
GlyphClass: 1
Flags: W
HStem: 752 20G<-24 63.5112>
LayerCount: 2
Back
SplineSet
474 -35 m 1,0,-1
 342 -35 l 1,1,-1
 1 768 l 1,2,-1
 133 768 l 1,3,-1
 474 -35 l 1,0,-1
EndSplineSet
Fore
SplineSet
-24 772 m 5
 55 772 l 5
 398 -34 l 5
 319 -34 l 5
 -24 772 l 5
EndSplineSet
EndChar

StartChar: bar
Encoding: 124 124 72
Width: 235
GlyphClass: 1
Flags: HW
LayerCount: 2
Back
SplineSet
77 819 m 1,0,-1
 205 819 l 1,1,-1
 205 -66 l 1,2,-1
 77 -66 l 1,3,-1
 77 819 l 1,0,-1
EndSplineSet
Fore
SplineSet
74 819 m 1
 154 819 l 1
 154 -66 l 1
 74 -66 l 1
 74 819 l 1
EndSplineSet
EndChar

StartChar: braceleft
Encoding: 123 123 73
Width: 298
GlyphClass: 1
Flags: HW
HStem: -67 67<206.668 286> 344 66<36 98.9718> 748 66<214.79 286>
LayerCount: 2
Back
SplineSet
338 819 m 1,0,-1
 338 675 l 1,1,2
 293 675 293 675 273.5 659 c 0
 254 643 254 643 254 606 c 2,3,-1
 254 514 l 2,4,5
 254 403 254 403 168 377 c 1,6,7
 254 340 254 340 254 240 c 2,8,-1
 254 149 l 2,9,10
 254 112 254 112 274 95 c 0
 294 78 294 78 338 78 c 1,11,-1
 338 -66 l 1,12,13
 224 -66 224 -66 153 -11.5 c 0
 82 43 82 43 82 133 c 2,14,-1
 82 242 l 2,15,16
 82 275 82 275 67 286 c 0
 52 297 52 297 18 297 c 1,17,-1
 18 457 l 1,18,19
 82 457 82 457 82 530 c 2,20,-1
 82 622 l 2,21,22
 82 717 82 717 152 768 c 0
 222 819 222 819 338 819 c 1,0,-1
EndSplineSet
Fore
SplineSet
286 814 m 5
 286 748 l 5
 219.479137272 748 174 690 174 630 c 13
 206 512 l 21
 206 468 188 411 130 376 c 5
 188.025390625 352.107421875 206 282 206 248 c 13
 174 116 l 21
 174 52 214 0 286 0 c 5
 286 -67 l 5
 176.694334635 -66.2011130235 94 19 94 115 c 5
 126 261 l 21
 126 307 79.720703125 344 36 344 c 5
 36 410 l 5
 83.9248046875 410 126 452 126 502 c 13
 94 631 l 5
 94 727 178 814 286 814 c 5
EndSplineSet
EndChar

StartChar: braceright
Encoding: 125 125 74
Width: 298
GlyphClass: 1
Flags: HW
LayerCount: 2
Back
SplineSet
18 819 m 5,0,1
 135 819 135 819 205.5 768 c 0
 276 717 276 717 276 622 c 2,2,-1
 276 530 l 2,3,4
 276 457 276 457 338 457 c 1,5,-1
 338 297 l 1,6,7
 304 297 304 297 290 286 c 0
 276 275 276 275 276 242 c 2,8,-1
 276 133 l 2,9,10
 276 43 276 43 204 -11.5 c 0
 132 -66 132 -66 18 -66 c 1,11,-1
 18 78 l 1,12,13
 63 78 63 78 83.5 95 c 0
 104 112 104 112 104 149 c 2,14,-1
 104 240 l 2,15,16
 104 340 104 340 190 377 c 1,17,18
 104 403 104 403 104 514 c 2,19,-1
 104 606 l 2,20,21
 104 643 104 643 83.5 659 c 0
 63 675 63 675 18 675 c 1,22,-1
 18 819 l 5,0,1
EndSplineSet
Fore
SplineSet
36 814 m 5
 144 814 228 727 228 631 c 1
 196 502 l 1
 196 452 238.075195312 410 286 410 c 1
 286 344 l 1
 242.279296875 344 196 307 196 261 c 1
 228 115 l 1
 228 19 145.305664062 -66.201171875 36 -67 c 1
 36 0 l 1
 108 0 148 52 148 116 c 1
 116 248 l 1
 116 282 133.974609375 352.107421875 192 376 c 1
 134 411 116 468 116 512 c 1
 148 630 l 1
 148 690 102.520507812 748 36 748 c 1
 36 814 l 5
EndSplineSet
EndChar

StartChar: bracketleft
Encoding: 91 91 75
Width: 326
GlyphClass: 1
Flags: W
HStem: -64 64<144 286> 752 67<144 286>
VStem: 64 222<-64 0 752 819> 64 80<0 752>
LayerCount: 2
Back
SplineSet
61 819 m 1,0,-1
 351 819 l 1,1,-1
 351 675 l 1,2,-1
 221 675 l 1,3,-1
 221 80 l 1,4,-1
 351 80 l 1,5,-1
 351 -64 l 1,6,-1
 61 -64 l 1,7,-1
 61 819 l 1,0,-1
EndSplineSet
Fore
SplineSet
64 819 m 5xe0
 286 819 l 5
 286 752 l 5xe0
 144 752 l 5
 144 0 l 5xd0
 286 0 l 5
 286 -64 l 5
 64 -64 l 5
 64 819 l 5xe0
EndSplineSet
EndChar

StartChar: bracketright
Encoding: 93 93 76
Width: 326
GlyphClass: 1
Flags: W
HStem: -64 64<40 184> 752 67<40 184>
VStem: 40 222<-64 0 752 819> 184 78<0 752>
LayerCount: 2
Back
SplineSet
31 819 m 1,0,-1
 321 819 l 1,1,-1
 321 -64 l 1,2,-1
 31 -64 l 1,3,-1
 31 80 l 1,4,-1
 161 80 l 1,5,-1
 161 675 l 1,6,-1
 31 675 l 1,7,-1
 31 819 l 1,0,-1
EndSplineSet
Fore
SplineSet
40 819 m 5xe0
 262 819 l 5
 262 -64 l 5
 40 -64 l 5
 40 0 l 5xe0
 184 0 l 5
 184 752 l 5xd0
 40 752 l 5
 40 819 l 5xe0
EndSplineSet
EndChar

StartChar: c
Encoding: 99 99 77
Width: 505
GlyphClass: 1
Flags: HW
HStem: -8 64<206.985 395.192> 464 64<207.156 390.565>
VStem: 56 80<138.824 382.364>
LayerCount: 2
Back
SplineSet
322 528 m 0,0,1
 400 528 400 528 450 511.5 c 0
 500 495 500 495 548 460 c 1,2,-1
 475 350 l 1,3,4
 420 392 420 392 347 392 c 0,5,6
 289 392 289 392 258.5 355 c 0
 228 318 228 318 228 254 c 0,7,8
 228 133 228 133 346 133 c 0,9,10
 427 133 427 133 480 184 c 1,11,-1
 560 76 l 1,12,13
 469 -8 469 -8 321 -8 c 0,14,15
 190 -8 190 -8 115 62 c 0
 40 132 40 132 40 259 c 0,16,17
 40 384 40 384 115.5 456 c 0
 191 528 191 528 322 528 c 0,0,1
EndSplineSet
Fore
SplineSet
290 528 m 4
 367 528 413 510 478 454 c 1
 443 403 l 1
 392 449 356 464 294 464 c 0
 189 464 136 396 136 260 c 0
 136 125 189 56 292 56 c 0
 362 56 402 72 446 119 c 1
 482 68 l 1
 429 15 370 -8 288 -8 c 0
 143 -8 56 93 56 260 c 0
 56 432 140 528 290 528 c 4
EndSplineSet
EndChar

StartChar: ccedilla
Encoding: 231 231 78
Width: 506
GlyphClass: 1
Flags: HW
LayerCount: 2
Back
SplineSet
213 -224 m 0,0,1
 176 -224 176 -224 149 -215 c 1,2,-1
 162 -134 l 1,3,-1
 209 -134 l 2,4,5
 237 -134 237 -134 252.5 -117.5 c 0
 268 -101 268 -101 268 -73 c 2,6,-1
 268 0 l 1,7,-1
 376 0 l 1,8,-1
 376 -64 l 2,9,10
 376 -140 376 -140 333 -182 c 0
 290 -224 290 -224 213 -224 c 0,0,1
322 528 m 0,0,1
 400 528 400 528 450 511.5 c 0
 500 495 500 495 548 460 c 1,2,-1
 475 350 l 1,3,4
 420 392 420 392 347 392 c 0,5,6
 289 392 289 392 258.5 355 c 0
 228 318 228 318 228 254 c 0,7,8
 228 133 228 133 346 133 c 0,9,10
 427 133 427 133 480 184 c 1,11,-1
 560 76 l 1,12,13
 469 -8 469 -8 321 -8 c 0,14,15
 190 -8 190 -8 115 62 c 0
 40 132 40 132 40 259 c 0,16,17
 40 384 40 384 115.5 456 c 0
 191 528 191 528 322 528 c 0,0,1
EndSplineSet
Fore
Refer: 167 807 N 1 0 0 1 282 0 2
Refer: 77 99 N 1 0 0 1 0 0 2
EndChar

StartChar: cent
Encoding: 162 162 79
Width: 505
GlyphClass: 1
Flags: HW
LayerCount: 2
Back
SplineSet
219 618 m 5,0,-1
 331 618 l 1,1,-1
 331 -94 l 1,2,-1
 219 -94 l 1,3,-1
 219 618 l 5,0,-1
282 423 m 0,4,5
 158 423 158 423 158 254 c 0,6,7
 158 96 158 96 282 96 c 0,8,9
 322 96 322 96 347 112.5 c 0
 372 129 372 129 390 171 c 1,10,-1
 488 118 l 1,11,12
 458 55 458 55 401 23.5 c 0
 344 -8 344 -8 278 -8 c 0,13,14
 162 -8 162 -8 96 62 c 0
 30 132 30 132 30 259 c 0,15,16
 30 387 30 387 99 457 c 0
 168 527 168 527 288 527 c 0,17,18
 350 527 350 527 403 495.5 c 0
 456 464 456 464 484 405 c 1,19,-1
 394 353 l 1,20,21
 359 423 359 423 282 423 c 0,4,5
EndSplineSet
Fore
SplineSet
251 618 m 5
 329 618 l 1
 329 -94 l 1
 251 -94 l 1
 251 618 l 5
EndSplineSet
Refer: 77 99 N 1 0 0 1 0 0 2
EndChar

StartChar: colon
Encoding: 58 58 80
Width: 181
GlyphClass: 1
Flags: HW
HStem: -8 126<34.319 130.643> 402 126<33.6189 131.861>
VStem: 20 126<6.72097 102.643 416.874 513.126>
LayerCount: 2
Back
SplineSet
96 454 m 4,0,1
 96 484 96 484 117.5 505.5 c 0
 139 527 139 527 169 527 c 0,2,3
 199 527 199 527 220.5 505.5 c 0
 242 484 242 484 242 454 c 0,4,5
 242 424 242 424 220.5 402.5 c 0
 199 381 199 381 169 381 c 0,6,7
 139 381 139 381 117.5 402.5 c 0
 96 424 96 424 96 454 c 4,0,1
96 65 m 0,8,9
 96 95 96 95 117.5 116.5 c 0
 139 138 139 138 169 138 c 0,10,11
 199 138 199 138 220.5 116.5 c 0
 242 95 242 95 242 65 c 0,12,13
 242 35 242 35 220.5 13.5 c 0
 199 -8 199 -8 169 -8 c 0,14,15
 139 -8 139 -8 117.5 13.5 c 0
 96 35 96 35 96 65 c 0,8,9
EndSplineSet
Fore
SplineSet
90 528 m 4
 126.819335938 528 154 501.244140625 154 465 c 0
 154 428.755859375 126.819335938 402 90 402 c 0
 54.08984375 402 28 428.510742188 28 465 c 0
 28 501.489257812 54.08984375 528 90 528 c 4
90 118 m 0
 126.086914062 118 154 90.0869140625 154 54 c 0
 154 18.5771484375 126.565429688 -8 90 -8 c 0
 53.3837890625 -8 28 17.3837890625 28 54 c 0
 28 91.3876953125 53.7802734375 118 90 118 c 0
EndSplineSet
EndChar

StartChar: comma
Encoding: 44 44 81
Width: 165
GlyphClass: 1
Flags: W
HStem: -149 227<39 86>
VStem: 39 47<-149 -115.101>
LayerCount: 2
Back
SplineSet
208 78 m 1,0,-1
 120 -144 l 1,1,-1
 24 -144 l 1,2,-1
 94 78 l 1,3,-1
 208 78 l 1,0,-1
EndSplineSet
Fore
SplineSet
38 78 m 1
 134 78 l 1
 86 -149 l 1
 39 -149 l 1
 38 78 l 1
EndSplineSet
EndChar

StartChar: currency
Encoding: 164 164 82
Width: 654
GlyphClass: 1
Flags: HW
LayerCount: 2
Back
SplineSet
499 179 m 1,0,-1
 618 60 l 1,1,-1
 552 -7 l 1,2,-1
 433 112 l 1,3,-1
 499 179 l 1,0,-1
221 112 m 1,4,-1
 102 -7 l 1,5,-1
 36 60 l 1,6,-1
 155 178 l 1,7,-1
 221 112 l 1,4,-1
155 342 m 1,8,-1
 36 461 l 1,9,-1
 102 528 l 1,10,-1
 221 409 l 1,11,-1
 155 342 l 1,8,-1
432 408 m 1,12,-1
 552 528 l 1,13,-1
 618 461 l 1,14,-1
 498 342 l 1,15,-1
 432 408 l 1,12,-1
203 259 m 0,16,17
 203 206 203 206 239 168 c 0
 275 130 275 130 327 130 c 0,18,19
 379 130 379 130 415 168.5 c 0
 451 207 451 207 451 260 c 0,20,21
 451 313 451 313 415 351 c 0
 379 389 379 389 327 389 c 0,22,23
 275 389 275 389 239 350.5 c 0
 203 312 203 312 203 259 c 0,16,17
95 260 m 0,24,25
 95 358 95 358 163 427.5 c 0
 231 497 231 497 327 497 c 0,26,27
 423 497 423 497 491 427.5 c 0
 559 358 559 358 559 260 c 0,28,29
 559 162 559 162 491 92 c 0
 423 22 423 22 327 22 c 0,30,31
 231 22 231 22 163 92 c 0
 95 162 95 162 95 260 c 0,24,25
EndSplineSet
Fore
SplineSet
182 71 m 1
 102 -8 l 1
 56 39 l 1
 137 119 l 1
 107 160 92 207 92 260 c 256
 92 313 107 361 137 402 c 1
 56 482 l 1
 102 529 l 1
 182 449 l 1
 224 483 272 500 327 500 c 256
 382 500 430 483 472 449 c 1
 552 529 l 1
 598 482 l 1
 517 402 l 1
 547 361 562 313 562 260 c 256
 562 207 547 160 517 119 c 1
 598 39 l 1
 552 -8 l 1
 472 71 l 1
 431 37 382 20 327 20 c 128
 272 20 223 37 182 71 c 1
496 260 m 128
 496 358 423 434 327 434 c 128
 231 434 158 358 158 260 c 128
 158 162 233 84 327 84 c 128
 421 84 496 162 496 260 c 128
EndSplineSet
EndChar

StartChar: d
Encoding: 100 100 83
Width: 590
GlyphClass: 1
Flags: HW
HStem: -8 64<200.484 345.598> 0 21G<445.2 510> 464 64<198.295 351.107>
VStem: 48 82<137.667 393.146> 430 80<120.067 401.908 434 724> 448 62<0 51.2>
LayerCount: 2
Back
SplineSet
400 716 m 1,0,-1
 588 716 l 1,1,-1
 588 0 l 1,2,-1
 438 0 l 1,3,-1
 410 60 l 1,4,5
 353 -8 353 -8 262 -8 c 0,6,7
 163 -8 163 -8 93.5 65 c 0
 24 138 24 138 24 262 c 0,8,9
 24 390 24 390 91.5 459 c 0
 159 528 159 528 253 528 c 0,10,11
 353 528 353 528 400 468 c 1,12,-1
 400 716 l 1,0,-1
312 388 m 4,13,14
 270 388 270 388 243 358.5 c 0
 216 329 216 329 216 265 c 0,15,16
 216 194 216 194 242 161 c 0
 268 128 268 128 308 128 c 0,17,18
 371 128 371 128 400 176 c 1,19,-1
 400 336 l 1,20,21
 373 388 373 388 312 388 c 4,13,14
EndSplineSet
Fore
SplineSet
430 724 m 5xb8
 510 724 l 1xb8
 510 0 l 1
 448 0 l 1x74
 434 100 l 1
 383 28 327 -8 264 -8 c 0
 129 -8 48 74 48 270 c 0
 48 406 95 528 264 528 c 0
 368 528 426 440 430 434 c 1
 430 724 l 5xb8
282 464 m 0
 130 464 130 319 130 267 c 0
 130 126 181 56 282 56 c 0
 339 56 390 88 430 149 c 1
 430 366 l 1
 396 432 348 464 282 464 c 0
EndSplineSet
EndChar

StartChar: dollar
Encoding: 36 36 84
Width: 594
GlyphClass: 1
Flags: W
HStem: -8 64<167.312 410.297> 652 64<206.936 427.382>
VStem: 68 80<452.52 599.681> 274 64<-139 863> 470 78<109.592 256.933>
LayerCount: 2
Back
SplineSet
261 863 m 5,0,-1
 374 863 l 1,1,-1
 374 -139 l 1,2,-1
 261 -139 l 1,3,-1
 261 863 l 5,0,-1
325 716 m 0,0,1
 413 716 413 716 478.5 693.5 c 0
 544 671 544 671 605 620 c 1,2,-1
 525 501 l 1,3,4
 443 562 443 562 327 562 c 0,5,6
 219 562 219 562 219 496 c 0,7,8
 219 467 219 467 238 455.5 c 0
 257 444 257 444 317 433 c 2,9,-1
 378 422 l 2,10,11
 499 402 499 402 554.5 350 c 0
 610 298 610 298 610 208 c 0,12,13
 610 -8 610 -8 295 -8 c 0,14,15
 219 -8 219 -8 136.5 16.5 c 0
 54 41 54 41 16 75 c 1,16,-1
 95 203 l 1,17,18
 179 139 179 139 302 139 c 0,19,20
 422 139 422 139 422 202 c 0,21,22
 422 234 422 234 399.5 248 c 0
 377 262 377 262 310 273 c 2,23,-1
 255 283 l 2,24,25
 143 301 143 301 86.5 355 c 0
 30 409 30 409 30 505 c 0,26,27
 30 605 30 605 105.5 660.5 c 0
 181 716 181 716 325 716 c 0,0,1
EndSplineSet
Fore
SplineSet
274 863 m 5
 338 863 l 1
 338 -139 l 1
 274 -139 l 1
 274 863 l 5
EndSplineSet
Refer: 42 83 N 1 0 0 1 0 0 2
EndChar

StartChar: dotlessi
Encoding: 305 305 85
Width: 313
GlyphClass: 1
Flags: W
HStem: 0 21G<132 212> 455 65<30 132>
VStem: 132 80<0 455>
AnchorPoint: "AccentCenter" 176 687 basechar 0
LayerCount: 2
Back
SplineSet
0 520 m 1,0,-1
 276 520 l 1,1,-1
 276 0 l 1,2,-1
 84 0 l 1,3,-1
 84 374 l 1,4,-1
 0 374 l 1,5,-1
 0 520 l 1,0,-1
EndSplineSet
Fore
SplineSet
30 520 m 5
 212 520 l 5
 212 0 l 1
 132 0 l 1
 132 455 l 5
 30 455 l 5
 30 520 l 5
EndSplineSet
EndChar

StartChar: e
Encoding: 101 101 86
Width: 535
GlyphClass: 1
Flags: HW
HStem: -8 64<197.802 390.522> 236 59<128 411> 464 64<189.064 355.582>
VStem: 48 80<130.416 236 295 394.563> 411 75<295.094 408.85>
AnchorPoint: "AccentCenter" 274 687 basechar 0
LayerCount: 2
Back
SplineSet
308 399 m 0,0,1
 269 399 269 399 246.5 376 c 0
 224 353 224 353 224 310 c 1,2,-1
 393 310 l 1,3,-1
 393 315 l 2,4,5
 393 356 393 356 370 377.5 c 0
 347 399 347 399 308 399 c 0,0,1
312 528 m 4,6,7
 432 528 432 528 502.5 467.5 c 0
 573 407 573 407 573 286 c 0,8,9
 573 239 573 239 562 212 c 1,10,-1
 224 212 l 1,11,12
 224 174 224 174 252.5 149 c 0
 281 124 281 124 341 124 c 0,13,14
 391 124 391 124 431.5 140 c 0
 472 156 472 156 494 173 c 1,15,-1
 561 65 l 1,16,17
 519 42 519 42 491 29.5 c 0
 463 17 463 17 411.5 4.5 c 0
 360 -8 360 -8 303 -8 c 0,18,19
 177 -8 177 -8 104.5 60.5 c 0
 32 129 32 129 32 261 c 0,20,21
 32 396 32 396 106.5 462 c 0
 181 528 181 528 312 528 c 4,6,7
EndSplineSet
Fore
SplineSet
279 528 m 0
 406 528 486 439 486 298 c 0
 486 267 484 246 480 236 c 1
 128 236 l 1
 129 117 183 56 286 56 c 0
 356 56 402 74 452 121 c 1
 487 71 l 1
 424 19 352 -8 279 -8 c 0
 134 -8 48 92 48 261 c 0
 48 436 128 528 279 528 c 0
268 464 m 260
 174 464 128 405 128 295 c 1
 411 295 l 1
 411 318 l 2
 411 413 359 464 268 464 c 260
EndSplineSet
EndChar

StartChar: eacute
Encoding: 233 233 87
Width: 535
GlyphClass: 1
Flags: HW
LayerCount: 2
Back
SplineSet
159.073242188 583 m 1,0,-1
 122.073242188 662 l 1,1,-1
 343.073242188 776 l 1,2,-1
 402.073242188 660 l 1,3,-1
 159.073242188 583 l 1,0,-1
308 399 m 0,0,1
 269 399 269 399 246.5 376 c 0
 224 353 224 353 224 310 c 1,2,-1
 393 310 l 1,3,-1
 393 315 l 2,4,5
 393 356 393 356 370 377.5 c 0
 347 399 347 399 308 399 c 0,0,1
312 528 m 0,6,7
 432 528 432 528 502.5 467.5 c 0
 573 407 573 407 573 286 c 0,8,9
 573 239 573 239 562 212 c 1,10,-1
 224 212 l 1,11,12
 224 174 224 174 252.5 149 c 0
 281 124 281 124 341 124 c 0,13,14
 391 124 391 124 431.5 140 c 0
 472 156 472 156 494 173 c 1,15,-1
 561 65 l 1,16,17
 519 42 519 42 491 29.5 c 0
 463 17 463 17 411.5 4.5 c 0
 360 -8 360 -8 303 -8 c 0,18,19
 177 -8 177 -8 104.5 60.5 c 0
 32 129 32 129 32 261 c 0,20,21
 32 396 32 396 106.5 462 c 0
 181 528 181 528 312 528 c 0,6,7
EndSplineSet
Fore
Refer: 59 769 N 1 0 0 1 279 -154 2
Refer: 86 101 N 1 0 0 1 0 0 3
EndChar

StartChar: ecircumflex
Encoding: 234 234 88
Width: 535
GlyphClass: 1
Flags: HW
LayerCount: 2
Back
SplineSet
78.0732421875 646 m 25,0,-1
 233.073242188 776 l 1,1,-1
 299.073242188 776 l 1,2,-1
 454.073242188 646 l 1,3,-1
 397.073242188 575 l 1,4,-1
 266.073242188 681 l 1,5,-1
 127.073242188 575 l 1,6,-1
 78.0732421875 646 l 25,0,-1
308 399 m 0,0,1
 269 399 269 399 246.5 376 c 0
 224 353 224 353 224 310 c 1,2,-1
 393 310 l 1,3,-1
 393 315 l 2,4,5
 393 356 393 356 370 377.5 c 0
 347 399 347 399 308 399 c 0,0,1
312 528 m 0,6,7
 432 528 432 528 502.5 467.5 c 0
 573 407 573 407 573 286 c 0,8,9
 573 239 573 239 562 212 c 1,10,-1
 224 212 l 1,11,12
 224 174 224 174 252.5 149 c 0
 281 124 281 124 341 124 c 0,13,14
 391 124 391 124 431.5 140 c 0
 472 156 472 156 494 173 c 1,15,-1
 561 65 l 1,16,17
 519 42 519 42 491 29.5 c 0
 463 17 463 17 411.5 4.5 c 0
 360 -8 360 -8 303 -8 c 0,18,19
 177 -8 177 -8 104.5 60.5 c 0
 32 129 32 129 32 261 c 0,20,21
 32 396 32 396 106.5 462 c 0
 181 528 181 528 312 528 c 0,6,7
EndSplineSet
Fore
Refer: 163 770 N 1 0 0 1 285 -154 2
Refer: 86 101 N 1 0 0 1 0 0 3
EndChar

StartChar: edieresis
Encoding: 235 235 89
Width: 535
GlyphClass: 1
Flags: HW
LayerCount: 2
Back
SplineSet
310.073242188 683 m 4,0,1
 310.073242188 711.5 310.073242188 711.5 330.323242188 731.75 c 0
 350.573242188 752 350.573242188 752 379.073242188 752 c 0,2,3
 407.573242188 752 407.573242188 752 427.823242188 731.75 c 0
 448.073242188 711.5 448.073242188 711.5 448.073242188 683 c 0,4,5
 448.073242188 654.5 448.073242188 654.5 427.823242188 634.25 c 0
 407.573242188 614 407.573242188 614 379.073242188 614 c 0,6,7
 350.573242188 614 350.573242188 614 330.323242188 634.25 c 0
 310.073242188 654.5 310.073242188 654.5 310.073242188 683 c 4,0,1
84.0732421875 683 m 0,8,9
 84.0732421875 711.5 84.0732421875 711.5 104.323242188 731.75 c 0
 124.573242188 752 124.573242188 752 153.073242188 752 c 0,10,11
 181.573242188 752 181.573242188 752 201.823242188 731.75 c 0
 222.073242188 711.5 222.073242188 711.5 222.073242188 683 c 0,12,13
 222.073242188 654.5 222.073242188 654.5 201.823242188 634.25 c 0
 181.573242188 614 181.573242188 614 153.073242188 614 c 0,14,15
 124.573242188 614 124.573242188 614 104.323242188 634.25 c 0
 84.0732421875 654.5 84.0732421875 654.5 84.0732421875 683 c 0,8,9
308 399 m 0,0,1
 269 399 269 399 246.5 376 c 0
 224 353 224 353 224 310 c 1,2,-1
 393 310 l 1,3,-1
 393 315 l 2,4,5
 393 356 393 356 370 377.5 c 0
 347 399 347 399 308 399 c 0,0,1
312 528 m 0,6,7
 432 528 432 528 502.5 467.5 c 0
 573 407 573 407 573 286 c 0,8,9
 573 239 573 239 562 212 c 1,10,-1
 224 212 l 1,11,12
 224 174 224 174 252.5 149 c 0
 281 124 281 124 341 124 c 0,13,14
 391 124 391 124 431.5 140 c 0
 472 156 472 156 494 173 c 1,15,-1
 561 65 l 1,16,17
 519 42 519 42 491 29.5 c 0
 463 17 463 17 411.5 4.5 c 0
 360 -8 360 -8 303 -8 c 0,18,19
 177 -8 177 -8 104.5 60.5 c 0
 32 129 32 129 32 261 c 0,20,21
 32 396 32 396 106.5 462 c 0
 181 528 181 528 312 528 c 0,6,7
EndSplineSet
Fore
Refer: 165 776 N 1 0 0 1 285 -174 2
Refer: 86 101 N 1 0 0 1 0 0 3
EndChar

StartChar: egrave
Encoding: 232 232 90
Width: 535
GlyphClass: 1
Flags: HW
LayerCount: 2
Back
SplineSet
365.073242188 583 m 1,0,-1
 122.073242188 660 l 1,1,-1
 181.073242188 776 l 1,2,-1
 402.073242188 662 l 1,3,-1
 365.073242188 583 l 1,0,-1
308 399 m 0,0,1
 269 399 269 399 246.5 376 c 0
 224 353 224 353 224 310 c 1,2,-1
 393 310 l 1,3,-1
 393 315 l 2,4,5
 393 356 393 356 370 377.5 c 0
 347 399 347 399 308 399 c 0,0,1
312 528 m 0,6,7
 432 528 432 528 502.5 467.5 c 0
 573 407 573 407 573 286 c 0,8,9
 573 239 573 239 562 212 c 1,10,-1
 224 212 l 1,11,12
 224 174 224 174 252.5 149 c 0
 281 124 281 124 341 124 c 0,13,14
 391 124 391 124 431.5 140 c 0
 472 156 472 156 494 173 c 1,15,-1
 561 65 l 1,16,17
 519 42 519 42 491 29.5 c 0
 463 17 463 17 411.5 4.5 c 0
 360 -8 360 -8 303 -8 c 0,18,19
 177 -8 177 -8 104.5 60.5 c 0
 32 129 32 129 32 261 c 0,20,21
 32 396 32 396 106.5 462 c 0
 181 528 181 528 312 528 c 0,6,7
EndSplineSet
Fore
Refer: 101 768 N 1 0 0 1 285 -154 2
Refer: 86 101 N 1 0 0 1 0 0 3
EndChar

StartChar: eight
Encoding: 56 56 91
Width: 550
GlyphClass: 1
Flags: HW
HStem: -7 64<182.662 368.982> 336 66<188.13 359.539> 650 66<193.698 354.858>
VStem: 46 80<111.878 275.178> 62 80<447.704 598.525> 408 80<446.825 598.109> 424 80<111.921 275.946>
LayerCount: 2
Back
SplineSet
296 716 m 0,0,1
 411 716 411 716 482 667.5 c 0
 553 619 553 619 553 524 c 0,2,3
 553 420 553 420 457 371 c 1,4,5
 571 323 571 323 571 198 c 0,6,7
 571 98 571 98 494.5 45.5 c 0
 418 -7 418 -7 296 -7 c 0,8,9
 175 -7 175 -7 99.5 45 c 0
 24 97 24 97 24 198 c 0,10,11
 24 324 24 324 136 371 c 1,12,13
 42 420 42 420 42 524 c 0,14,15
 42 620 42 620 112 668 c 0
 182 716 182 716 296 716 c 0,0,1
299 580 m 0,16,17
 260 580 260 580 239 560 c 0
 218 540 218 540 218 506 c 0,18,19
 218 434 218 434 297 434 c 0,20,21
 336 434 336 434 357.5 453 c 0
 379 472 379 472 379 506 c 0,22,23
 379 540 379 540 358 560 c 0
 337 580 337 580 299 580 c 0,16,17
297 297 m 0,24,25
 257 297 257 297 234.5 276.5 c 0
 212 256 212 256 212 219 c 0,26,27
 212 133 212 133 299 133 c 0,28,29
 335 133 335 133 359 154.5 c 0
 383 176 383 176 383 211 c 0,30,31
 383 253 383 253 359.5 275 c 0
 336 297 336 297 297 297 c 0,24,25
EndSplineSet
Fore
SplineSet
274 716 m 4
 406.955445161 716 488 641.393564003 488 519 c 4xec
 488 441.695960871 445.165038279 381.484552414 382 370 c 5
 456.330379955 352.058184149 504 284.461099986 504 197 c 4
 504 71.2650003716 415.760048601 -7 274 -7 c 4
 133.432103256 -7 46 69.228515625 46 195 c 4xf2
 46 294.717773438 86.9097676083 340.696447333 166 370 c 5
 96.744333147 381.872400032 62 431.650338868 62 519 c 4
 62 642.68772717 140.894425584 716 274 716 c 4
274 336 m 4
 183.841176464 336 126 281.676192375 126 197 c 4
 126 103.67539394 175.342559308 57 274 57 c 4
 373.82150822 57 424 103.833258995 424 197 c 4
 424 283.59043911 367.442919903 336 274 336 c 4
274 650 m 4
 189.880876613 650 142 602.481857301 142 519 c 4
 142 445.21576361 190.756246124 402 274 402 c 4
 359.176559882 402 408 444.629421595 408 519 c 4xec
 408 601.794664592 358.690725613 650 274 650 c 4
EndSplineSet
EndChar

StartChar: equal
Encoding: 61 61 92
Width: 597
GlyphClass: 1
Flags: W
HStem: 156 70<74 500> 347 71<74 500>
LayerCount: 2
Back
SplineSet
77 438 m 1,0,-1
 497 438 l 1,1,-1
 497 330 l 1,2,-1
 77 330 l 1,3,-1
 77 438 l 1,0,-1
77 228 m 1,4,-1
 497 228 l 1,5,-1
 497 120 l 1,6,-1
 77 120 l 1,7,-1
 77 228 l 1,4,-1
EndSplineSet
Fore
SplineSet
74 418 m 5
 500 418 l 1
 500 347 l 1
 74 347 l 1
 74 418 l 5
74 226 m 1
 500 226 l 1
 500 156 l 1
 74 156 l 1
 74 226 l 1
EndSplineSet
EndChar

StartChar: eth
Encoding: 240 240 93
Width: 600
GlyphClass: 1
Flags: HW
LayerCount: 2
Back
SplineSet
127 656 m 5,0,-1
 564 716 l 1,1,-1
 564 608 l 1,2,-1
 127 541 l 1,3,-1
 127 656 l 5,0,-1
216 269 m 0,4,5
 216 153 216 153 312 153 c 0,6,7
 362 153 362 153 393 182.5 c 0
 424 212 424 212 424 268 c 0,8,9
 424 310 424 310 414 351 c 1,10,11
 374 393 374 393 319 393 c 0,12,13
 273 393 273 393 244.5 359.5 c 0
 216 326 216 326 216 269 c 0,4,5
374 716 m 1,14,15
 421 686 421 686 461 645.5 c 0
 501 605 501 605 537.5 549.5 c 0
 574 494 574 494 595 419 c 0
 616 344 616 344 616 259 c 0,16,17
 616 137 616 137 536 65 c 0
 456 -7 456 -7 309 -7 c 0,18,19
 24 -7 24 -7 24 274 c 0,20,21
 24 387 24 387 82 457.5 c 0
 140 528 140 528 265 528 c 0,22,23
 340 528 340 528 397 468 c 1,24,25
 352 546 352 546 282 615 c 0
 212 684 212 684 148 716 c 1,26,-1
 374 716 l 1,14,15
EndSplineSet
Fore
SplineSet
56 275 m 0
 56 410 147 528 287 528 c 0
 342 528 389 510 426 474 c 1
 409 512 379 553 337 596 c 1
 203 543 l 1
 201 605 l 1
 291 640 l 1
 254 674 220 699 188 716 c 1
 293 716 l 1
 324 697 345 681 359 667 c 1
 466 709 l 1
 466 647 l 1
 404 623 l 1
 462 562 544 443 544 261 c 0
 544 96 439 -7 302 -7 c 0
 252 -7 56 10 56 275 c 0
303 58 m 0
 324 58 468 65 468 256 c 0
 468 323 457 375 434 412 c 1
 392 446 347 463 299 463 c 0
 272 463 132 454 132 267 c 0
 132 196 148 144 179 110 c 128
 210 76 252 58 303 58 c 0
EndSplineSet
EndChar

StartChar: exclam
Encoding: 33 33 94
Width: 255
GlyphClass: 1
Flags: W
HStem: -7 126<79.1439 174.856> 696 20G<79 179>
VStem: 64 126<6.60701 104.008> 79 100<435.345 716> 88 78<207 487.655>
LayerCount: 2
Back
SplineSet
53 716 m 1,0,-1
 243 716 l 1,1,-1
 216 244 l 1,2,-1
 74 244 l 1,3,-1
 53 716 l 1,0,-1
145 198 m 0,4,5
 187 198 187 198 217 167.5 c 0
 247 137 247 137 247 95 c 0,6,7
 247 53 247 53 217 23 c 0
 187 -7 187 -7 145 -7 c 0,8,9
 103 -7 103 -7 73 23 c 0
 43 53 43 53 43 95 c 0,10,11
 43 137 43 137 73 167.5 c 0
 103 198 103 198 145 198 c 0,4,5
EndSplineSet
Fore
SplineSet
79 716 m 1xd0
 179 716 l 1xd0
 166 207 l 1
 88 207 l 1xc8
 79 716 l 1xd0
64 55 m 0xe0
 64 86 86 119 127 119 c 0
 168 119 190 86 190 55 c 0
 190 22 167 -7 127 -7 c 0
 87 -7 64 22 64 55 c 0xe0
EndSplineSet
EndChar

StartChar: exclamdown
Encoding: 161 161 95
Width: 255
GlyphClass: 1
Flags: W
HStem: -195 20G<75.5 175.5> 402 126<79.6439 175.356>
VStem: 64.5 126<416.992 514.393> 75.5 100<-195 85.6548> 88.5 78<33.3452 314>
LayerCount: 2
Back
SplineSet
219.5 454 m 4,0,1
 219.5 424 219.5 424 198 402.5 c 0
 176.5 381 176.5 381 146.5 381 c 0,2,3
 116.5 381 116.5 381 95 402.5 c 0
 73.5 424 73.5 424 73.5 454 c 0,4,5
 73.5 484 73.5 484 95 505.5 c 0
 116.5 527 116.5 527 146.5 527 c 0,6,7
 176.5 527 176.5 527 198 505.5 c 0
 219.5 484 219.5 484 219.5 454 c 4,0,1
218.5 -196 m 5,8,-1
 74.5 -196 l 1,9,-1
 82.5 275 l 1,10,-1
 210.5 275 l 1,11,-1
 218.5 -196 l 5,8,-1
EndSplineSet
Fore
Refer: 94 33 S -1 0 -0 -1 254.5 521 2
EndChar

StartChar: f
Encoding: 102 102 96
Width: 375
GlyphClass: 1
Flags: HW
LayerCount: 2
Back
SplineSet
320 732 m 4,0,1
 394 732 394 732 436 727 c 1,2,-1
 423 601 l 1,3,-1
 372 601 l 2,4,5
 339 601 339 601 323.5 585.5 c 0
 308 570 308 570 308 534 c 2,6,-1
 308 520 l 1,7,-1
 424 520 l 1,8,-1
 424 370 l 1,9,-1
 308 370 l 1,10,-1
 308 0 l 1,11,-1
 116 0 l 1,12,-1
 116 370 l 1,13,-1
 24 370 l 1,14,-1
 24 520 l 1,15,-1
 116 520 l 1,16,-1
 116 542 l 2,17,18
 116 634 116 634 167 683 c 0
 218 732 218 732 320 732 c 4,0,1
EndSplineSet
Fore
SplineSet
278 732 m 0
 306 732 332 730 355 725 c 1
 348 669 l 1
 278 669 l 2
 234 669 212 645 212 598 c 2
 212 520 l 1
 346 520 l 1
 346 456 l 1
 212 456 l 1
 212 0 l 1
 132 0 l 1
 132 456 l 1
 32 456 l 1
 32 520 l 1
 132 520 l 1
 132 584 l 2
 132 622 144 732 278 732 c 0
EndSplineSet
EndChar

StartChar: five
Encoding: 53 53 97
Width: 550
GlyphClass: 1
Flags: W
HStem: -8 64<151.022 349.18> 384 66<212.362 360.784> 637 71<161 460>
VStem: 78 76<374 637> 86 75<374 637> 417 80<125.991 324.658>
LayerCount: 2
Back
SplineSet
41 708 m 1,0,-1
 524 708 l 1,1,-1
 524 548 l 1,2,-1
 216 548 l 1,3,-1
 213 398 l 1,4,5
 233 424 233 424 271.5 443 c 0
 310 462 310 462 357 462 c 0,6,7
 457 462 457 462 514.5 407 c 0
 572 352 572 352 572 240 c 0,8,9
 572 122 572 122 501 57 c 0
 430 -8 430 -8 280 -8 c 0,10,11
 206 -8 206 -8 151.5 9.5 c 0
 97 27 97 27 14 69 c 1,12,-1
 83 208 l 1,13,14
 164 141 164 141 262 141 c 0,15,16
 318 141 318 141 349 165.5 c 0
 380 190 380 190 380 238 c 0,17,18
 380 324 380 324 292 324 c 0,19,20
 242 324 242 324 210 276 c 1,21,-1
 39 276 l 1,22,-1
 41 708 l 1,0,-1
EndSplineSet
Fore
SplineSet
86 708 m 5xec
 460 708 l 5
 460 637 l 5
 161 637 l 5xec
 154 374 l 5
 188.792774999 424.256230554 238.586644848 450 301 450 c 4
 423.095556004 450 497 365.1607148 497 225 c 4
 497 80.5964977686 404.220834955 -8 253 -8 c 4
 174.148579103 -8 102.119046055 16.9074086243 39 66 c 5
 73 124 l 5
 133.12171545 78.6623129396 193.110190878 56 253 56 c 4
 361.003832165 56 417 112.337607883 417 221 c 4
 417 332.920186223 371.874274946 384 273 384 c 4
 229.39908371 384 189.334096908 367.306255499 153 334 c 5
 78 334 l 5xf4
 86 708 l 5xec
EndSplineSet
EndChar

StartChar: four
Encoding: 52 52 98
Width: 550
GlyphClass: 1
Flags: HW
LayerCount: 2
Back
SplineSet
280 708 m 5,0,-1
 477 708 l 1,1,-1
 219 283 l 1,2,-1
 348 283 l 1,3,-1
 348 409 l 1,4,-1
 524 474 l 1,5,-1
 524 283 l 1,6,-1
 595 283 l 1,7,-1
 595 123 l 1,8,-1
 524 123 l 1,9,-1
 524 0 l 1,10,-1
 348 0 l 1,11,-1
 348 123 l 1,12,-1
 32 123 l 1,13,-1
 32 283 l 1,14,-1
 280 708 l 5,0,-1
EndSplineSet
Fore
SplineSet
306 708 m 1
 389 708 l 1
 132 234 l 1
 333 234 l 1
 333 355 l 1
 413 395 l 1
 413 234 l 1
 514 234 l 1
 514 164 l 1
 413 164 l 1
 413 0 l 1
 333 0 l 1
 333 164 l 1
 52 164 l 1
 52 234 l 1
 306 708 l 1
EndSplineSet
EndChar

StartChar: g
Encoding: 103 103 99
Width: 558
GlyphClass: 1
Flags: HW
HStem: -192 64<156.024 399.424> 12 67<129.682 424.075> 456 64<409.096 514> 464 64<167.805 319.255>
VStem: 52 72<88.1618 164.335 289.222 418.66> 356 80<283.19 428.521> 438 80<-95.152 -2.75368>
LayerCount: 2
Back
SplineSet
260 412 m 0,0,1
 199 412 199 412 199 357 c 0,2,3
 199 305 199 305 260 305 c 0,4,5
 324 305 324 305 324 355 c 0,6,7
 324 412 324 412 260 412 c 0,0,1
259 528 m 0,8,9
 384.51979228 528 384.51979228 528 442.807064925 479.182310533 c 1,10,11
 483.475990103 520 483.475990103 520 552 520 c 2,12,-1
 584 520 l 1,13,-1
 584 379 l 1,14,-1
 492.805843932 379 l 1,15,16
 494 367.460387795 494 367.460387795 494 355 c 0,17,18
 494 279 494 279 446 239.5 c 0
 398 200 398 200 299 191 c 0,19,20
 239 185 239 185 220.5 179 c 0
 202 173 202 173 202 161 c 0,21,22
 202 140 202 140 242 140 c 2,23,-1
 419 140 l 2,24,25
 501 140 501 140 547.5 102 c 0
 594 64 594 64 594 -2 c 0,26,27
 594 -102 594 -102 523.5 -146.5 c 0
 453 -191 453 -191 300 -191 c 0,28,29
 203 -191 203 -191 118 -169 c 0
 33 -147 33 -147 -10 -125 c 1,30,-1
 39 -15 l 1,31,32
 73 -30 73 -30 144.5 -47 c 0
 216 -64 216 -64 294 -64 c 0,33,34
 368 -64 368 -64 397.5 -55 c 0
 427 -46 427 -46 427 -26 c 0,35,36
 427 -14 427 -14 417.5 -7 c 0
 408 0 408 0 393 0 c 2,37,-1
 215 0 l 2,38,39
 128 0 128 0 89.5 27.5 c 0
 51 55 51 55 51 114 c 0,40,41
 51 187 51 187 146 208 c 1,42,43
 91 223 91 223 60 262.5 c 0
 29 302 29 302 29 353 c 0,44,45
 29 528 29 528 259 528 c 0,8,9
EndSplineSet
Fore
SplineSet
246 464 m 0
 171 464 130 426 130 357 c 0
 130 282 166 248 246 248 c 0
 319 248 356 284 356 357 c 0
 356 424 315 464 246 464 c 0
242 528 m 0
 301 528 348 512 383 482 c 1
 399 505 430 520 462 520 c 2
 514 520 l 1
 514 456 l 1
 408 456 l 1
 427 430 436 398 436 361 c 0
 436 256 376 201 248 190 c 0
 158 183 124 164 124 119 c 0
 124 92 150 79 203 79 c 2
 347 79 l 2
 458 79 518 36 518 -44 c 0
 518 -135 422 -192 269 -192 c 0
 177 -192 104 -168 16 -109 c 1
 58 -53 l 1
 131 -103 202 -128 271 -128 c 0
 382 -128 438 -101 438 -48 c 0
 438 -9 409 12 356 12 c 2
 205 12 l 2
 108 12 52 51 52 118 c 0
 52 159 80 190 135 210 c 1
 81 240 52 293 52 361 c 0
 52 463 126 528 242 528 c 0
EndSplineSet
EndChar

StartChar: grave
Encoding: 96 96 100
Width: 284
GlyphClass: 1
Flags: HW
LayerCount: 2
Back
SplineSet
174 768 m 1,0,-1
 299 527 l 1,1,-1
 188 527 l 1,2,-1
 32 768 l 1,3,-1
 174 768 l 1,0,-1
EndSplineSet
Fore
SplineSet
187 528 m 1
 25 772 l 1
 124 772 l 1
 253 528 l 1
 187 528 l 1
EndSplineSet
EndChar

StartChar: gravecomb
Encoding: 768 768 101
Width: 0
GlyphClass: 1
Flags: HW
AnchorPoint: "AccentCenter" -0.146484 834.021 mark 0
LayerCount: 2
Back
SplineSet
99 737 m 1,0,-1
 -144 814 l 1,1,-1
 -85 930 l 1,2,-1
 136 816 l 1,3,-1
 99 737 l 1,0,-1
EndSplineSet
Fore
SplineSet
-81 931 m 1
 128 796 l 1
 91 744 l 1
 -127 867 l 1
 -81 931 l 1
EndSplineSet
EndChar

StartChar: greater
Encoding: 62 62 102
Width: 529
GlyphClass: 1
Flags: HW
LayerCount: 2
Back
SplineSet
500 328 m 1,0,-1
 500 229 l 1,1,-1
 56 413 l 1,2,-1
 84 504 l 1,3,-1
 500 328 l 1,0,-1
500 328 m 1,4,-1
 500 229 l 1,5,-1
 84 53 l 1,6,-1
 56 144 l 1,7,-1
 500 328 l 1,4,-1
EndSplineSet
Fore
SplineSet
62 505 m 1
 481 330 l 1
 481 227 l 1
 62 52 l 1
 32 119 l 1
 421 279 l 1
 32 438 l 1
 62 505 l 1
EndSplineSet
EndChar

StartChar: h
Encoding: 104 104 103
Width: 550
GlyphClass: 1
Flags: HW
HStem: 0 21G<64 144 406 486> 464 64<222.486 364.012> 687 20G<64 144>
VStem: 64 80<0 398.504 443 707> 406 80<0 418.073>
LayerCount: 2
Back
SplineSet
57 708 m 1,0,-1
 249 708 l 1,1,-1
 249 448 l 1,2,3
 290 528 290 528 402 528 c 0,4,5
 488 528 488 528 534.5 472.5 c 0
 581 417 581 417 581 318 c 2,6,-1
 581 0 l 1,7,-1
 389 0 l 1,8,-1
 389 304 l 2,9,10
 389 335 389 335 372 352.5 c 0
 355 370 355 370 326 370 c 0,11,12
 272 370 272 370 249 328 c 1,13,-1
 249 0 l 1,14,-1
 57 0 l 1,15,-1
 57 708 l 1,0,-1
EndSplineSet
Fore
SplineSet
64 707 m 5
 144 707 l 1
 144 443 l 1
 195 500 249 528 307 528 c 0
 425 528 486 459 486 325 c 2
 486 0 l 1
 406 0 l 1
 406 323 l 2
 406 420 369 464 287 464 c 0
 236 464 189 433 144 372 c 1
 144 0 l 1
 64 0 l 1
 64 707 l 5
EndSplineSet
EndChar

StartChar: hyphen
Encoding: 45 45 104
Width: 432
GlyphClass: 1
Flags: HW
LayerCount: 2
Back
SplineSet
77 323 m 5,0,-1
 414 323 l 1,1,-1
 414 215 l 1,2,-1
 77 215 l 1,3,-1
 77 323 l 5,0,-1
EndSplineSet
Fore
SplineSet
64 307 m 5
 368 307 l 1
 368 227 l 1
 64 227 l 1
 64 307 l 5
EndSplineSet
EndChar

StartChar: i
Encoding: 105 105 105
Width: 292
GlyphClass: 1
Flags: HW
LayerCount: 2
Back
SplineSet
193 743 m 0,0,1
 233 743 233 743 261.5 714.5 c 0
 290 686 290 686 290 646 c 0,2,3
 290 606 290 606 261.5 577.5 c 0
 233 549 233 549 193 549 c 0,4,5
 153 549 153 549 124.5 577.5 c 0
 96 606 96 606 96 646 c 0,6,7
 96 686 96 686 124.5 714.5 c 0
 153 743 153 743 193 743 c 0,0,1
10 520 m 1,8,-1
 286 520 l 1,9,-1
 286 0 l 1,10,-1
 94 0 l 1,11,-1
 94 374 l 1,12,-1
 10 374 l 1,13,-1
 10 520 l 1,8,-1
EndSplineSet
Fore
SplineSet
30 520 m 1
 212 520 l 1
 212 0 l 1
 132 0 l 1
 132 456 l 1
 30 456 l 1
 30 520 l 1
173 739 m 132
 205 739 228 713 228 684 c 128
 228 655 205 629 173 629 c 128
 141 629 118 655 118 684 c 128
 118 713 141 739 173 739 c 132
EndSplineSet
EndChar

StartChar: iacute
Encoding: 237 237 106
Width: 313
GlyphClass: 1
Flags: HW
LayerCount: 2
Back
SplineSet
54 583 m 1,0,-1
 17 662 l 1,1,-1
 238 776 l 1,2,-1
 297 660 l 1,3,-1
 54 583 l 1,0,-1
0 520 m 1,0,-1
 276 520 l 1,1,-1
 276 0 l 1,2,-1
 84 0 l 1,3,-1
 84 374 l 1,4,-1
 0 374 l 1,5,-1
 0 520 l 1,0,-1
EndSplineSet
Fore
Refer: 59 769 N 1 0 0 1 151 -146 2
Refer: 85 305 N 1 0 0 1 0 0 3
EndChar

StartChar: icircumflex
Encoding: 238 238 107
Width: 313
GlyphClass: 1
Flags: HW
LayerCount: 2
Back
SplineSet
-27 646 m 25,0,-1
 128 776 l 1,1,-1
 194 776 l 1,2,-1
 349 646 l 1,3,-1
 292 575 l 1,4,-1
 161 681 l 1,5,-1
 22 575 l 1,6,-1
 -27 646 l 25,0,-1
0 520 m 1,0,-1
 276 520 l 1,1,-1
 276 0 l 1,2,-1
 84 0 l 1,3,-1
 84 374 l 1,4,-1
 0 374 l 1,5,-1
 0 520 l 1,0,-1
EndSplineSet
Fore
Refer: 163 770 N 1 0 0 1 157 -146 2
Refer: 85 305 N 1 0 0 1 0 0 3
EndChar

StartChar: idieresis
Encoding: 239 239 108
Width: 313
GlyphClass: 1
Flags: HW
LayerCount: 2
Back
SplineSet
205 683 m 4,0,1
 205 712 205 712 225.5 732 c 0
 246 752 246 752 274 752 c 0,2,3
 302 752 302 752 322.5 732 c 0
 343 712 343 712 343 683 c 0,4,5
 343 654 343 654 322.5 634 c 0
 302 614 302 614 274 614 c 0,6,7
 246 614 246 614 225.5 634 c 0
 205 654 205 654 205 683 c 4,0,1
-21 683 m 0,8,9
 -21 712 -21 712 -0.5 732 c 0
 20 752 20 752 48 752 c 0,10,11
 76 752 76 752 96.5 732 c 0
 117 712 117 712 117 683 c 0,12,13
 117 654 117 654 96.5 634 c 0
 76 614 76 614 48 614 c 0,14,15
 20 614 20 614 -0.5 634 c 0
 -21 654 -21 654 -21 683 c 0,8,9
0 520 m 1,0,-1
 276 520 l 1,1,-1
 276 0 l 1,2,-1
 84 0 l 1,3,-1
 84 374 l 1,4,-1
 0 374 l 1,5,-1
 0 520 l 1,0,-1
EndSplineSet
Fore
Refer: 165 776 N 1 0 0 1 157 -166 2
Refer: 85 305 N 1 0 0 1 0 0 3
EndChar

StartChar: igrave
Encoding: 236 236 109
Width: 313
GlyphClass: 1
Flags: HW
LayerCount: 2
Back
SplineSet
260 583 m 1,0,-1
 17 660 l 1,1,-1
 76 776 l 1,2,-1
 297 662 l 1,3,-1
 260 583 l 1,0,-1
0 520 m 1,0,-1
 276 520 l 1,1,-1
 276 0 l 1,2,-1
 84 0 l 1,3,-1
 84 374 l 1,4,-1
 0 374 l 1,5,-1
 0 520 l 1,0,-1
EndSplineSet
Fore
Refer: 101 768 N 1 0 0 1 157 -146 2
Refer: 85 305 N 1 0 0 1 0 0 3
EndChar

StartChar: j
Encoding: 106 106 110
Width: 274
GlyphClass: 1
Flags: HW
LayerCount: 2
Back
SplineSet
60 520 m 1,0,-1
 252 520 l 1,1,-1
 252 22 l 2,2,3
 252 -91 252 -91 200.5 -141 c 0
 149 -191 149 -191 11 -191 c 2,4,-1
 -10 -191 l 1,5,-1
 -10 -34 l 1,6,-1
 11 -34 l 2,7,8
 38 -34 38 -34 49 -22.5 c 0
 60 -11 60 -11 60 16 c 2,9,-1
 60 520 l 1,0,-1
155 747 m 0,10,11
 195 747 195 747 223.5 719 c 0
 252 691 252 691 252 651 c 0,12,13
 252 611 252 611 223.5 582.5 c 0
 195 554 195 554 155 554 c 0,14,15
 115 554 115 554 86.5 582.5 c 0
 58 611 58 611 58 651 c 0,16,17
 58 691 58 691 86.5 719 c 0
 115 747 115 747 155 747 c 0,10,11
EndSplineSet
Fore
SplineSet
97 520 m 5
 177 520 l 1
 177 -34 l 2
 177 -58 170 -192 9 -192 c 2
 0 -192 l 1
 0 -128 l 1
 9 -128 l 2
 38 -128 97 -118 97 -34 c 2
 97 520 l 5
84 684 m 128
 84 716 109 739 138 739 c 0
 170 739 194 713 194 684 c 128
 194 655 170 629 138 629 c 0
 109 629 84 652 84 684 c 128
EndSplineSet
EndChar

StartChar: k
Encoding: 107 107 111
Width: 523
GlyphClass: 1
Flags: HW
LayerCount: 2
Back
SplineSet
64 708 m 1,0,-1
 256 708 l 1,1,-1
 256 360 l 1,2,-1
 297 360 l 1,3,-1
 406 519 l 1,4,-1
 610 519 l 1,5,-1
 436 275 l 1,6,-1
 624 0 l 1,7,-1
 418 0 l 1,8,-1
 297 185 l 1,9,-1
 256 185 l 1,10,-1
 256 0 l 1,11,-1
 64 0 l 1,12,-1
 64 708 l 1,0,-1
EndSplineSet
Fore
SplineSet
80 708 m 1
 160 708 l 1
 160 309 l 1
 195 309 l 1
 388 520 l 1
 496 520 l 1
 262 275 l 1
 499 0 l 1
 392 0 l 1
 190 245 l 1
 160 245 l 1
 160 0 l 1
 80 0 l 1
 80 708 l 1
EndSplineSet
EndChar

StartChar: l
Encoding: 108 108 112
Width: 255
GlyphClass: 1
Flags: HW
LayerCount: 2
Back
SplineSet
56 772 m 1,0,-1
 248 772 l 1,1,-1
 248 196 l 2,2,3
 248 153 248 153 291 153 c 0,4,5
 292 153 292 153 296 153.5 c 0
 300 154 300 154 302 154 c 2,6,-1
 335 158 l 1,7,-1
 348 1 l 1,8,9
 292 -8 292 -8 241 -8 c 0,10,11
 159 -8 159 -8 107.5 37.5 c 0
 56 83 56 83 56 159 c 2,12,-1
 56 772 l 1,0,-1
EndSplineSet
Fore
SplineSet
72 772 m 1
 152 772 l 1
 152 92 l 2
 152 67 160 55 178 55 c 1
 180 55 197 57 203 58 c 0
 238 63 l 1
 246 6 l 1
 218 -3 190 -8 163 -8 c 0
 105 -8 72 26 72 87 c 2
 72 772 l 1
EndSplineSet
EndChar

StartChar: less
Encoding: 60 60 113
Width: 529
GlyphClass: 1
Flags: HW
LayerCount: 2
Back
SplineSet
48 328 m 1,0,-1
 464 504 l 1,1,-1
 492 413 l 1,2,-1
 48 229 l 1,3,-1
 48 328 l 1,0,-1
48 328 m 5,4,-1
 492 144 l 1,5,-1
 464 53 l 1,6,-1
 48 229 l 1,7,-1
 48 328 l 5,4,-1
EndSplineSet
Fore
SplineSet
48 330 m 1
 467 505 l 5
 497 438 l 1
 108 279 l 1
 497 119 l 1
 467 52 l 1
 48 227 l 1
 48 330 l 1
EndSplineSet
EndChar

StartChar: m
Encoding: 109 109 114
Width: 836
GlyphClass: 1
Flags: HW
LayerCount: 2
Back
SplineSet
64 520 m 1,0,-1
 192 520 l 1,1,-1
 256 448 l 1,2,3
 301 528 301 528 390 528 c 0,4,5
 437 528 437 528 476 507 c 0
 515 486 515 486 532 445 c 1,6,7
 558 490 558 490 592 509 c 0
 626 528 626 528 688 528 c 0,8,9
 769 528 769 528 819.5 475 c 0
 870 422 870 422 870 317 c 2,10,-1
 870 0 l 1,11,-1
 678 0 l 1,12,-1
 678 307 l 2,13,14
 678 384 678 384 617 384 c 0,15,16
 580 384 580 384 563 358 c 1,17,-1
 563 0 l 1,18,-1
 371 0 l 1,19,-1
 371 314 l 2,20,21
 371 384 371 384 312 384 c 0,22,23
 288 384 288 384 256 357 c 1,24,-1
 256 0 l 1,25,-1
 64 0 l 1,26,-1
 64 520 l 1,0,-1
EndSplineSet
Fore
SplineSet
80 520 m 5
 143 520 l 5
 160 444 l 5
 205 500 257 528 316 528 c 4
 385 528 431 499 451 442 c 5
 485 499 534 528 596 528 c 4
 698 528 756 465 756 353 c 6
 756 0 l 5
 676 0 l 5
 676 352 l 6
 676 430 646 464 577 464 c 4
 531 464 489 440 453 392 c 5
 453 0 l 5
 373 0 l 5
 373 368 l 6
 373 434 344 464 282 464 c 4
 231 464 188 439 160 393 c 5
 160 0 l 5
 80 0 l 5
 80 520 l 5
EndSplineSet
EndChar

StartChar: mu
Encoding: 181 181 115
Width: 592
GlyphClass: 1
Flags: W
HStem: -191 21G<86 164> -8 64<212.723 373.401 511.583 563.704> 0 57<514.85 564> 499 20G<86 164 430 508>
VStem: 86 78<-191 55.1584 98.1875 519> 430 78<118.144 519>
LayerCount: 2
Back
SplineSet
515 108 m 1,0,-1
 580 108 l 1,1,-1
 580 0 l 1,2,-1
 515 0 l 1,3,-1
 515 108 l 1,0,-1
397 307 m 1,4,-1
 525 307 l 1,5,-1
 525 0 l 1,6,-1
 440 0 l 1,7,-1
 397 97 l 1,8,-1
 397 307 l 1,4,-1
169 140 m 1,9,-1
 176 221 l 1,10,11
 176 160 176 160 200.5 128 c 128
 225 96 225 96 286 96 c 0,12,13
 336 96 336 96 366.5 133 c 128
 397 170 397 170 397 222 c 2,14,-1
 397 519 l 1,15,-1
 525 519 l 1,16,-1
 525 273 l 1,17,-1
 411 129 l 1,18,19
 411 63 411 63 375.5 27.5 c 128
 340 -8 340 -8 283 -8 c 0,20,21
 250 -8 250 -8 226.5 5.5 c 128
 203 19 203 19 191 42.5 c 128
 179 66 179 66 174 89.5 c 128
 169 113 169 113 169 140 c 1,9,-1
56 -192 m 1,22,-1
 56 519 l 1,23,-1
 184 519 l 1,24,-1
 184 -192 l 1,25,-1
 56 -192 l 1,22,-1
EndSplineSet
Fore
SplineSet
86 519 m 1xdc
 164 519 l 1
 164 128 l 1
 172 112 208 56 300 56 c 0xdc
 367 56 430 99 430 220 c 2
 430 519 l 1
 508 519 l 1
 508 102 l 1
 508 68 521 57 547 57 c 1
 564 57 l 1
 564 0 l 1xbc
 558 -2 532 -8 514 -8 c 1
 462 -8 438 23 433 70 c 1
 408 24 362 -8 298 -8 c 0
 239 -8 193 5 153 56 c 1
 161 38 164 23 164 4 c 1
 164 -191 l 1
 86 -191 l 1
 86 519 l 1xdc
EndSplineSet
EndChar

StartChar: n
Encoding: 110 110 116
Width: 570
GlyphClass: 1
Flags: HW
HStem: 0 21G<80 160 410 490> 462 66<235.388 373.969> 500 20G<80 145.634>
VStem: 80 80<0 409.848> 80 61<489.064 520> 410 80<0 424.924>
LayerCount: 2
Back
SplineSet
64 520 m 1,0,-1
 213 520 l 1,1,-1
 256 443 l 1,2,3
 298 528 298 528 409 528 c 0,4,5
 495 528 495 528 541.5 472.5 c 0
 588 417 588 417 588 318 c 2,6,-1
 588 0 l 1,7,-1
 396 0 l 1,8,-1
 396 304 l 2,9,10
 396 379 396 379 333 379 c 0,11,12
 309 379 309 379 286.5 364 c 0
 264 349 264 349 256 328 c 1,13,-1
 256 0 l 1,14,-1
 64 0 l 1,15,-1
 64 520 l 1,0,-1
EndSplineSet
Fore
SplineSet
80 520 m 5
 141 520 l 1xac
 160 438 l 1
 205 498 258 528 317 528 c 0
 425 528 490 456 490 336 c 2
 490 0 l 1
 410 0 l 1
 410 334 l 2xd4
 410 422 377 462 302 462 c 0
 245 462 198 436 160 383 c 1
 160 0 l 1
 80 0 l 1xd4
 80 520 l 5
EndSplineSet
EndChar

StartChar: nine
Encoding: 57 57 117
Width: 550
GlyphClass: 1
Flags: HW
HStem: -8 64<131.04 339.52> 259 66<188.381 358.639> 652 64<198.385 364.836>
VStem: 48 80<385.369 578.742> 432 80<199.873 570.505>
LayerCount: 2
Back
SplineSet
296 556 m 0,0,1
 259 556 259 556 237.5 535 c 0
 216 514 216 514 216 472 c 0,2,3
 216 432 216 432 238.5 412 c 0
 261 392 261 392 297 392 c 0,4,5
 333 392 333 392 356 412.5 c 0
 379 433 379 433 379 473 c 0,6,7
 379 514 379 514 357.5 535 c 0
 336 556 336 556 296 556 c 0,0,1
297 716 m 0,8,9
 426 716 426 716 498.5 633 c 0
 571 550 571 550 571 381 c 0,10,11
 571 182 571 182 491.5 87 c 0
 412 -8 412 -8 269 -8 c 0,12,13
 145 -8 145 -8 28 62 c 1,14,-1
 91 197 l 1,15,16
 153 145 153 145 249 145 c 0,17,18
 321 145 321 145 351.5 189.5 c 0
 382 234 382 234 382 336 c 1,19,20
 373 302 373 302 333.5 277 c 0
 294 252 294 252 244 252 c 0,21,22
 24 252 24 252 24 480 c 0,23,24
 24 590 24 590 100.5 653 c 0
 177 716 177 716 297 716 c 0,8,9
EndSplineSet
Fore
SplineSet
281 716 m 0
 435.127933547 716 512 615.833367955 512 415 c 0
 512 125.481733889 429.007810844 -8 249 -8 c 0
 176.176616232 -8 109.38510644 11.131236473 50 49 c 1
 74 108 l 1
 125.439331568 73.3773729832 185.25759626 56 253 56 c 0
 379.574433308 56 434 150.41783393 434 370 c 1
 400.851851665 295.667788582 347.667041199 259 273 259 c 0
 134.759436406 259 48 344.988241416 48 482 c 0
 48 626.563158317 137.054632958 716 281 716 c 0
278 652 m 4
 186.570766662 652 128 585.619797783 128 482 c 0
 128 377.641439924 178.294369354 325 278 325 c 0
 371.686550172 325 432 386.488387162 432 482 c 0
 432 591.930840437 377.584408396 652 278 652 c 4
EndSplineSet
EndChar

StartChar: ntilde
Encoding: 241 241 118
Width: 538
GlyphClass: 1
Flags: HW
LayerCount: 2
Back
SplineSet
127 628 m 1,0,1
 137 687 137 687 171.5 724 c 0
 206 761 206 761 265 761 c 0,2,3
 292 761 292 761 315.5 750.5 c 0
 339 740 339 740 352.5 727.5 c 0
 366 715 366 715 384 704.5 c 0
 402 694 402 694 418 694 c 0,4,5
 460 694 460 694 467 753 c 1,6,-1
 565 737 l 1,7,8
 552 667 552 667 517.5 633.5 c 0
 483 600 483 600 422 600 c 0,9,10
 389 600 389 600 363 617 c 0
 337 634 337 634 316.5 650.5 c 0
 296 667 296 667 276 667 c 0,11,12
 230 667 230 667 222 608 c 1,13,-1
 127 628 l 1,0,1
64 520 m 1,0,-1
 213 520 l 1,1,-1
 256 443 l 1,2,3
 298 528 298 528 409 528 c 0,4,5
 495 528 495 528 541.5 472.5 c 0
 588 417 588 417 588 318 c 2,6,-1
 588 0 l 1,7,-1
 396 0 l 1,8,-1
 396 304 l 2,9,10
 396 379 396 379 333 379 c 0,11,12
 309 379 309 379 286.5 364 c 0
 264 349 264 349 256 328 c 1,13,-1
 256 0 l 1,14,-1
 64 0 l 1,15,-1
 64 520 l 1,0,-1
EndSplineSet
Fore
Refer: 154 771 N 1 0 0 1 256 -154 2
Refer: 116 110 N 1 0 0 1 0 0 2
EndChar

StartChar: numbersign
Encoding: 35 35 119
Width: 634
GlyphClass: 1
Flags: HW
LayerCount: 2
Back
SplineSet
212 724 m 5,0,-1
 378 724 l 1,1,-1
 343 575 l 1,2,-1
 435 575 l 1,3,-1
 470 724 l 1,4,-1
 636 724 l 1,5,-1
 601 575 l 1,6,-1
 652 575 l 1,7,-1
 652 415 l 1,8,-1
 563 415 l 1,9,-1
 538 313 l 1,10,-1
 652 313 l 1,11,-1
 652 153 l 1,12,-1
 500 153 l 1,13,-1
 464 0 l 1,14,-1
 298 0 l 1,15,-1
 334 153 l 1,16,-1
 242 153 l 1,17,-1
 206 0 l 1,18,-1
 40 0 l 1,19,-1
 76 153 l 1,20,-1
 24 153 l 1,21,-1
 24 313 l 1,22,-1
 114 313 l 1,23,-1
 139 415 l 1,24,-1
 24 415 l 1,25,-1
 24 575 l 1,26,-1
 177 575 l 1,27,-1
 212 724 l 5,0,-1
372 313 m 1,28,-1
 397 415 l 1,29,-1
 305 415 l 1,30,-1
 280 313 l 1,31,-1
 372 313 l 1,28,-1
EndSplineSet
Fore
SplineSet
269 724 m 1
 352 724 l 1
 294 520 l 1
 429 520 l 1
 487 724 l 1
 570 724 l 1
 512 520 l 1
 586 520 l 1
 586 452 l 1
 493 452 l 1
 443 274 l 1
 586 274 l 1
 586 206 l 1
 423 206 l 1
 365 0 l 1
 282 0 l 1
 340 206 l 1
 205 206 l 1
 147 0 l 1
 64 0 l 1
 122 206 l 1
 48 206 l 1
 48 274 l 1
 142 274 l 1
 192 452 l 1
 48 452 l 1
 48 520 l 1
 211 520 l 1
 269 724 l 1
360 274 m 1
 410 452 l 1
 275 452 l 1
 225 274 l 1
 360 274 l 1
EndSplineSet
EndChar

StartChar: o
Encoding: 111 111 120
Width: 548
GlyphClass: 1
Flags: HW
HStem: -8 64<190.659 352.419> 464 64<193.192 354.484>
VStem: 40 79<136.266 377.629> 428 80<142.078 379.426>
AnchorPoint: "AccentCenter" 277 687 basechar 0
LayerCount: 2
Back
SplineSet
301 387 m 4,0,1
 253 387 253 387 230.5 356 c 0
 208 325 208 325 208 254 c 0,2,3
 208 189 208 189 230 161.5 c 0
 252 134 252 134 301 134 c 0,4,5
 348 134 348 134 371.5 163.5 c 0
 395 193 395 193 395 258 c 0,6,7
 395 387 395 387 301 387 c 4,0,1
301 528 m 0,8,9
 433 528 433 528 510 457 c 0
 587 386 587 386 587 261 c 0,10,11
 587 136 587 136 509.5 64 c 0
 432 -8 432 -8 301 -8 c 0,12,13
 172 -8 172 -8 94 63.5 c 0
 16 135 16 135 16 259 c 0,14,15
 16 387 16 387 92.5 457.5 c 0
 169 528 169 528 301 528 c 0,8,9
EndSplineSet
Fore
SplineSet
274 464 m 4
 174 464 119 391 119 258 c 0
 119 126 172 56 272 56 c 0
 373 56 428 128 428 260 c 4
 428 392 373 464 274 464 c 4
274 528 m 256
 419 528 508 425 508 257 c 0
 508 98 413 -8 272 -8 c 0
 131 -8 40 96 40 259 c 0
 40 426 129 528 274 528 c 256
EndSplineSet
EndChar

StartChar: oacute
Encoding: 243 243 121
Width: 576
GlyphClass: 1
Flags: HW
LayerCount: 2
Back
SplineSet
221 583 m 1,0,-1
 184 662 l 1,1,-1
 405 776 l 1,2,-1
 464 660 l 1,3,-1
 221 583 l 1,0,-1
317 387 m 4,0,1
 269 387 269 387 246.5 356 c 0
 224 325 224 325 224 254 c 0,2,3
 224 189 224 189 246 161.5 c 0
 268 134 268 134 317 134 c 0,4,5
 364 134 364 134 387.5 163.5 c 0
 411 193 411 193 411 258 c 0,6,7
 411 387 411 387 317 387 c 4,0,1
317 528 m 0,8,9
 449 528 449 528 526 457 c 0
 603 386 603 386 603 261 c 0,10,11
 603 136 603 136 525.5 64 c 0
 448 -8 448 -8 317 -8 c 0,12,13
 188 -8 188 -8 110 63.5 c 0
 32 135 32 135 32 259 c 0,14,15
 32 387 32 387 108.5 457.5 c 0
 185 528 185 528 317 528 c 0,8,9
EndSplineSet
Fore
Refer: 59 769 N 1 0 0 1 279 -154 2
Refer: 120 111 N 1 0 0 1 0 0 2
EndChar

StartChar: ocircumflex
Encoding: 244 244 122
Width: 576
GlyphClass: 1
Flags: HW
LayerCount: 2
Back
SplineSet
140 646 m 25,0,-1
 295 776 l 1,1,-1
 361 776 l 1,2,-1
 516 646 l 1,3,-1
 459 575 l 1,4,-1
 328 681 l 1,5,-1
 189 575 l 1,6,-1
 140 646 l 25,0,-1
317 387 m 4,0,1
 269 387 269 387 246.5 356 c 0
 224 325 224 325 224 254 c 0,2,3
 224 189 224 189 246 161.5 c 0
 268 134 268 134 317 134 c 0,4,5
 364 134 364 134 387.5 163.5 c 0
 411 193 411 193 411 258 c 0,6,7
 411 387 411 387 317 387 c 4,0,1
317 528 m 0,8,9
 449 528 449 528 526 457 c 0
 603 386 603 386 603 261 c 0,10,11
 603 136 603 136 525.5 64 c 0
 448 -8 448 -8 317 -8 c 0,12,13
 188 -8 188 -8 110 63.5 c 0
 32 135 32 135 32 259 c 0,14,15
 32 387 32 387 108.5 457.5 c 0
 185 528 185 528 317 528 c 0,8,9
EndSplineSet
Fore
Refer: 163 770 N 1 0 0 1 285 -154 2
Refer: 120 111 N 1 0 0 1 0 0 2
EndChar

StartChar: odieresis
Encoding: 246 246 123
Width: 576
GlyphClass: 1
Flags: HW
LayerCount: 2
Back
SplineSet
372 683 m 4,0,1
 372 712 372 712 392 732 c 0
 412 752 412 752 441 752 c 0,2,3
 470 752 470 752 490 732 c 0
 510 712 510 712 510 683 c 0,4,5
 510 654 510 654 490 634 c 0
 470 614 470 614 441 614 c 0,6,7
 412 614 412 614 392 634 c 0
 372 654 372 654 372 683 c 4,0,1
146 683 m 0,8,9
 146 712 146 712 166 732 c 0
 186 752 186 752 215 752 c 0,10,11
 244 752 244 752 264 732 c 0
 284 712 284 712 284 683 c 0,12,13
 284 654 284 654 264 634 c 0
 244 614 244 614 215 614 c 0,14,15
 186 614 186 614 166 634 c 0
 146 654 146 654 146 683 c 0,8,9
317 387 m 4,0,1
 269 387 269 387 246.5 356 c 0
 224 325 224 325 224 254 c 0,2,3
 224 189 224 189 246 161.5 c 0
 268 134 268 134 317 134 c 0,4,5
 364 134 364 134 387.5 163.5 c 0
 411 193 411 193 411 258 c 0,6,7
 411 387 411 387 317 387 c 4,0,1
317 528 m 0,8,9
 449 528 449 528 526 457 c 0
 603 386 603 386 603 261 c 0,10,11
 603 136 603 136 525.5 64 c 0
 448 -8 448 -8 317 -8 c 0,12,13
 188 -8 188 -8 110 63.5 c 0
 32 135 32 135 32 259 c 0,14,15
 32 387 32 387 108.5 457.5 c 0
 185 528 185 528 317 528 c 0,8,9
EndSplineSet
Fore
Refer: 165 776 N 1 0 0 1 285 -174 2
Refer: 120 111 N 1 0 0 1 0 0 2
EndChar

StartChar: ograve
Encoding: 242 242 124
Width: 576
GlyphClass: 1
Flags: HW
LayerCount: 2
Back
SplineSet
427 583 m 1,0,-1
 184 660 l 1,1,-1
 243 776 l 1,2,-1
 464 662 l 1,3,-1
 427 583 l 1,0,-1
317 387 m 4,0,1
 269 387 269 387 246.5 356 c 0
 224 325 224 325 224 254 c 0,2,3
 224 189 224 189 246 161.5 c 0
 268 134 268 134 317 134 c 0,4,5
 364 134 364 134 387.5 163.5 c 0
 411 193 411 193 411 258 c 0,6,7
 411 387 411 387 317 387 c 4,0,1
317 528 m 0,8,9
 449 528 449 528 526 457 c 0
 603 386 603 386 603 261 c 0,10,11
 603 136 603 136 525.5 64 c 0
 448 -8 448 -8 317 -8 c 0,12,13
 188 -8 188 -8 110 63.5 c 0
 32 135 32 135 32 259 c 0,14,15
 32 387 32 387 108.5 457.5 c 0
 185 528 185 528 317 528 c 0,8,9
EndSplineSet
Fore
Refer: 101 768 N 1 0 0 1 285 -154 2
Refer: 120 111 N 1 0 0 1 0 0 2
EndChar

StartChar: one
Encoding: 49 49 125
Width: 550
GlyphClass: 1
Flags: W
HStem: 0 69<74 254 334 484> 688 20G<218.632 334>
VStem: 254 80<69 626>
LayerCount: 2
Back
SplineSet
57 160 m 1,0,-1
 583 160 l 1,1,-1
 583 0 l 1,2,-1
 57 0 l 1,3,-1
 57 160 l 1,0,-1
304 708 m 1,4,-1
 432 708 l 1,5,-1
 432 0 l 1,6,-1
 240 0 l 1,7,-1
 240 509 l 1,8,-1
 66 450 l 1,9,-1
 66 620 l 1,10,-1
 304 708 l 1,4,-1
EndSplineSet
Fore
SplineSet
262 708 m 5
 334 708 l 5
 334 69 l 5
 484 69 l 5
 484 0 l 5
 74 0 l 5
 74 69 l 5
 254 69 l 5
 254 626 l 5
 56 530 l 5
 56 613 l 5
 262 708 l 5
EndSplineSet
EndChar

StartChar: onehalf
Encoding: 189 189 126
Width: 750
GlyphClass: 1
Flags: HW
LayerCount: 2
Back
SplineSet
630 150 m 2,0,1
 674 200 674 200 674 252 c 0,2,3
 674 279 674 279 657 297.5 c 0
 640 316 640 316 612 316 c 0,4,5
 562 316 562 316 532 280 c 1,6,-1
 494 319 l 1,7,8
 542 382 542 382 616 382 c 0,9,10
 678 382 678 382 716 343 c 0
 754 304 754 304 754 250 c 0,11,12
 754 189 754 189 698 128 c 0,13,14
 696 126 696 126 638 63.5 c 0
 580 1 580 1 580 0 c 1,15,-1
 758 0 l 1,16,-1
 758 -64 l 1,17,-1
 498 -64 l 1,18,-1
 498 4 l 1,19,20
 630 150 630 150 630 150 c 2,0,1
470 567 m 1,21,-1
 536 527 l 1,22,-1
 326 187 l 1,23,-1
 262 227 l 1,24,-1
 470 567 l 1,21,-1
40 373 m 1,25,-1
 40 437 l 1,26,-1
 294 437 l 1,27,-1
 294 373 l 1,28,-1
 40 373 l 1,25,-1
134 694 m 1,29,-1
 34 640 l 1,30,-1
 34 713 l 1,31,-1
 144 772 l 1,32,-1
 214 772 l 1,33,-1
 214 437 l 1,34,-1
 134 437 l 1,35,-1
 134 694 l 1,29,-1
EndSplineSet
EndChar

StartChar: onequarter
Encoding: 188 188 127
Width: 750
GlyphClass: 1
Flags: HW
LayerCount: 2
Back
SplineSet
577 388 m 1,0,-1
 661 388 l 1,1,-1
 497 95 l 1,2,-1
 415 95 l 1,3,-1
 577 388 l 1,0,-1
415 31 m 1,4,-1
 415 95 l 1,5,-1
 753 95 l 1,6,-1
 753 31 l 1,7,-1
 415 31 l 1,4,-1
615 -64 m 1,8,-1
 615 192 l 1,9,-1
 691 192 l 1,10,-1
 691 -64 l 1,11,-1
 615 -64 l 1,8,-1
473 567 m 1,12,-1
 539 527 l 1,13,-1
 329 187 l 1,14,-1
 265 227 l 1,15,-1
 473 567 l 1,12,-1
43 373 m 1,16,-1
 43 437 l 1,17,-1
 297 437 l 1,18,-1
 297 373 l 1,19,-1
 43 373 l 1,16,-1
137 694 m 1,20,-1
 37 640 l 1,21,-1
 37 713 l 1,22,-1
 147 772 l 1,23,-1
 217 772 l 1,24,-1
 217 437 l 1,25,-1
 137 437 l 1,26,-1
 137 694 l 1,20,-1
EndSplineSet
Fore
SplineSet
596 347 m 1
 649 347 l 1
 485 44 l 1
 614 44 l 1
 614 122 l 1
 665 147 l 1
 665 44 l 1
 729 44 l 1
 729 0 l 1
 665 0 l 1
 665 -105 l 1
 614 -105 l 1
 614 0 l 1
 434 0 l 1
 434 44 l 1
 596 347 l 1
53 412 m 1
 154 412 l 1
 154 726 l 1
 42 672 l 1
 42 719 l 1
 159 772 l 1
 199 772 l 1
 199 412 l 1
 284 412 l 1
 284 373 l 1
 53 373 l 1
 53 412 l 1
521 567 m 1
 557 545 l 1
 294 123 l 1
 259 145 l 1
 521 567 l 1
EndSplineSet
EndChar

StartChar: oslash
Encoding: 248 248 128
Width: 596
GlyphClass: 1
Flags: HW
LayerCount: 2
Back
SplineSet
455 520 m 5,0,-1
 579 520 l 1,1,-1
 175 0 l 1,2,-1
 51 0 l 1,3,-1
 455 520 l 5,0,-1
317 387 m 4,0,1
 269 387 269 387 246.5 356 c 0
 224 325 224 325 224 254 c 0,2,3
 224 189 224 189 246 161.5 c 0
 268 134 268 134 317 134 c 0,4,5
 364 134 364 134 387.5 163.5 c 0
 411 193 411 193 411 258 c 0,6,7
 411 387 411 387 317 387 c 4,0,1
317 528 m 0,8,9
 449 528 449 528 526 457 c 0
 603 386 603 386 603 261 c 0,10,11
 603 136 603 136 525.5 64 c 0
 448 -8 448 -8 317 -8 c 0,12,13
 188 -8 188 -8 110 63.5 c 0
 32 135 32 135 32 259 c 0,14,15
 32 387 32 387 108.5 457.5 c 0
 185 528 185 528 317 528 c 0,8,9
EndSplineSet
Fore
SplineSet
54 261 m 0
 54 437 167 527 296 527 c 0
 346 527 390 515 428 490 c 1
 451 520 l 1
 545 520 l 1
 484 441 l 1
 523 394 542 334 542 261 c 0
 542 85 425 -8 296 -8 c 0
 249 -8 206 5 168 30 c 1
 145 0 l 1
 51 0 l 1
 113 80 l 1
 74 127 54 188 54 261 c 0
296 57 m 0
 370 57 466 106 466 258 c 0
 466 307 456 347 437 380 c 1
 208 82 l 1
 234 65 263 57 296 57 c 0
296 462 m 0
 249 462 210 444 178 408 c 128
 146 372 130 322 130 258 c 0
 130 210 139 170 157 138 c 1
 386 435 l 1
 360 453 330 462 296 462 c 0
EndSplineSet
EndChar

StartChar: otilde
Encoding: 245 245 129
Width: 576
GlyphClass: 1
Flags: HW
LayerCount: 2
Back
SplineSet
109 628 m 1,0,1
 119 687 119 687 153.5 724 c 0
 188 761 188 761 247 761 c 0,2,3
 274 761 274 761 297.5 750.5 c 0
 321 740 321 740 334.5 727.5 c 0
 348 715 348 715 366 704.5 c 0
 384 694 384 694 400 694 c 0,4,5
 442 694 442 694 449 753 c 1,6,-1
 547 737 l 1,7,8
 534 667 534 667 499.5 633.5 c 0
 465 600 465 600 404 600 c 0,9,10
 371 600 371 600 345 617 c 0
 319 634 319 634 298.5 650.5 c 0
 278 667 278 667 258 667 c 0,11,12
 212 667 212 667 204 608 c 1,13,-1
 109 628 l 1,0,1
317 387 m 4,0,1
 269 387 269 387 246.5 356 c 0
 224 325 224 325 224 254 c 0,2,3
 224 189 224 189 246 161.5 c 0
 268 134 268 134 317 134 c 0,4,5
 364 134 364 134 387.5 163.5 c 0
 411 193 411 193 411 258 c 0,6,7
 411 387 411 387 317 387 c 4,0,1
317 528 m 0,8,9
 449 528 449 528 526 457 c 0
 603 386 603 386 603 261 c 0,10,11
 603 136 603 136 525.5 64 c 0
 448 -8 448 -8 317 -8 c 0,12,13
 188 -8 188 -8 110 63.5 c 0
 32 135 32 135 32 259 c 0,14,15
 32 387 32 387 108.5 457.5 c 0
 185 528 185 528 317 528 c 0,8,9
EndSplineSet
Fore
Refer: 154 771 N 1 0 0 1 285 -154 2
Refer: 120 111 N 1 0 0 1 0 0 2
EndChar

StartChar: p
Encoding: 112 112 130
Width: 590
GlyphClass: 1
Flags: HW
HStem: -192 21G<80 160> -8 64<235.488 385.04> 464 64<249.124 392.292> 500 20G<80 146>
VStem: 80 80<-192 78 120.298 403.485> 80 62<484.16 520> 462 80<143.529 386.983>
LayerCount: 2
Back
SplineSet
344 388 m 4,0,1
 281 388 281 388 252 331 c 1,2,-1
 252 190 l 1,3,4
 267 162 267 162 290.5 145 c 0
 314 128 314 128 340 128 c 0,5,6
 436 128 436 128 436 260 c 0,7,8
 436 321 436 321 412 354.5 c 0
 388 388 388 388 344 388 c 4,0,1
64 520 m 5,9,-1
 214 520 l 1,10,-1
 252 461 l 1,11,12
 295 528 295 528 390 528 c 0,13,14
 494 528 494 528 561 452.5 c 0
 628 377 628 377 628 259 c 0,15,16
 628 140 628 140 564.5 66 c 0
 501 -8 501 -8 399 -8 c 0,17,18
 299 -8 299 -8 252 52 c 1,19,-1
 252 -191 l 1,20,-1
 64 -191 l 1,21,-1
 64 520 l 5,9,-1
EndSplineSet
Fore
SplineSet
308 464 m 0
 243 464 195 434 160 372 c 1
 160 155 l 1
 198 86 243 56 308 56 c 0
 405 56 462 133 462 263 c 0
 462 400 413 464 308 464 c 0
80 520 m 1
 142 520 l 1
 160 430 l 1
 214 495 271 528 332 528 c 0
 468 528 542 433 542 260 c 0
 542 96 461 -8 332 -8 c 0
 316.950658365 -8 217.946077443 -4.78011063335 160 78 c 5
 160 -192 l 1
 80 -192 l 1
 80 520 l 1
EndSplineSet
EndChar

StartChar: paragraph
Encoding: 182 182 131
Width: 543
GlyphClass: 1
Flags: HW
LayerCount: 2
Back
SplineSet
40 547 m 0,0,1
 40 617 40 617 88 662 c 0
 136 707 136 707 212 707 c 2,2,-1
 300 707 l 1,3,-1
 300 544 l 1,4,-1
 300 372 l 1,5,6
 212 372 l 2,7,8
 134 372 134 372 87 420 c 0
 40 468 40 468 40 547 c 0,0,1
228 372 m 1,9,-1
 300 372 l 1,10,-1
 300 0 l 1,11,-1
 228 0 l 1,12,-1
 228 372 l 1,9,-1
444 60 m 1,13,-1
 511 60 l 1,14,-1
 511 0 l 1,15,-1
 444 0 l 1,16,-1
 444 60 l 1,13,-1
444 707 m 1,17,-1
 511 707 l 1,18,-1
 511 648 l 1,19,-1
 444 648 l 1,20,-1
 444 707 l 1,17,-1
372 707 m 1,21,-1
 444 707 l 1,22,-1
 444 0 l 1,23,-1
 372 0 l 1,24,-1
 372 707 l 1,21,-1
EndSplineSet
Fore
SplineSet
38 544 m 0
 38 638 109 708 212 708 c 2
 302 708 l 1
 302 0 l 1
 226 0 l 1
 226 367 l 1
 212 367 l 2
 105 367 38 438 38 544 c 0
370 0 m 1
 370 708 l 1
 514 708 l 1
 514 644 l 1
 446 644 l 1
 446 65 l 1
 514 65 l 1
 514 0 l 1
 370 0 l 1
EndSplineSet
EndChar

StartChar: parenleft
Encoding: 40 40 132
Width: 299
GlyphClass: 1
Flags: W
VStem: 24 78<199.851 541.43>
LayerCount: 2
Back
SplineSet
197 800 m 1,0,-1
 381 800 l 1,1,2
 311 739 311 739 261 632.5 c 0
 211 526 211 526 211 371 c 0,3,4
 211 212 211 212 260.5 100 c 0
 310 -12 310 -12 381 -64 c 1,5,-1
 202 -64 l 1,6,7
 116 6 116 6 67.5 117 c 0
 19 228 19 228 19 371 c 0,8,9
 19 502 19 502 68 618.5 c 0
 117 735 117 735 197 800 c 1,0,-1
EndSplineSet
Fore
SplineSet
197 800 m 5
 287 800 l 5
 249.652410811 772.560954881 102 646.471240923 102 368 c 4
 102 228.473781577 141.946525025 66.3340964056 286 -64 c 5
 191 -64 l 5
 81 25 24 197 24 368 c 4
 24 563 82 707 197 800 c 5
EndSplineSet
EndChar

StartChar: parenright
Encoding: 41 41 133
Width: 300
GlyphClass: 1
Flags: W
VStem: 196 80<202.227 543.823>
LayerCount: 2
Back
SplineSet
19 800 m 1,0,-1
 203 800 l 1,1,2
 283 735 283 735 332 618.5 c 0
 381 502 381 502 381 371 c 0,3,4
 381 228 381 228 332.5 117 c 0
 284 6 284 6 198 -64 c 1,5,-1
 19 -64 l 1,6,7
 90 -12 90 -12 139.5 100 c 0
 189 212 189 212 189 371 c 0,8,9
 189 526 189 526 139 632.5 c 0
 89 739 89 739 19 800 c 1,0,-1
EndSplineSet
Fore
SplineSet
13 800 m 5
 108 800 l 1
 145.275766087 770.460713667 276 647.179779004 276 371 c 0
 276 174 218 29 102 -64 c 1
 12 -64 l 1
 73 -20 196 119 196 371 c 0
 196 556 135 699 13 800 c 5
EndSplineSet
EndChar

StartChar: percent
Encoding: 37 37 134
Width: 784
GlyphClass: 1
Flags: HW
LayerCount: 2
Back
SplineSet
627 252 m 0,0,1
 567 252 567 252 567 177 c 0,2,3
 567 101 567 101 627 101 c 0,4,5
 687 101 687 101 687 177 c 0,6,7
 687 252 687 252 627 252 c 0,0,1
627 361 m 0,8,9
 690 361 690 361 732 332 c 0
 774 303 774 303 790 263.5 c 0
 806 224 806 224 806 177 c 0,10,11
 806 130 806 130 790 90.5 c 0
 774 51 774 51 732 22 c 0
 690 -7 690 -7 627 -7 c 0,12,13
 537 -7 537 -7 492.5 48 c 0
 448 103 448 103 448 177 c 0,14,15
 448 251 448 251 492.5 306 c 0
 537 361 537 361 627 361 c 0,8,9
195 608 m 0,16,17
 135 608 135 608 135 533 c 0,18,19
 135 457 135 457 195 457 c 0,20,21
 255 457 255 457 255 533 c 0,22,23
 255 608 255 608 195 608 c 0,16,17
195 716 m 0,24,25
 258 716 258 716 300 687 c 0
 342 658 342 658 358 618.5 c 0
 374 579 374 579 374 532 c 0,26,27
 374 485 374 485 358 445.5 c 0
 342 406 342 406 300 377 c 0
 258 348 258 348 195 348 c 0,28,29
 105 348 105 348 60.5 403 c 0
 16 458 16 458 16 532 c 0,30,31
 16 606 16 606 60.5 661 c 0
 105 716 105 716 195 716 c 0,24,25
590 708 m 1,32,-1
 713 708 l 1,33,-1
 242 0 l 1,34,-1
 118 0 l 1,35,-1
 590 708 l 1,32,-1
EndSplineSet
Fore
SplineSet
211 716 m 128
 301 716 360 650 360 551 c 128
 360 453 302 385 211 385 c 128
 120 385 62 453 62 551 c 128
 62 650 121 716 211 716 c 128
210 645 m 0
 165 645 142 613 142 549 c 0
 142 488 165 457 211 457 c 128
 257 457 280 488 280 550 c 0
 280 581 272 645 210 645 c 0
548 708 m 1
 634 708 l 1
 221 0 l 1
 134 0 l 1
 548 708 l 1
557 323 m 128
 647 323 706 257 706 158 c 128
 706 59 647 -7 557 -7 c 128
 467 -7 408 59 408 158 c 128
 408 257 467 323 557 323 c 128
556 253 m 4
 511 253 488 221 488 156 c 0
 488 95 511 64 557 64 c 128
 603 64 626 95 626 156 c 0
 626 184 620 253 556 253 c 4
EndSplineSet
EndChar

StartChar: period
Encoding: 46 46 135
Width: 190
GlyphClass: 1
Flags: W
HStem: -8 126<45.7398 143.961>
VStem: 32 126<6.60814 103.392>
LayerCount: 2
Back
SplineSet
125 196 m 4,0,1
 169 196 169 196 198 169 c 0
 227 142 227 142 227 94 c 0,2,3
 227 45 227 45 198 18.5 c 0
 169 -8 169 -8 125 -8 c 0,4,5
 81 -8 81 -8 52 18.5 c 0
 23 45 23 45 23 94 c 0,6,7
 23 142 23 142 52 169 c 0
 81 196 81 196 125 196 c 4,0,1
EndSplineSet
Fore
SplineSet
94 118 m 4
 134 118 158 88 158 55 c 0
 158 22 134 -8 94 -8 c 0
 53 -8 32 24 32 55 c 0
 32 86 53 118 94 118 c 4
EndSplineSet
EndChar

StartChar: plus
Encoding: 43 43 136
Width: 597
GlyphClass: 1
Flags: HW
LayerCount: 2
Back
SplineSet
218 480 m 5,0,-1
 346 480 l 1,1,-1
 346 331 l 1,2,-1
 500 331 l 1,3,-1
 500 203 l 1,4,-1
 346 203 l 1,5,-1
 346 54 l 1,6,-1
 218 54 l 1,7,-1
 218 203 l 1,8,-1
 64 203 l 1,9,-1
 64 331 l 1,10,-1
 218 331 l 1,11,-1
 218 480 l 5,0,-1
EndSplineSet
Fore
SplineSet
252 479 m 5
 332 479 l 1
 332 307 l 1
 507 307 l 1
 507 227 l 1
 332 227 l 1
 332 54 l 1
 252 54 l 1
 252 227 l 1
 81 227 l 1
 81 307 l 1
 252 307 l 1
 252 479 l 5
EndSplineSet
EndChar

StartChar: q
Encoding: 113 113 137
Width: 598
GlyphClass: 1
Flags: HW
HStem: -191 21G<438 518> -8 64<214.34 359.632> 464 64<206.315 358.02> 500 20G<452.585 518>
VStem: 56 80<145.892 387.158> 438 80<-191 71 113.797 404.289> 456 62<478.016 520>
LayerCount: 2
Back
SplineSet
446 520 m 1,0,-1
 596 520 l 1,1,-1
 596 -191 l 1,2,-1
 408 -191 l 1,3,-1
 408 53 l 1,4,5
 360 -8 360 -8 261 -8 c 0,6,7
 159 -8 159 -8 95.5 66 c 0
 32 140 32 140 32 259 c 0,8,9
 32 379 32 379 96 453.5 c 0
 160 528 160 528 263 528 c 0,10,11
 310 528 310 528 349 508.5 c 0
 388 489 388 489 408 455 c 1,12,-1
 446 520 l 1,0,-1
316 388 m 0,13,14
 273 388 273 388 248.5 353 c 0
 224 318 224 318 224 256 c 0,15,16
 224 128 224 128 320 128 c 0,17,18
 377 128 377 128 408 187 c 1,19,-1
 408 332 l 1,20,21
 375 388 375 388 316 388 c 0,13,14
EndSplineSet
Fore
SplineSet
290 464 m 0
 186 464 136 399 136 263 c 0
 136 135 195 56 290 56 c 0
 361 56 417 94 438 155 c 1
 438 372 l 1
 406 430 350 464 290 464 c 0
456 520 m 1
 518 520 l 1
 518 -191 l 1
 438 -191 l 1
 438 71 l 1
 376 14 328 -8 263 -8 c 0
 132 -8 56 90 56 260 c 0
 56 435 129 528 268 528 c 0
 331 528 389 498 442 438 c 1
 456 520 l 1
EndSplineSet
EndChar

StartChar: question
Encoding: 63 63 138
Width: 510
GlyphClass: 1
Flags: HW
HStem: -7 126<190.465 286.758> 665 67<139.366 327.113>
VStem: 176 126<7.46193 103.868> 188 70<184.725 319.64> 370 78.7333<476.102 624.999>
LayerCount: 2
Back
SplineSet
254 197 m 0,0,1
 296 197 296 197 326 167 c 0
 356 137 356 137 356 95 c 0,2,3
 356 53 356 53 326 23 c 0
 296 -7 296 -7 254 -7 c 0,4,5
 212 -7 212 -7 182 23 c 0
 152 53 152 53 152 95 c 0,6,7
 152 137 152 137 182 167 c 0
 212 197 212 197 254 197 c 0,0,1
278 732 m 0,8,9
 381 732 381 732 455.5 682 c 0
 530 632 530 632 530 544 c 0,10,11
 530 421 530 421 424 368 c 0,12,13
 412 362 412 362 390.5 353 c 0
 369 344 369 344 359.5 339.5 c 0
 350 335 350 335 341.5 324.5 c 0
 333 314 333 314 333 301 c 2,14,-1
 333 240 l 1,15,-1
 163 220 l 1,16,17
 149 246 149 246 149 287 c 0,18,19
 149 392 149 392 242 436 c 0,20,21
 251 440 251 440 269.5 448.5 c 0
 288 457 288 457 295 460.5 c 0
 302 464 302 464 313.5 471 c 0
 325 478 325 478 329.5 484 c 0
 334 490 334 490 338 499.5 c 0
 342 509 342 509 342 520 c 0,22,23
 342 541 342 541 322.5 559 c 0
 303 577 303 577 263 577 c 0,24,25
 190 577 190 577 153 510 c 1,26,-1
 24 604 l 1,27,28
 72 675 72 675 132.5 703.5 c 0
 193 732 193 732 278 732 c 0,8,9
EndSplineSet
Fore
SplineSet
235 732 m 4
 269.396108812 732 448.733264888 723.96085329 448.733264888 556.298200328 c 0
 448.733264888 504.656737668 425.798958026 455.854964077 391.5 426.5 c 0
 269.69606302 322.25338727 258 312.243243243 258 232 c 0
 258 214 259.666666667 198.333333333 263 185 c 1
 195 177 l 1
 190.333333333 199 188 219.333333333 188 238 c 0xd8
 188 332.946197613 241.857486577 382.388038388 324.5 450.5 c 0
 354.833333333 475.5 370 510.333333333 370 555 c 0
 370 628.333333333 325 665 235 665 c 0
 182.333333333 665 129 644.666666667 75 604 c 1
 44 665 l 1
 106 709.666666667 169.666666667 732 235 732 c 4
238 119 m 0xe8
 278.222553631 119 302 87.2831829209 302 55 c 0
 302 21.6999760602 277.29729375 -7 238 -7 c 0
 197.285594991 -7 176 23.3782531492 176 55 c 0
 176 85.5460366407 196.441205522 119 238 119 c 0xe8
EndSplineSet
EndChar

StartChar: questiondown
Encoding: 191 191 139
Width: 517
GlyphClass: 1
Flags: HW
LayerCount: 2
Back
SplineSet
353 454 m 4,0,1
 353 424 353 424 331.5 402.5 c 0
 310 381 310 381 280 381 c 0,2,3
 250 381 250 381 228.5 402.5 c 0
 207 424 207 424 207 454 c 0,4,5
 207 484 207 484 228.5 505.5 c 0
 250 527 250 527 280 527 c 0,6,7
 310 527 310 527 331.5 505.5 c 0
 353 484 353 484 353 454 c 4,0,1
504 -93 m 5,8,9
 440 -213 440 -213 283 -213 c 0,10,11
 184 -213 184 -213 124 -162.5 c 0
 64 -112 64 -112 64 -22 c 0,12,13
 64 95 64 95 165 166 c 0,14,15
 233 214 233 214 233 282 c 0,16,17
 233 295 233 295 228 318 c 1,18,-1
 347 335 l 1,19,20
 353 302 353 302 353 280 c 0,21,22
 353 225 353 225 333 186.5 c 0
 313 148 313 148 270 117 c 0,23,24
 228 87 228 87 210 58.5 c 0
 192 30 192 30 192 -14 c 0,25,26
 192 -58 192 -58 220.5 -81.5 c 0
 249 -105 249 -105 296 -105 c 0,27,28
 337 -105 337 -105 369.5 -85.5 c 0
 402 -66 402 -66 416 -31 c 1,29,-1
 504 -93 l 5,8,9
EndSplineSet
Fore
SplineSet
282 -212 m 0
 220 -212 69 -194 69 -21 c 0
 69 43 100 91 193 165 c 0
 245 206 260 226 260 288 c 0
 260 303 258 319 254 335 c 1
 322 343 l 1
 326 315 328 295 328 282 c 0
 328 218 300 165 244 123 c 0
 156 55 146 18 146 -18 c 0
 146 -103 191 -145 282 -145 c 0
 343 -145 392 -119 431 -68 c 1
 479 -117 l 1
 422 -180 357 -212 282 -212 c 0
216 466 m 128
 216 499 239 528 279 528 c 128
 319 528 342 499 342 466 c 128
 342 435 320 402 279 402 c 128
 238 402 216 435 216 466 c 128
EndSplineSet
EndChar

StartChar: quotedbl
Encoding: 34 34 140
Width: 329
GlyphClass: 1
Flags: HW
LayerCount: 2
Back
SplineSet
54 772 m 1,0,-1
 170 772 l 1,1,-1
 154 520 l 1,2,-1
 70 520 l 1,3,-1
 54 772 l 1,0,-1
253 772 m 1,4,-1
 369 772 l 1,5,-1
 353 520 l 1,6,-1
 269 520 l 1,7,-1
 253 772 l 1,4,-1
EndSplineSet
Fore
SplineSet
42 772 m 1
 120 772 l 1
 111 520 l 1
 51 520 l 1
 42 772 l 1
209 772 m 1
 287 772 l 1
 278 520 l 1
 218 520 l 1
 209 772 l 1
EndSplineSet
EndChar

StartChar: quotesingle
Encoding: 39 39 141
Width: 158
GlyphClass: 1
Flags: HW
LayerCount: 2
Back
SplineSet
148 768 m 5,0,-1
 132 527 l 1,1,-1
 48 527 l 1,2,-1
 32 768 l 1,3,-1
 148 768 l 5,0,-1
EndSplineSet
Fore
SplineSet
109 515 m 1
 49 515 l 1
 40 772 l 5
 118 772 l 5
 109 515 l 1
EndSplineSet
EndChar

StartChar: r
Encoding: 114 114 142
Width: 366
GlyphClass: 1
Flags: W
HStem: 0 21G<80 160> 460 68<199.577 335> 500 20G<80 145.872>
VStem: 80 80<0 423.437> 80 61<490.573 520>
LayerCount: 2
Back
SplineSet
56 520 m 1,0,-1
 197 520 l 1,1,-1
 225 420 l 1,2,3
 232 469 232 469 271.5 498.5 c 0
 311 528 311 528 368 528 c 0,4,5
 393 528 393 528 409 524 c 1,6,-1
 395 376 l 1,7,-1
 355 376 l 2,8,9
 282 376 282 376 248 312 c 1,10,-1
 248 0 l 1,11,-1
 56 0 l 1,12,-1
 56 520 l 1,0,-1
EndSplineSet
Fore
SplineSet
80 520 m 5xa8
 141 520 l 5xa8
 160 442 l 5
 160 499 195 528 266 528 c 4
 293 528 318 526 341 523 c 5
 335 460 l 5
 270 460 l 6
 224 460 187 438 160 395 c 5
 160 0 l 5
 80 0 l 5xd0
 80 520 l 5xa8
EndSplineSet
EndChar

StartChar: s
Encoding: 115 115 143
Width: 456
GlyphClass: 1
Flags: W
HStem: -8 65<119.792 317.378> 464 64<150.709 332.588>
VStem: 44 80<334.874 439.041> 352 80<88.2715 197.699>
LayerCount: 2
Back
SplineSet
279 528 m 4,0,1
 416 528 416 528 501 459 c 1,2,-1
 427 361 l 1,3,4
 366 404 366 404 276 404 c 0,5,6
 244 404 244 404 223.5 394 c 0
 203 384 203 384 203 368 c 0,7,8
 203 341 203 341 265 331 c 2,9,-1
 348 318 l 2,10,11
 511 292 511 292 511 154 c 0,12,13
 511 -8 511 -8 249 -8 c 0,14,15
 171 -8 171 -8 106.5 11.5 c 0
 42 31 42 31 12 63 c 1,16,-1
 85 161 l 1,17,18
 105 140 105 140 153.5 126 c 0
 202 112 202 112 255 112 c 0,19,20
 294 112 294 112 317.5 121 c 0
 341 130 341 130 341 145 c 0,21,22
 341 161 341 161 326.5 170 c 0
 312 179 312 179 276 184 c 2,23,-1
 198 195 l 2,24,25
 35 219 35 219 33 367 c 0,26,27
 33 444 33 444 97 486 c 0
 161 528 161 528 279 528 c 4,0,1
EndSplineSet
Fore
SplineSet
236 528 m 4
 301 528 364 506 425 463 c 1
 382 413 l 1
 335 447 287 464 238 464 c 0
 196 464 124 455 124 389 c 0
 124 349 148 321 195 311 c 5
 293 290 l 2
 402 266 432 221 432 141 c 0
 432 36 326 -8 223 -8 c 0
 141 -8 73 15 20 62 c 1
 63 116 l 1
 108 77 161 57 221 57 c 0
 265 57 352 66 352 141 c 0
 352 192 326 211 266 223 c 2
 171 243 l 2
 126 253 44 285 44 390 c 0
 44 463 109 528 236 528 c 4
EndSplineSet
EndChar

StartChar: section
Encoding: 167 167 144
Width: 567
GlyphClass: 1
Flags: HW
LayerCount: 2
Back
SplineSet
279 342 m 1049
170 398 m 1,1,2
 144 374 144 374 144 337 c 0,3,4
 144 258 144 258 261 234 c 2,5,-1
 300 225 l 2,6,7
 402 204 402 204 460 150.5 c 0
 518 97 518 97 518 10 c 0,8,9
 518 -82 518 -82 443 -137.5 c 0
 368 -193 368 -193 244 -193 c 0,10,11
 162 -193 162 -193 94 -156.5 c 0
 26 -120 26 -120 -12 -56 c 1,12,-1
 75 10 l 1,13,14
 137 -93 137 -93 258 -93 c 0,15,16
 390 -93 390 -93 390 10 c 1,17,18
 386 96 386 96 254 122 c 2,19,-1
 216 130 l 2,20,21
 125 147 125 147 73 197.5 c 0
 21 248 21 248 20 329 c 0,22,23
 20 415 20 415 84 470 c 1,24,-1
 170 398 l 1,1,2
404 184 m 1,25,26
 422 211 422 211 422 248 c 0,27,28
 418 334 418 334 286 360 c 2,29,-1
 248 368 l 2,30,31
 157 385 157 385 105 435.5 c 0
 53 486 53 486 52 567 c 0,32,33
 52 656 52 656 121 712 c 0
 190 768 190 768 308 768 c 0,34,35
 466 768 466 768 543 651 c 1,36,-1
 473 590 l 1,37,38
 414 668 414 668 310 668 c 0,39,40
 246 668 246 668 211 643 c 0
 176 618 176 618 176 575 c 0,41,42
 176 496 176 496 293 472 c 2,43,-1
 332 463 l 2,44,45
 434 442 434 442 492 388.5 c 0
 550 335 550 335 550 248 c 0,46,47
 550 162 550 162 481 113 c 1,48,-1
 404 184 l 1,25,26
EndSplineSet
Fore
SplineSet
259 -127 m 0
 327 -127 422 -108 422 0 c 0
 422 60 399 110 269 137 c 1
 223 147 l 1
 142 161 28 207 28 348 c 0
 28 403 49 447 92 482 c 1
 76 510 68 543 68 580 c 0
 68 682 152 768 313 768 c 0
 406 768 478 730 530 654 c 1
 475 615 l 1
 437 674 381 703 308 703 c 0
 269 703 146 694 146 580 c 0
 146 503 181 467 291 444 c 1
 341 433 l 2
 472 405 538 338 538 232 c 0
 538 177 517 131 475 96 c 1
 490 69 498 38 498 2 c 0
 498 -108 410 -191 255 -191 c 0
 154 -191 82 -172 7 -76 c 1
 61 -30 l 1
 118 -116 190 -127 259 -127 c 0
137 429 m 1
 116 409 106 383 106 350 c 0
 106 274 141 236 251 213 c 2
 301 202 l 2
 356 191 399 172 431 147 c 1
 452 168 462 197 462 232 c 0
 462 292 439 341 309 368 c 1
 263 378 l 1
 211 387 169 404 137 429 c 1
EndSplineSet
EndChar

StartChar: semicolon
Encoding: 59 59 145
Width: 181
GlyphClass: 1
Flags: HW
HStem: 402 126<32.9679 131.032>
VStem: 19 126<415.968 514.032> 31 47<-149 -115.101>
LayerCount: 2
Back
SplineSet
79 454 m 4,0,1
 79 484 79 484 100.5 505.5 c 0
 122 527 122 527 152 527 c 0,2,3
 182 527 182 527 203.5 505.5 c 0
 225 484 225 484 225 454 c 0,4,5
 225 424 225 424 203.5 402.5 c 0
 182 381 182 381 152 381 c 0,6,7
 122 381 122 381 100.5 402.5 c 0
 79 424 79 424 79 454 c 4,0,1
208 78 m 1,8,-1
 120 -144 l 1,9,-1
 24 -144 l 1,10,-1
 94 78 l 1,11,-1
 208 78 l 1,8,-1
EndSplineSet
Fore
SplineSet
90 528 m 4
 126.088867188 528 153 501.088867188 153 465 c 0xc0
 153 428.911132812 126.088867188 402 90 402 c 0
 53.9111328125 402 27 428.911132812 27 465 c 0
 27 501.088867188 53.9111328125 528 90 528 c 4
46 78 m 1xa0
 142 78 l 1
 94 -149 l 1
 47 -149 l 1
 46 78 l 1xa0
EndSplineSet
EndChar

StartChar: seven
Encoding: 55 55 146
Width: 550
GlyphClass: 1
Flags: HW
LayerCount: 2
Back
SplineSet
32 708 m 1,0,-1
 555 708 l 1,1,-1
 555 548 l 1,2,-1
 318 0 l 1,3,-1
 113 0 l 1,4,-1
 365 548 l 1,5,-1
 32 548 l 1,6,-1
 32 708 l 1,0,-1
EndSplineSet
Fore
SplineSet
44 708 m 5
 492 708 l 1
 492 648 l 1
 235 0 l 1
 150 0 l 1
 412 644 l 1
 44 644 l 1
 44 708 l 5
EndSplineSet
EndChar

StartChar: six
Encoding: 54 54 147
Width: 550
GlyphClass: 1
Flags: HW
HStem: -8 64<187.908 360.57> 384 66<204.927 363.956> 653 63<222.796 409.794>
VStem: 46 80<142.187 516.156> 430 80<125.993 319.665>
LayerCount: 2
Back
SplineSet
318 716 m 0,0,1
 389 716 389 716 446.5 700 c 0
 504 684 504 684 560 638 c 1,2,-1
 483 512 l 1,3,4
 401 562 401 562 331 562 c 0,5,6
 271 562 271 562 242 522 c 0
 213 482 213 482 213 385 c 1,7,8
 222 418 222 418 266 443.5 c 0
 310 469 310 469 361 469 c 0,9,10
 465 469 465 469 518 405.5 c 0
 571 342 571 342 571 233 c 0,11,12
 571 119 571 119 501 55.5 c 0
 431 -8 431 -8 298 -8 c 0,13,14
 169 -8 169 -8 96.5 75.5 c 0
 24 159 24 159 24 328 c 0,15,16
 24 516 24 516 101.5 616 c 0
 179 716 179 716 318 716 c 0,0,1
298 332 m 0,17,18
 261 332 261 332 238.5 309.5 c 0
 216 287 216 287 216 243 c 0,19,20
 216 200 216 200 238 175 c 0
 260 150 260 150 299 150 c 0,21,22
 335 150 335 150 357 175 c 0
 379 200 379 200 379 244 c 0,23,24
 379 289 379 289 356.5 310.5 c 0
 334 332 334 332 298 332 c 0,17,18
EndSplineSet
Fore
SplineSet
306 716 m 0
 368.853930433 716 431.857744316 694.100278597 493 651 c 1
 461 599 l 1
 415 635 369 653 307 653 c 0
 184.186523438 653 124 559.361925233 124 339 c 1
 144 412 231 450 295 450 c 0
 428 450 510 367.742883209 510 223 c 0
 510 88.3174649346 413.024414062 -8 276 -8 c 0
 117.5390625 -8 46 94.0876109134 46 318 c 0
 46 587.905594901 129.679762125 716 306 716 c 0
276 384 m 0
 178.370816494 384 126 330.930905953 126 232 c 0
 126 110.557797213 171.90625 56 276 56 c 0
 373.903320312 56 430 117.467508635 430 223 c 0
 430 327.349738425 375.812793276 384 276 384 c 0
EndSplineSet
EndChar

StartChar: slash
Encoding: 47 47 148
Width: 374
GlyphClass: 1
Flags: HW
LayerCount: 2
Back
SplineSet
1 -35 m 1,0,-1
 342 768 l 1,1,-1
 474 768 l 1,2,-1
 133 -35 l 1,3,-1
 1 -35 l 1,0,-1
EndSplineSet
Fore
SplineSet
319 772 m 5
 398 772 l 5
 55 -34 l 5
 -24 -34 l 5
 319 772 l 5
EndSplineSet
EndChar

StartChar: sterling
Encoding: 163 163 149
Width: 601
GlyphClass: 1
Flags: HW
HStem: 0 85<62 119.75> 0 69<167 540> 312 70<34 163 264 428> 651 65<260.862 453.248>
VStem: 120 76<429.731 593.123> 194 78<163.549 311.157>
LayerCount: 2
Back
SplineSet
33 438 m 1,0,-1
 482 438 l 1,1,-1
 482 285 l 1,2,-1
 33 285 l 1,3,-1
 33 438 l 1,0,-1
357 716 m 0,4,5
 448 716 448 716 505 681 c 0
 562 646 562 646 603 582 c 1,6,-1
 476 498 l 1,7,8
 451 537 451 537 425.5 554.5 c 0
 400 572 400 572 360 572 c 0,9,10
 318 572 318 572 295.5 552 c 0
 273 532 273 532 273 496 c 0,11,12
 273 459 273 459 284 428.5 c 0
 295 398 295 398 308.5 380 c 0
 322 362 322 362 333 332.5 c 0
 344 303 344 303 344 268 c 0,13,14
 344 189 344 189 282 150 c 1,15,-1
 588 150 l 1,16,-1
 588 0 l 1,17,-1
 59 0 l 1,18,-1
 59 156 l 1,19,20
 102 156 102 156 135 181.5 c 0
 168 207 168 207 168 267 c 0,21,22
 168 307 168 307 132.5 380.5 c 0
 97 454 97 454 97 510 c 0,23,24
 97 599 97 599 168 657.5 c 0
 239 716 239 716 357 716 c 0,4,5
EndSplineSet
Fore
SplineSet
352 716 m 0
 461 716 525 662 554 636 c 1
 522 584 l 1
 467 630 419 651 349 651 c 0
 273 651 196 607 196 526 c 0
 196 489 203 463 238 382 c 1
 428 382 l 1
 428 312 l 1
 264 312 l 1
 269 292 272 274 272 258 c 0
 272 157 229 107 167 69 c 1
 540 69 l 1
 540 0 l 1
 62 0 l 1
 62 85 l 1
 150 104 194 165 194 268 c 0
 194 281 192 296 188 312 c 1
 34 312 l 1
 34 382 l 1
 163 382 l 1
 143 422 120 478 120 526 c 0
 120 595 180 716 352 716 c 0
EndSplineSet
EndChar

StartChar: t
Encoding: 116 116 150
Width: 380
GlyphClass: 1
Flags: W
HStem: -8 61<220.715 340.505> 456 64<30 132 210 340>
VStem: 132 78<64.4927 456 520 649>
LayerCount: 2
Back
SplineSet
119 614 m 1,0,-1
 311 687 l 1,1,-1
 311 520 l 1,2,-1
 430 520 l 1,3,-1
 430 383 l 1,4,-1
 311 383 l 1,5,-1
 311 194 l 2,6,7
 311 138 311 138 359 138 c 0,8,9
 379 138 379 138 403 140 c 2,10,-1
 429 143 l 1,11,-1
 446 5 l 1,12,13
 367 -7 367 -7 324 -7 c 0,14,15
 218 -7 218 -7 168.5 44.5 c 0
 119 96 119 96 119 206 c 2,16,-1
 119 383 l 1,17,-1
 16 383 l 1,18,-1
 16 520 l 1,19,-1
 119 520 l 1,20,-1
 119 614 l 1,0,-1
EndSplineSet
Fore
SplineSet
132 649 m 5
 210 687 l 5
 210 520 l 5
 340 520 l 5
 340 456 l 5
 210 456 l 5
 210 123 l 6
 210 76 228 53 264 53 c 5
 273 53 282 54 290 55 c 6
 339 63 l 5
 348 7 l 5
 310 -3 283 -8 262 -8 c 4
 175 -8 132 35 132 121 c 6
 132 456 l 5
 30 456 l 5
 30 520 l 5
 132 520 l 5
 132 649 l 5
EndSplineSet
EndChar

StartChar: thorn
Encoding: 254 254 151
Width: 607
GlyphClass: 1
Flags: HW
LayerCount: 2
Back
SplineSet
191 130 m 1,0,-1
 228 190 l 1,1,2
 257 133 257 133 316 133 c 0,3,4
 357 133 357 133 384.5 163.5 c 0
 412 194 412 194 412 256 c 0,5,6
 412 315 412 315 385.5 346.5 c 0
 359 378 359 378 320 378 c 0,7,8
 248 378 248 378 223 321 c 1,9,-1
 186 394 l 1,10,11
 194 443 194 443 242.5 485.5 c 0
 291 528 291 528 366 528 c 0,12,13
 465 528 465 528 534.5 455.5 c 0
 604 383 604 383 604 259 c 0,14,15
 604 131 604 131 536.5 62 c 0
 469 -7 469 -7 375 -7 c 0,16,17
 302 -7 302 -7 256.5 24.5 c 0
 211 56 211 56 191 130 c 1,0,-1
40 -191 m 1,18,-1
 40 716 l 1,19,-1
 228 716 l 1,20,-1
 228 -191 l 1,21,-1
 40 -191 l 1,18,-1
EndSplineSet
Fore
SplineSet
312 -7 m 0
 237 -7 194 18 158 51 c 1
 158 -191 l 1
 90 -191 l 1
 90 708 l 1
 158 708 l 1
 158 451 l 1
 203 499 251 520 316 520 c 0
 373 520 548 500 548 256 c 0
 548 75 427 -7 312 -7 c 0
312 464 m 0
 295 464 200 461 158 383 c 1
 158 125 l 1
 174 94 224 49 308 49 c 0
 358 49 400 67 432 104 c 128
 464 141 480 191 480 255 c 0
 480 355 449 464 312 464 c 0
EndSplineSet
EndChar

StartChar: three
Encoding: 51 51 152
Width: 550
GlyphClass: 1
Flags: HW
HStem: -8 64<146.321 362.292> 366 64<275 361.749> 644 64<72 380>
VStem: 428 80<121.915 306.4>
LayerCount: 2
Back
SplineSet
69 708 m 1,0,-1
 551 708 l 1,1,-1
 551 596 l 1,2,-1
 393 425 l 1,3,4
 464 425 464 425 520 377.5 c 0
 576 330 576 330 576 233 c 0,5,6
 576 109 576 109 495 50.5 c 0
 414 -8 414 -8 284 -8 c 0,7,8
 203 -8 203 -8 141 12.5 c 0
 79 33 79 33 18 78 c 1,9,-1
 93 204 l 1,10,11
 177 144 177 144 286 144 c 0,12,13
 384 144 384 144 384 230 c 0,14,15
 384 266 384 266 357 286 c 0
 330 306 330 306 288 306 c 2,16,-1
 231 306 l 1,17,-1
 189 419 l 1,18,-1
 320 558 l 1,19,-1
 69 558 l 1,20,-1
 69 708 l 1,0,-1
EndSplineSet
Fore
SplineSet
72 708 m 1
 472 708 l 1
 472 645 l 1
 275 430 l 1
 420.249300019 427.4062625 508 348.317648783 508 220 c 0
 508 158.10274992 486.949768544 -8 261 -8 c 4
 174.269961513 -8 92.5828183393 22.7608488938 22 82 c 1
 55 138 l 1
 113.55084644 83.4187024713 180.425730516 56 255 56 c 0
 375.575634462 56 428 106.303148436 428 222 c 0
 428 316.451697361 371.225903226 366 263 366 c 2
 195 366 l 1
 187 429 l 1
 380 644 l 1
 72 644 l 1
 72 708 l 1
EndSplineSet
EndChar

StartChar: threequarters
Encoding: 190 190 153
Width: 750
GlyphClass: 1
Flags: HW
LayerCount: 2
Back
SplineSet
66 772 m 1,0,-1
 299 772 l 1,1,-1
 299 719 l 1,2,-1
 202 615 l 1,3,4
 245 615 245 615 284 583.5 c 0
 323 552 323 552 323 489 c 0,5,6
 323 432 323 432 280.5 396.5 c 0
 238 361 238 361 171 361 c 0,7,8
 76 361 76 361 37 448 c 1,9,-1
 89 480 l 1,10,11
 116 425 116 425 170 425 c 0,12,13
 206 425 206 425 224.5 443.5 c 0
 243 462 243 462 243 490 c 0,14,15
 243 558 243 558 177 558 c 2,16,-1
 125 558 l 1,17,-1
 125 620 l 1,18,-1
 200 708 l 1,19,-1
 66 708 l 1,20,-1
 66 772 l 1,0,-1
577 388 m 1,21,-1
 661 388 l 1,22,-1
 497 95 l 1,23,-1
 415 95 l 1,24,-1
 577 388 l 1,21,-1
415 31 m 1,25,-1
 415 95 l 1,26,-1
 753 95 l 1,27,-1
 753 31 l 1,28,-1
 415 31 l 1,25,-1
613 -64 m 1,29,-1
 613 192 l 1,30,-1
 693 192 l 1,31,-1
 693 -64 l 1,32,-1
 613 -64 l 1,29,-1
473 567 m 1,33,-1
 539 527 l 1,34,-1
 329 187 l 1,35,-1
 265 227 l 1,36,-1
 473 567 l 1,33,-1
EndSplineSet
Fore
SplineSet
259 490 m 0
 259 505 254 558 185 558 c 2
 133 558 l 1
 133 619 l 1
 216 716 l 1
 66 716 l 1
 66 772 l 1
 307 772 l 1
 307 727 l 1
 202 614 l 1
 204 614 323 612 323 489 c 0
 323 410 259 361 179 361 c 0
 152 361 74 368 37 448 c 1
 89 480 l 1
 98 460 127 417 178 417 c 0
 202 417 259 424 259 490 c 0
575 -64 m 1
 575 31 l 1
 375 31 l 1
 375 87 l 1
 537 388 l 1
 602 388 l 1
 438 87 l 1
 575 87 l 1
 575 192 l 1
 639 192 l 1
 639 87 l 1
 713 87 l 1
 713 31 l 1
 639 31 l 1
 639 -64 l 1
 575 -64 l 1
509 524 m 1
 310 201 l 1
 263 230 l 1
 460 553 l 1
 509 524 l 1
EndSplineSet
EndChar

StartChar: tildecomb
Encoding: 771 771 154
Width: 0
GlyphClass: 1
Flags: HW
HStem: 782 64<16.26 100.363> 844 65<-114.122 -27.1429>
VStem: -193 72<786 837.938> 108 72<852.232 905>
AnchorPoint: "AccentCenter" -0.146484 845.021 mark 0
LayerCount: 2
Back
SplineSet
-219 780 m 1,0,1
 -209 839 -209 839 -174.5 876 c 0
 -140 913 -140 913 -81 913 c 0,2,3
 -54 913 -54 913 -30.5 902.5 c 0
 -7 892 -7 892 6.5 879.5 c 0
 20 867 20 867 38 856.5 c 0
 56 846 56 846 72 846 c 0,4,5
 114 846 114 846 121 905 c 1,6,-1
 219 889 l 1,7,8
 206 819 206 819 171.5 785.5 c 0
 137 752 137 752 76 752 c 0,9,10
 43 752 43 752 17 769 c 0
 -9 786 -9 786 -29.5 802.5 c 0
 -50 819 -50 819 -70 819 c 0,11,12
 -116 819 -116 819 -124 760 c 1,13,-1
 -219 780 l 1,0,1
EndSplineSet
Fore
SplineSet
-73 909 m 0x70
 -8 909 22 846 60 846 c 0xb0
 95 846 107 868 108 905 c 1
 180 905 l 1
 180 818 126 782 58 782 c 0xb0
 -14 782 -27 844 -70 844 c 0
 -108 844 -121 823 -121 786 c 1
 -193 786 l 1
 -193 857 -172 909 -73 909 c 0x70
EndSplineSet
EndChar

StartChar: two
Encoding: 50 50 155
Width: 550
GlyphClass: 1
Flags: W
HStem: 0 72<157 484> 652 64<158.594 340.618>
VStem: 399 80<429.251 595.461>
LayerCount: 2
Back
SplineSet
296 716 m 0,0,1
 397 716 397 716 471 657.5 c 0
 545 599 545 599 545 500 c 0,2,3
 545 433 545 433 498 368 c 0,4,5
 458 311 458 311 392 250 c 2,6,-1
 296 160 l 1,7,-1
 554 160 l 1,8,-1
 553 0 l 1,9,-1
 44 0 l 1,10,-1
 44 130 l 1,11,-1
 283 360 l 2,12,13
 325 402 325 402 343 430.5 c 0
 361 459 361 459 361 489 c 0,14,15
 361 521 361 521 338.5 544 c 0
 316 567 316 567 271 567 c 0,16,17
 184 567 184 567 113 502 c 1,18,-1
 38 622 l 1,19,20
 99 671 99 671 154 693.5 c 0
 209 716 209 716 296 716 c 0,0,1
EndSplineSet
Fore
SplineSet
55 634 m 5
 113.55084644 688.581297529 180.425730516 716 255 716 c 4
 387.742840013 716 479 636.557383047 479 521 c 4
 479 445.003521083 443.57420214 376.57420214 362 295 c 4
 349.475366113 282.475366113 157 73.0997239511 157 72 c 5
 484 72 l 5
 484 0 l 5
 62 0 l 5
 62 71 l 5
 300 331 l 6
 383.856463883 423.632140336 399 453.154387513 399 524 c 4
 399 599.642653563 339.688943489 652 254 652 c 4
 193.040533862 652 137.032614068 627.032614068 88 578 c 5
 55 634 l 5
EndSplineSet
EndChar

StartChar: u
Encoding: 117 117 156
Width: 562
GlyphClass: 1
Flags: W
HStem: -8 64<192.054 322.834> 0 21G<416.543 482> 500 20G<72 152 404 482>
VStem: 72 80<100.885 520> 404 78<119.164 520> 420 62<0 41.472>
AnchorPoint: "AccentCenter" 276 687 basechar 0
LayerCount: 2
Back
SplineSet
56 520 m 5,0,-1
 248 520 l 1,1,-1
 248 216 l 2,2,3
 248 145 248 145 310 145 c 0,4,5
 334 145 334 145 355 158.5 c 0
 376 172 376 172 387 192 c 1,6,-1
 387 520 l 1,7,-1
 579 520 l 1,8,-1
 579 0 l 1,9,-1
 430 0 l 1,10,-1
 387 79 l 1,11,12
 365 40 365 40 324 16 c 0
 283 -8 283 -8 234 -8 c 0,13,14
 148 -8 148 -8 102 47.5 c 0
 56 103 56 103 56 202 c 2,15,-1
 56 520 l 5,0,-1
EndSplineSet
Fore
SplineSet
72 520 m 1xb4
 152 520 l 1
 152 197 l 2
 152 103 187 56 258 56 c 0
 295 56 345 66 404 146 c 1
 404 520 l 1
 482 520 l 1xb8
 482 0 l 1
 420 0 l 1x74
 406 81 l 1
 390 62 330 -8 233 -8 c 0
 190 -8 72 -8 72 195 c 2
 72 520 l 1xb4
EndSplineSet
EndChar

StartChar: uacute
Encoding: 250 250 157
Width: 542
GlyphClass: 1
Flags: HW
LayerCount: 2
Back
SplineSet
205 581 m 1,0,-1
 168 660 l 1,1,-1
 389 774 l 1,2,-1
 448 658 l 1,3,-1
 205 581 l 1,0,-1
56 520 m 5,0,-1
 248 520 l 1,1,-1
 248 216 l 2,2,3
 248 145 248 145 310 145 c 0,4,5
 334 145 334 145 355 158.5 c 0
 376 172 376 172 387 192 c 1,6,-1
 387 520 l 1,7,-1
 579 520 l 1,8,-1
 579 0 l 1,9,-1
 430 0 l 1,10,-1
 387 79 l 1,11,12
 365 40 365 40 324 16 c 0
 283 -8 283 -8 234 -8 c 0,13,14
 148 -8 148 -8 102 47.5 c 0
 56 103 56 103 56 202 c 2,15,-1
 56 520 l 5,0,-1
EndSplineSet
Fore
Refer: 59 769 N 1 0 0 1 266 -154 2
Refer: 156 117 N 1 0 0 1 0 0 2
EndChar

StartChar: ucircumflex
Encoding: 251 251 158
Width: 542
GlyphClass: 1
Flags: HW
LayerCount: 2
Back
SplineSet
124 644 m 25,0,-1
 279 774 l 1,1,-1
 345 774 l 1,2,-1
 500 644 l 1,3,-1
 443 573 l 1,4,-1
 312 679 l 1,5,-1
 173 573 l 1,6,-1
 124 644 l 25,0,-1
56 520 m 5,0,-1
 248 520 l 1,1,-1
 248 216 l 2,2,3
 248 145 248 145 310 145 c 0,4,5
 334 145 334 145 355 158.5 c 0
 376 172 376 172 387 192 c 1,6,-1
 387 520 l 1,7,-1
 579 520 l 1,8,-1
 579 0 l 1,9,-1
 430 0 l 1,10,-1
 387 79 l 1,11,12
 365 40 365 40 324 16 c 0
 283 -8 283 -8 234 -8 c 0,13,14
 148 -8 148 -8 102 47.5 c 0
 56 103 56 103 56 202 c 2,15,-1
 56 520 l 5,0,-1
EndSplineSet
Fore
Refer: 163 770 N 1 0 0 1 272 -154 2
Refer: 156 117 N 1 0 0 1 0 0 2
EndChar

StartChar: udieresis
Encoding: 252 252 159
Width: 542
GlyphClass: 1
Flags: HW
LayerCount: 2
Back
SplineSet
356 681 m 4,0,1
 356 710 356 710 376 730 c 0
 396 750 396 750 425 750 c 0,2,3
 454 750 454 750 474 730 c 0
 494 710 494 710 494 681 c 0,4,5
 494 652 494 652 474 632 c 0
 454 612 454 612 425 612 c 0,6,7
 396 612 396 612 376 632 c 0
 356 652 356 652 356 681 c 4,0,1
130 681 m 0,8,9
 130 710 130 710 150 730 c 0
 170 750 170 750 199 750 c 0,10,11
 228 750 228 750 248 730 c 0
 268 710 268 710 268 681 c 0,12,13
 268 652 268 652 248 632 c 0
 228 612 228 612 199 612 c 0,14,15
 170 612 170 612 150 632 c 0
 130 652 130 652 130 681 c 0,8,9
56 520 m 5,0,-1
 248 520 l 1,1,-1
 248 216 l 2,2,3
 248 145 248 145 310 145 c 0,4,5
 334 145 334 145 355 158.5 c 0
 376 172 376 172 387 192 c 1,6,-1
 387 520 l 1,7,-1
 579 520 l 1,8,-1
 579 0 l 1,9,-1
 430 0 l 1,10,-1
 387 79 l 1,11,12
 365 40 365 40 324 16 c 0
 283 -8 283 -8 234 -8 c 0,13,14
 148 -8 148 -8 102 47.5 c 0
 56 103 56 103 56 202 c 2,15,-1
 56 520 l 5,0,-1
EndSplineSet
Fore
Refer: 165 776 N 1 0 0 1 272 -174 2
Refer: 156 117 N 1 0 0 1 0 0 2
EndChar

StartChar: ugrave
Encoding: 249 249 160
Width: 542
GlyphClass: 1
Flags: HW
LayerCount: 2
Back
SplineSet
411 581 m 1,0,-1
 168 658 l 1,1,-1
 227 774 l 1,2,-1
 448 660 l 1,3,-1
 411 581 l 1,0,-1
56 520 m 5,0,-1
 248 520 l 1,1,-1
 248 216 l 2,2,3
 248 145 248 145 310 145 c 0,4,5
 334 145 334 145 355 158.5 c 0
 376 172 376 172 387 192 c 1,6,-1
 387 520 l 1,7,-1
 579 520 l 1,8,-1
 579 0 l 1,9,-1
 430 0 l 1,10,-1
 387 79 l 1,11,12
 365 40 365 40 324 16 c 0
 283 -8 283 -8 234 -8 c 0,13,14
 148 -8 148 -8 102 47.5 c 0
 56 103 56 103 56 202 c 2,15,-1
 56 520 l 5,0,-1
EndSplineSet
Fore
Refer: 101 768 N 1 0 0 1 272 -154 2
Refer: 156 117 N 1 0 0 1 0 0 2
EndChar

StartChar: underscore
Encoding: 95 95 161
Width: 579
GlyphClass: 1
Flags: HW
LayerCount: 2
Back
SplineSet
95 0 m 1,0,-1
 496 0 l 1,1,-1
 496 -108 l 1,2,-1
 95 -108 l 1,3,-1
 95 0 l 1,0,-1
EndSplineSet
Fore
SplineSet
92 0 m 1
 498 0 l 1
 498 -70 l 1
 92 -70 l 1
 92 0 l 1
EndSplineSet
EndChar

StartChar: uni0302
Encoding: 770 770 163
Width: 0
GlyphClass: 1
Flags: HW
AnchorPoint: "AccentCenter" -0.146484 834.021 mark 0
LayerCount: 2
Back
SplineSet
-188 800 m 25,0,-1
 -33 930 l 1,1,-1
 33 930 l 1,2,-1
 188 800 l 1,3,-1
 131 729 l 1,4,-1
 0 835 l 1,5,-1
 -139 729 l 1,6,-1
 -188 800 l 25,0,-1
EndSplineSet
Fore
SplineSet
-167 795 m 1
 -34 930 l 1
 34 930 l 1
 167 795 l 1
 123 744 l 1
 0 864 l 1
 -123 744 l 1
 -167 795 l 1
EndSplineSet
EndChar

StartChar: uni0308
Encoding: 776 776 165
Width: 0
GlyphClass: 1
Flags: HWO
AnchorPoint: "AccentCenter" -0.146484 854.021 mark 0
LayerCount: 2
Back
SplineSet
44 857 m 4,0,1
 44 886 44 886 64 906 c 0
 84 926 84 926 113 926 c 0,2,3
 142 926 142 926 162 906 c 0
 182 886 182 886 182 857 c 0,4,5
 182 828 182 828 162 808 c 0
 142 788 142 788 113 788 c 0,6,7
 84 788 84 788 64 808 c 0
 44 828 44 828 44 857 c 4,0,1
-182 857 m 0,8,9
 -182 886 -182 886 -162 906 c 0
 -142 926 -142 926 -113 926 c 0,10,11
 -84 926 -84 926 -64 906 c 0
 -44 886 -44 886 -44 857 c 0,12,13
 -44 828 -44 828 -64 808 c 0
 -84 788 -84 788 -113 788 c 0,14,15
 -142 788 -142 788 -162 808 c 0
 -182 828 -182 828 -182 857 c 0,8,9
EndSplineSet
Fore
SplineSet
-50 854 m 0
 -50 824 -74 800 -104 800 c 0
 -135 800 -160 825 -160 854 c 128
 -160 883 -136 909 -104 909 c 0
 -75 909 -50 886 -50 854 c 0
160 854 m 128
 160 825 135 800 104 800 c 0
 74 800 50 824 50 854 c 0
 50 886 75 909 104 909 c 0
 136 909 160 883 160 854 c 128
EndSplineSet
EndChar

StartChar: uni030A
Encoding: 778 778 166
Width: 0
GlyphClass: 1
Flags: HW
LayerCount: 2
Back
SplineSet
-39 840 m 0,0,1
 -39 822 -39 822 -28 811 c 0
 -17 800 -17 800 0 800 c 0,2,3
 17 800 17 800 28 811 c 0
 39 822 39 822 39 840 c 0,4,5
 39 858 39 858 28 869 c 0
 17 880 17 880 0 880 c 0,6,7
 -17 880 -17 880 -28 869 c 0
 -39 858 -39 858 -39 840 c 0,0,1
-110 840 m 0,8,9
 -110 887 -110 887 -78 918.5 c 0
 -46 950 -46 950 0 950 c 0,10,11
 46 950 46 950 78 918.5 c 0
 110 887 110 887 110 840 c 0,12,13
 110 793 110 793 78 761.5 c 0
 46 730 46 730 0 730 c 0,14,15
 -46 730 -46 730 -78 761.5 c 0
 -110 793 -110 793 -110 840 c 0,8,9
EndSplineSet
Fore
SplineSet
100 840 m 128
 100 782 55 743 0 743 c 128
 -55 743 -100 782 -100 840 c 128
 -100 898 -55 937 0 937 c 128
 55 937 100 898 100 840 c 128
46 840 m 128
 46 866 26 883 0 883 c 128
 -26 883 -46 866 -46 840 c 128
 -46 814 -26 797 0 797 c 128
 26 797 46 814 46 840 c 128
EndSplineSet
EndChar

StartChar: uni0327
Encoding: 807 807 167
Width: 0
GlyphClass: 1
Flags: HW
LayerCount: 2
Back
SplineSet
-109 -224 m 0,0,1
 -146 -224 -146 -224 -173 -215 c 1,2,-1
 -160 -134 l 1,3,-1
 -113 -134 l 2,4,5
 -85 -134 -85 -134 -69.5 -117.5 c 0
 -54 -101 -54 -101 -54 -73 c 2,6,-1
 -54 0 l 1,7,-1
 54 0 l 1,8,-1
 54 -64 l 2,9,10
 54 -140 54 -140 11 -182 c 0
 -32 -224 -32 -224 -109 -224 c 0,0,1
EndSplineSet
Fore
SplineSet
38 -105 m 2
 38 -126 32 -224 -89 -224 c 0
 -106 -224 -122 -221 -137 -216 c 1
 -124 -163 l 1
 -91 -163 l 2
 -56 -163 -38 -144 -38 -106 c 2
 -38 0 l 1
 38 0 l 1
 38 -105 l 2
EndSplineSet
EndChar

StartChar: v
Encoding: 118 118 168
Width: 548
GlyphClass: 1
Flags: HW
LayerCount: 2
Back
SplineSet
4 520 m 1,0,-1
 184 520 l 1,1,-1
 303 173 l 1,2,-1
 416 520 l 1,3,-1
 596 520 l 1,4,-1
 404 0 l 1,5,-1
 202 0 l 1,6,-1
 4 520 l 1,0,-1
EndSplineSet
Fore
SplineSet
32 520 m 1
 118 520 l 1
 277 77 l 1
 430 520 l 1
 516 520 l 1
 322 0 l 1
 232 0 l 1
 32 520 l 1
EndSplineSet
EndChar

StartChar: w
Encoding: 119 119 169
Width: 757
GlyphClass: 1
Flags: HW
LayerCount: 2
Back
SplineSet
4 520 m 1,0,-1
 172 520 l 1,1,-1
 232 225 l 1,2,-1
 314 520 l 1,3,-1
 508 520 l 1,4,-1
 584 229 l 1,5,-1
 648 520 l 1,6,-1
 818 520 l 1,7,-1
 692 0 l 1,8,-1
 484 0 l 1,9,-1
 410 293 l 1,10,-1
 332 0 l 1,11,-1
 122 0 l 1,12,-1
 4 520 l 1,0,-1
EndSplineSet
Fore
SplineSet
40 520 m 1
 120 520 l 1
 213 73 l 1
 333 520 l 1
 425 520 l 1
 537 78 l 1
 636 520 l 1
 717 520 l 1
 591 0 l 1
 489 0 l 1
 379 434 l 1
 262 0 l 1
 160 0 l 1
 40 520 l 1
EndSplineSet
EndChar

StartChar: x
Encoding: 120 120 170
Width: 537
GlyphClass: 1
Flags: HW
LayerCount: 2
Back
SplineSet
4 520 m 1,0,-1
 199 520 l 1,1,-1
 286 350 l 1,2,-1
 374 520 l 1,3,-1
 564 520 l 1,4,-1
 403 260 l 1,5,-1
 564 0 l 1,6,-1
 374 0 l 1,7,-1
 288 171 l 1,8,-1
 199 0 l 1,9,-1
 4 0 l 1,10,-1
 164 260 l 1,11,-1
 4 520 l 1,0,-1
EndSplineSet
Fore
SplineSet
30 520 m 1
 126 520 l 1
 269 311 l 1
 411 520 l 1
 507 520 l 1
 317 260 l 1
 507 0 l 1
 411 0 l 1
 269 211 l 1
 126 0 l 1
 30 0 l 1
 221 260 l 1
 30 520 l 1
EndSplineSet
EndChar

StartChar: y
Encoding: 121 121 171
Width: 555
GlyphClass: 1
Flags: HW
LayerCount: 2
Back
SplineSet
4 520 m 1,0,-1
 218 520 l 1,1,-1
 285 300 l 1,2,-1
 298 206 l 1,3,-1
 315 300 l 1,4,-1
 388 520 l 1,5,-1
 582 520 l 1,6,-1
 292 -191 l 1,7,-1
 112 -191 l 1,8,-1
 207 37 l 1,9,-1
 4 520 l 1,0,-1
EndSplineSet
Fore
SplineSet
44 520 m 1
 131 520 l 1
 273 133 l 1
 282 93 l 1
 290 133 l 1
 432 520 l 1
 522 520 l 1
 236 -192 l 1
 155 -192 l 1
 243 26 l 1
 44 520 l 1
EndSplineSet
EndChar

StartChar: yacute
Encoding: 253 253 172
Width: 555
GlyphClass: 1
Flags: HW
LayerCount: 2
Back
SplineSet
167 584 m 1,0,-1
 130 663 l 1,1,-1
 351 777 l 1,2,-1
 410 661 l 1,3,-1
 167 584 l 1,0,-1
4 520 m 1,0,-1
 218 520 l 1,1,-1
 285 300 l 1,2,-1
 298 206 l 1,3,-1
 315 300 l 1,4,-1
 388 520 l 1,5,-1
 582 520 l 1,6,-1
 292 -191 l 1,7,-1
 112 -191 l 1,8,-1
 207 37 l 1,9,-1
 4 520 l 1,0,-1
EndSplineSet
Fore
Refer: 59 769 N 1 0 0 1 285 -154 2
Refer: 171 121 N 1 0 0 1 0 0 3
EndChar

StartChar: ydieresis
Encoding: 255 255 173
Width: 555
GlyphClass: 1
Flags: HW
LayerCount: 2
Back
SplineSet
318 684 m 4,0,1
 318 712 318 712 338 732.5 c 0
 358 753 358 753 387 753 c 0,2,3
 416 753 416 753 436 732.5 c 0
 456 712 456 712 456 684 c 0,4,5
 456 656 456 656 436 635.5 c 0
 416 615 416 615 387 615 c 0,6,7
 358 615 358 615 338 635.5 c 0
 318 656 318 656 318 684 c 4,0,1
92 684 m 0,8,9
 92 712 92 712 112 732.5 c 0
 132 753 132 753 161 753 c 0,10,11
 190 753 190 753 210 732.5 c 0
 230 712 230 712 230 684 c 0,12,13
 230 656 230 656 210 635.5 c 0
 190 615 190 615 161 615 c 0,14,15
 132 615 132 615 112 635.5 c 0
 92 656 92 656 92 684 c 0,8,9
4 520 m 1,0,-1
 218 520 l 1,1,-1
 285 300 l 1,2,-1
 298 206 l 1,3,-1
 315 300 l 1,4,-1
 388 520 l 1,5,-1
 582 520 l 1,6,-1
 292 -191 l 1,7,-1
 112 -191 l 1,8,-1
 207 37 l 1,9,-1
 4 520 l 1,0,-1
EndSplineSet
Fore
Refer: 165 776 N 1 0 0 1 291 -174 2
Refer: 171 121 N 1 0 0 1 0 0 3
EndChar

StartChar: yen
Encoding: 165 165 174
Width: 595
GlyphClass: 1
Flags: HW
LayerCount: 2
Back
SplineSet
105 191 m 1,0,-1
 594 191 l 1,1,-1
 594 83 l 1,2,-1
 105 83 l 1,3,-1
 105 191 l 1,0,-1
105 380 m 1,4,-1
 594 380 l 1,5,-1
 594 272 l 1,6,-1
 105 272 l 1,7,-1
 105 380 l 1,4,-1
287 275 m 1,8,-1
 415 275 l 1,9,-1
 415 0 l 1,10,-1
 287 0 l 1,11,-1
 287 275 l 1,8,-1
292 275 m 1,12,-1
 508 707 l 1,13,-1
 650 707 l 1,14,-1
 410 263 l 1,15,-1
 292 275 l 1,12,-1
48 707 m 1,16,-1
 190 709 l 1,17,-1
 410 275 l 1,18,-1
 292 263 l 1,19,-1
 48 707 l 1,16,-1
EndSplineSet
Fore
SplineSet
100 322 m 1
 498 322 l 1
 498 258 l 1
 100 258 l 1
 100 322 l 1
100 168 m 5
 498 168 l 1
 498 102 l 1
 100 102 l 1
 100 168 l 5
EndSplineSet
Refer: 53 89 N 1 0 0 1 0 0 2
EndChar

StartChar: z
Encoding: 122 122 175
Width: 530
GlyphClass: 1
Flags: HW
LayerCount: 2
Back
SplineSet
40 520 m 1,0,-1
 508 520 l 1,1,-1
 508 410 l 1,2,-1
 286 142 l 1,3,-1
 524 142 l 1,4,-1
 524 0 l 1,5,-1
 40 0 l 1,6,-1
 40 110 l 1,7,-1
 276 378 l 1,8,-1
 40 378 l 1,9,-1
 40 520 l 1,0,-1
EndSplineSet
Fore
SplineSet
66 520 m 1
 460 520 l 1
 460 451 l 1
 159 65 l 1
 466 65 l 1
 466 0 l 1
 64 0 l 1
 64 65 l 1
 369 451 l 1
 66 451 l 1
 66 520 l 1
EndSplineSet
EndChar

StartChar: zero
Encoding: 48 48 176
Width: 550
GlyphClass: 1
Flags: HW
HStem: -7 64<197.368 347.109> 651 65<195.88 351.117>
VStem: 32 80<177.665 538.698> 436 80<181.451 532.969>
LayerCount: 2
Back
SplineSet
298 556 m 4,0,1
 250 556 250 556 233 508.5 c 0
 216 461 216 461 216 358 c 0,2,3
 216 249 216 249 233 201 c 0
 250 153 250 153 297 153 c 0,4,5
 346 153 346 153 363 201 c 0
 380 249 380 249 380 361 c 0,6,7
 380 463 380 463 363.5 509.5 c 0
 347 556 347 556 298 556 c 4,0,1
299 716 m 0,8,9
 427 716 427 716 499 622.5 c 0
 571 529 571 529 571 356 c 0,10,11
 571 183 571 183 498.5 88 c 0
 426 -7 426 -7 298 -7 c 0,12,13
 170 -7 170 -7 97 87 c 0
 24 181 24 181 24 355 c 0,14,15
 24 528 24 528 97.5 622 c 0
 171 716 171 716 299 716 c 0,8,9
EndSplineSet
Fore
SplineSet
273 651 m 4
 188 651 112 599 112 358 c 0
 112 157 165 57 272 57 c 0
 381 57 436 158 436 360 c 0
 436 615 345 651 273 651 c 4
273 716 m 0
 435 716 516 597 516 360 c 0
 516 184 470 -7 272 -7 c 0
 112 -7 32 114 32 357 c 0
 32 596 112 716 273 716 c 0
EndSplineSet
EndChar
